<svg width="84" height="84" viewBox="0 0 84 84" fill="none" xmlns="http://www.w3.org/2000/svg">
<path d="M22.7112 58.0986C22.7112 58.0986 21.9212 52.6982 24.9825 48.2979C24.9825 48.2979 27.2538 44.1976 31.3026 41.2974C31.3026 41.2974 34.8576 38.8973 38.1164 39.2973C38.1164 39.2973 38.8077 39.2973 39.0052 40.2974C39.3014 41.7975 39.4002 42.5975 39.2027 44.0976C39.0052 45.5977 37.9189 48.798 35.8451 51.3982C34.1664 53.3983 30.9076 55.5984 29.6238 56.2985C28.34 56.8985 26.0687 57.8986 23.5012 58.6987L22.7112 58.0986Z" fill="url(#paint0_linear_630_41935)"/>
<path d="M22.711 57.9986C22.711 57.9986 22.316 51.8982 25.3772 47.7979C25.3772 47.7979 27.6485 44.0976 31.4011 41.1974C31.4011 41.1974 34.9561 38.7973 38.0174 39.1973C38.0174 39.1973 38.6099 39.1973 38.9062 40.0973C39.3012 41.3974 39.4 42.2975 39.1037 43.6976C38.7087 45.0977 37.8199 48.1979 35.8449 50.6981C34.3636 52.5982 30.9073 54.9984 29.7223 55.6984C28.5373 56.3985 25.7723 57.6986 23.4022 58.3986L22.711 57.9986Z" fill="#BABABA"/>
<path d="M26.0688 54.7984C28.8339 50.8981 37.6227 40.2974 37.6227 40.2974C37.6227 40.2974 37.7215 40.1974 37.919 40.2974C38.0177 40.3974 38.0178 40.4974 38.0178 40.4974L25.2788 55.9985C25.2788 55.9985 25.9701 54.9984 26.0688 54.7984Z" fill="url(#paint1_linear_630_41935)"/>
<path d="M20.9333 55.5984C20.9333 55.5984 18.3658 50.7981 19.847 45.5977C19.847 45.5977 20.6371 40.8974 23.4021 36.7971C23.4021 36.7971 25.9696 33.2969 29.1297 32.5968C29.1297 32.5968 29.8209 32.2968 30.3147 33.1969C31.1047 34.4969 31.4997 35.197 31.796 36.6971C32.0922 38.1972 32.191 41.4974 31.006 44.6977C30.1172 47.1978 27.7472 50.3981 26.7596 51.3981C25.7721 52.3982 23.8958 54.1983 21.7233 55.6984L20.9333 55.5984Z" fill="url(#paint2_linear_630_41935)"/>
<path d="M20.9334 55.4984C20.9334 55.4984 18.5634 49.898 20.0447 44.9977C20.0447 44.9977 20.9334 40.7974 23.501 36.6971C23.501 36.6971 25.9697 33.2969 29.031 32.5968C29.031 32.5968 29.6235 32.3968 30.2161 33.1969C31.0061 34.2969 31.4011 35.097 31.5986 36.4971C31.6973 37.9972 31.8948 41.0974 30.9073 44.1976C30.1173 46.5978 27.7473 49.998 26.8585 50.9981C25.9697 52.0982 23.7972 54.1983 21.7234 55.6984L20.9334 55.4984Z" fill="#BABABA"/>
<path d="M23.1059 51.2981C24.3897 46.6978 29.1298 33.7969 29.1298 33.7969C29.1298 33.7969 29.2285 33.6969 29.3273 33.6969C29.5248 33.6969 29.5248 33.7969 29.5248 33.7969L22.7109 52.6982C22.7109 52.6982 23.0072 51.4981 23.1059 51.2981Z" fill="url(#paint3_linear_630_41935)"/>
<path d="M27.6484 61.3989C27.6484 61.3989 28.4385 55.9985 32.586 52.6982C32.586 52.6982 35.9436 49.398 40.5849 47.7979C40.5849 47.7979 44.7324 46.4978 47.695 47.8979C47.695 47.8979 48.3862 48.0979 48.2875 49.098C48.09 50.5981 48.09 51.3981 47.3987 52.7982C46.7075 54.1983 44.8312 56.8985 42.0662 58.7987C39.8936 60.2988 36.1411 61.3989 34.6598 61.6989C33.1785 61.8989 30.8085 62.1989 28.0434 62.1989L27.6484 61.3989Z" fill="url(#paint4_linear_630_41935)"/>
<path d="M27.6484 61.2988C27.6484 61.2988 29.031 55.3984 33.0798 52.3982C33.0798 52.3982 36.2398 49.498 40.7824 47.7979C40.7824 47.7979 44.8312 46.5978 47.695 47.7979C47.695 47.7979 48.2875 47.9979 48.2875 48.998C48.2875 50.3981 48.1887 51.2981 47.3987 52.4982C46.6087 53.7983 44.9299 56.3985 42.2637 58.2986C40.2886 59.6987 36.3386 60.9988 34.956 61.2988C33.6723 61.5989 30.7097 61.9989 28.1422 61.8989L27.6484 61.2988Z" fill="#BABABA"/>
<path d="M31.895 59.1987C35.6475 56.2985 47.004 48.698 47.004 48.698C47.004 48.698 47.1027 48.698 47.2015 48.798C47.3002 48.898 47.3002 48.998 47.3002 48.998L30.71 60.0988C30.71 60.0988 31.6975 59.2987 31.895 59.1987Z" fill="url(#paint5_linear_630_41935)"/>
<path d="M29.5244 67.4993C29.5244 67.4993 31.3019 62.3989 36.042 59.8988C36.042 59.8988 39.9921 57.2986 44.8309 56.5985C44.8309 56.5985 49.0772 56.0985 51.7435 57.9986C51.7435 57.9986 52.4348 58.2986 52.1385 59.2987C51.6447 60.7988 51.4472 61.4989 50.5585 62.6989C49.6697 63.899 47.2997 66.1992 44.1396 67.4993C41.7696 68.4994 37.8195 68.8994 36.3383 68.8994C34.857 68.7994 32.3882 68.6994 29.8207 68.0993L29.5244 67.4993Z" fill="url(#paint6_linear_630_41935)"/>
<path d="M29.623 67.3993C29.623 67.3993 32.0918 61.8989 36.7332 59.6987C36.7332 59.6987 40.387 57.4986 45.127 56.6985C45.127 56.6985 49.3733 56.2985 51.8421 58.0986C51.8421 58.0986 52.4346 58.3986 52.1384 59.3987C51.8421 60.7988 51.5459 61.5989 50.6571 62.5989C49.6696 63.699 47.4971 65.9992 44.5345 67.2993C42.2632 68.2993 38.2144 68.7994 36.8319 68.7994C35.4494 68.8994 32.4868 68.6994 30.0181 68.0993L29.623 67.3993Z" fill="#BABABA"/>
<path d="M34.1656 66.1992C38.4119 64.099 51.0521 58.7987 51.0521 58.7987C51.0521 58.7987 51.1509 58.7987 51.2496 58.8987C51.3484 58.9987 51.2496 59.0987 51.2496 59.0987L32.8818 66.6992C32.8818 66.7992 33.8693 66.2992 34.1656 66.1992Z" fill="url(#paint7_linear_630_41935)"/>
<path d="M44.3369 39.8973C44.3369 39.8973 44.7319 32.5968 50.4595 25.9963C50.4595 25.9963 57.5696 16.6957 64.0872 12.5954C64.0872 12.5954 67.4448 10.4952 72.2836 12.3954C72.2836 12.3954 73.3699 12.5954 73.4686 14.3955C73.5674 17.0957 73.7649 18.5958 72.8761 20.996C71.9873 23.4962 68.4323 27.8965 64.581 31.6967C61.6184 34.697 55.6933 38.2972 53.6196 39.1973C51.5458 40.0973 49.472 40.4974 45.3244 40.8974L44.3369 39.8973Z" fill="url(#paint8_linear_630_41935)"/>
<path d="M27.5493 56.3985L44.5346 39.7973C44.5346 39.7973 45.5221 39.9973 45.4233 40.7974L28.3393 57.2985L27.5493 56.3985Z" fill="url(#paint9_linear_630_41935)"/>
<path d="M44.436 39.8973C44.436 39.8973 45.6211 31.5967 51.2499 25.4963C51.2499 25.4963 58.1625 16.5957 64.3838 12.6954C64.3838 12.6954 67.6426 10.6953 72.2839 12.4954C72.2839 12.4954 73.3702 12.6954 73.3702 14.3955C73.469 16.9957 73.6665 18.3958 72.7777 20.596C71.8889 22.9961 68.3339 27.1964 64.7788 30.8967C62.0138 33.7969 55.99 37.8972 53.9162 38.6972C51.8424 39.4973 49.0774 40.3974 45.226 40.7974L44.436 39.8973Z" fill="url(#paint10_linear_630_41935)"/>
<path d="M50.3613 35.397C55.4964 29.5966 71.2966 14.1955 71.2966 14.1955C71.2966 14.1955 71.4941 14.0955 71.6916 14.2955C71.8891 14.4955 71.8891 14.6955 71.8891 14.6955L48.7812 37.0971C48.7812 37.0971 50.065 35.697 50.3613 35.397Z" fill="url(#paint11_linear_630_41935)"/>
<path d="M19.8472 51.7982L30.3148 33.8969C30.3148 33.8969 31.3023 33.7969 31.4011 34.5969L21.0322 52.2982L19.8472 51.7982Z" fill="url(#paint12_linear_630_41935)"/>
<path d="M30.8086 61.5989L48.9789 49.698C48.9789 49.698 49.9664 50.0981 49.6701 50.8981L31.4999 62.799L30.8086 61.5989Z" fill="url(#paint13_linear_630_41935)"/>
<path d="M31.7959 64.4991L51.2499 55.0984C51.2499 55.0984 52.1387 55.5984 51.7437 56.3985L32.0922 65.7992L31.7959 64.4991Z" fill="url(#paint14_linear_630_41935)"/>
<path d="M32.1914 65.9992L51.3492 59.5987C51.3492 59.5987 52.238 60.0988 51.9417 60.6988L32.1914 67.1993V65.9992Z" fill="url(#paint15_linear_630_41935)"/>
<path d="M32.2902 67.5993L47.3991 63.899C47.3991 63.899 47.8929 63.999 47.5966 64.4991L32.1914 68.1993L32.2902 67.5993Z" fill="#A8A8A8"/>
<path d="M29.8212 34.897C29.8212 34.897 27.9449 29.7966 31.2037 21.9961C31.2037 21.9961 35.5487 11.2953 41.1776 4.79486C41.1776 4.79486 44.1401 1.39462 50.0652 0.0945246C50.0652 0.0945246 51.349 -0.405511 52.139 0.894581C53.2253 2.79472 54.0153 3.79479 53.9165 5.99494C53.8178 8.2951 51.5465 13.3955 48.6827 18.2958C46.5102 22.0961 41.3751 27.9965 39.4 29.7966C37.425 31.5967 35.2525 32.9968 30.9074 35.597L29.8212 34.897Z" fill="url(#paint16_linear_630_41935)"/>
<path d="M29.8209 34.797C29.8209 34.797 27.8459 28.5965 31.7959 21.196C31.7959 21.196 36.0422 10.9953 41.5723 4.69485C41.5723 4.69485 44.4361 1.49462 50.1637 0.0945221C50.1637 0.0945221 51.4475 -0.305506 52.1387 0.894579C53.1263 2.69471 53.9163 3.59477 53.8175 5.69492C53.7188 7.89507 51.4475 12.8954 48.7812 17.5958C46.8062 21.196 41.6711 27.4965 39.7948 29.1966C37.9185 30.8967 35.1535 33.0969 31.1047 35.497L29.8209 34.797Z" fill="url(#paint17_linear_630_41935)"/>
<path d="M34.5608 28.6965C38.1158 21.696 49.7685 1.79463 49.7685 1.79463C49.7685 1.79463 49.8672 1.59462 50.2622 1.69462C50.5585 1.79463 50.5585 1.89464 50.5585 1.89464L33.5732 30.8967C33.5732 30.8967 34.3633 29.0966 34.5608 28.6965Z" fill="url(#paint18_linear_630_41935)"/>
<path d="M49.6703 50.7981C49.6703 50.7981 54.8053 52.5982 62.4092 49.198C62.4092 49.198 72.8769 44.6977 79.2957 38.8973C79.2957 38.8973 82.5545 35.897 83.8383 29.8966C83.8383 29.8966 84.2333 28.5965 83.0483 27.8965C81.172 26.7964 80.1845 26.0963 78.0119 26.1964C75.7407 26.2964 70.7043 28.5965 65.8655 31.5967C62.2117 33.6969 56.3854 38.9973 54.7066 40.9974C52.9291 42.9975 51.5465 45.1977 48.979 49.598L49.6703 50.7981Z" fill="url(#paint19_linear_630_41935)"/>
<path d="M49.7689 50.6981C49.7689 50.6981 55.8915 52.5982 63.2979 48.4979C63.2979 48.4979 73.3705 44.0976 79.4931 38.4972C79.4931 38.4972 82.6531 35.597 83.9369 29.7966C83.9369 29.7966 84.3319 28.4965 83.1469 27.7965C81.3694 26.7964 80.4806 25.9964 78.3081 26.1964C76.1355 26.2964 71.198 28.6965 66.6554 31.3967C63.1003 33.4969 56.9778 38.6972 55.299 40.5974C53.6202 42.4975 51.4477 45.2977 49.0776 49.498L49.7689 50.6981Z" fill="url(#paint20_linear_630_41935)"/>
<path d="M55.7927 45.8977C62.7053 42.2975 82.258 30.2966 82.258 30.2966C82.258 30.2966 82.4555 30.1966 82.3568 29.7966C82.258 29.4966 82.1593 29.4966 82.1593 29.4966L53.6201 46.9978C53.6201 46.9978 55.3976 46.0978 55.7927 45.8977Z" fill="url(#paint21_linear_630_41935)"/>
<path d="M51.5465 60.3988C51.5465 60.3988 55.299 61.1988 62.0142 58.9987C62.0142 58.9987 71.198 55.9985 77.4194 52.5982C77.4194 52.5982 80.5794 50.7981 82.6532 47.3979C82.6532 47.3979 83.2457 46.5978 82.357 46.2978C81.0732 45.7978 80.3819 45.3977 78.6044 45.4977C76.7281 45.6977 72.2843 47.1979 67.9392 48.998C64.5817 50.3981 58.9529 53.5983 57.1753 54.6984C55.3978 55.8985 53.9165 57.1986 51.0527 59.6987L51.5465 60.3988Z" fill="url(#paint22_linear_630_41935)"/>
<path d="M51.6455 60.3988C51.6455 60.3988 56.1881 61.1988 62.8044 58.5987C62.8044 58.5987 71.5933 55.6985 77.5184 52.3982C77.5184 52.3982 80.5797 50.5981 82.6535 47.3979C82.6535 47.3979 83.246 46.6978 82.3572 46.2978C81.0734 45.7978 80.4809 45.3977 78.8021 45.5977C77.0246 45.7978 72.6796 47.2979 68.532 48.998C65.372 50.2981 59.4469 53.4983 57.7681 54.5984C56.0893 55.7985 53.9168 57.3986 51.2505 59.7987L51.6455 60.3988Z" fill="#B8B8B8"/>
<path d="M57.2737 57.4986C63.4951 55.1984 81.2703 47.6979 81.2703 47.6979C81.2703 47.6979 81.4679 47.5979 81.4679 47.3979C81.4679 47.2979 81.3691 47.1978 81.3691 47.1978L55.3975 58.0986C55.3975 58.0986 56.9775 57.5986 57.2737 57.4986Z" fill="url(#paint23_linear_630_41935)"/>
<path d="M46.0162 64.7991C46.0162 64.7991 48.88 65.4991 55.1014 63.799C55.1014 63.799 63.6927 61.5989 69.9141 58.7987C69.9141 58.7987 73.1729 57.3986 76.0367 54.5984C76.0367 54.5984 76.7279 53.9983 76.1354 53.6983C75.2467 53.2983 74.8517 52.8983 73.3704 52.9983C71.7904 53.0983 67.6428 54.1983 63.3965 55.5984C60.1377 56.6985 54.5089 59.0987 52.6326 60.0988C50.7563 60.9988 49.0775 61.9989 45.9175 64.099L46.0162 64.7991Z" fill="url(#paint24_linear_630_41935)"/>
<path d="M46.1154 64.6991C46.1154 64.6991 49.5717 65.3992 55.8917 63.499C55.8917 63.499 64.0881 61.2989 70.112 58.6987C70.112 58.6987 73.1733 57.2986 76.0371 54.6984C76.0371 54.6984 76.7283 54.0984 76.1358 53.7983C75.247 53.3983 74.852 53.0983 73.4695 53.1983C71.9882 53.2983 67.8407 54.4984 63.8906 55.7985C60.8293 56.7985 54.9042 59.2987 53.1267 60.1988C51.3492 61.0989 48.9791 62.3989 46.0166 64.2991L46.1154 64.6991Z" fill="#B8B8B8"/>
<path d="M51.7438 62.4989C57.6689 60.6988 74.7529 54.9984 74.7529 54.9984C74.7529 54.9984 74.9504 54.8984 74.9504 54.7984C75.0492 54.6984 74.9504 54.6984 74.9504 54.6984L49.9663 62.999C49.9663 62.999 51.4476 62.599 51.7438 62.4989Z" fill="url(#paint25_linear_630_41935)"/>
<path d="M35.9436 36.9971C35.9436 36.9971 35.2524 29.6966 39.8937 22.3961C39.8937 22.3961 45.5225 12.1954 51.3489 7.19502C51.3489 7.19502 54.4102 4.69484 59.3477 5.79492C59.3477 5.79492 60.434 5.89493 60.829 7.69505C61.3228 10.3952 61.7178 11.7953 61.224 14.2955C60.7303 16.8957 57.8665 21.696 54.6077 26.0964C52.0401 29.4966 46.8063 33.8969 44.93 35.097C42.955 36.2971 40.98 36.9971 37.0299 37.9972L35.9436 36.9971Z" fill="url(#paint26_linear_630_41935)"/>
<path d="M23.7974 53.2983L36.0425 36.8971C36.0425 36.8971 37.0301 36.9971 37.0301 37.7972L24.7849 54.0983L23.7974 53.2983Z" fill="url(#paint27_linear_630_41935)"/>
<path d="M36.0426 36.8971C36.0426 36.8971 35.9439 28.4965 40.5852 21.6961C40.5852 21.6961 46.0165 11.8954 51.6454 7.19503C51.6454 7.19503 54.6079 4.79486 59.348 5.89494C59.348 5.89494 60.4343 5.99494 60.7305 7.69506C61.2243 10.1952 61.6193 11.5953 61.1255 13.9955C60.6318 16.4957 57.768 21.096 54.7067 25.2963C52.4354 28.4965 47.0041 33.3969 45.2265 34.497C43.3503 35.597 40.7827 36.8971 37.0302 37.7972L36.0426 36.8971Z" fill="url(#paint28_linear_630_41935)"/>
<path d="M41.1773 31.5967C45.4236 25.0963 58.6563 7.59505 58.6563 7.59505C58.6563 7.59505 58.8538 7.49504 59.0513 7.69506C59.2488 7.89507 59.2488 7.99508 59.2488 7.99508L39.8936 33.5969C39.8936 33.5969 40.9798 31.9968 41.1773 31.5967Z" fill="url(#paint29_linear_630_41935)"/>
<path d="M45.4238 45.7978C45.4238 45.7978 46.5101 38.5972 52.9289 32.5968C52.9289 32.5968 60.9278 24.0962 67.8404 20.696C67.8404 20.696 71.3955 18.9959 76.0368 21.296C76.0368 21.296 77.1231 21.596 77.0243 23.3962C76.8268 26.0964 76.8268 27.5965 75.7405 29.8966C74.5555 32.2968 70.6055 36.2971 66.3591 39.6973C63.1003 42.2975 56.879 45.3977 54.7065 46.0978C52.5339 46.7978 50.4602 46.9978 46.3126 46.9978L45.4238 45.7978Z" fill="url(#paint30_linear_630_41935)"/>
<path d="M29.6235 58.5987L45.5225 45.6977C45.5225 45.6977 46.4113 45.9978 46.3125 46.7978L30.3148 59.5987L29.6235 58.5987Z" fill="url(#paint31_linear_630_41935)"/>
<path d="M45.5225 45.6978C45.5225 45.6978 47.4975 37.4972 53.7188 32.0968C53.7188 32.0968 61.4215 23.9962 68.1366 20.696C68.1366 20.696 71.5929 19.0959 76.0367 21.296C76.0367 21.296 77.1229 21.596 76.9254 23.2962C76.7279 25.8964 76.8267 27.2965 75.7404 29.4966C74.6541 31.7968 70.7041 35.597 66.754 38.8973C63.6927 41.4975 57.2739 44.8977 55.2001 45.4977C53.1263 46.0978 50.2625 46.6978 46.4112 46.6978L45.5225 45.6978Z" fill="url(#paint32_linear_630_41935)"/>
<path d="M51.8424 41.7975C57.5699 36.5971 74.8514 22.7961 74.8514 22.7961C74.8514 22.7961 75.0489 22.6961 75.2464 22.9962C75.444 23.1962 75.3452 23.3962 75.3452 23.3962L50.1636 43.3976C50.1636 43.3976 51.5461 42.0975 51.8424 41.7975Z" fill="url(#paint33_linear_630_41935)"/>
<path d="M49.9664 57.0985C49.9664 57.0985 54.114 59.1987 61.1253 56.8985C61.1253 56.8985 70.7042 53.8983 76.9256 49.298C76.9256 49.298 80.0856 46.8978 81.9619 41.6975C81.9619 41.6975 82.4557 40.5974 81.4681 39.7973C79.9869 38.6972 79.1968 37.8972 77.3206 37.7972C75.3455 37.6972 70.7042 39.2973 66.2604 41.3974C62.8041 43.0976 57.1753 47.1978 55.3977 48.798C53.6202 50.3981 52.1389 52.1982 49.4727 55.8985L49.9664 57.0985Z" fill="url(#paint34_linear_630_41935)"/>
<path d="M50.0654 56.9986C50.0654 56.9986 55.1017 59.1987 61.9156 56.2985C61.9156 56.2985 71.0995 53.2983 77.0246 48.898C77.0246 48.898 80.0859 46.5978 81.8634 41.5975C81.8634 41.5975 82.3571 40.4974 81.4684 39.7973C79.9871 38.6973 79.3946 37.9972 77.5183 37.8972C75.642 37.7972 71.1982 39.4973 66.8532 41.3975C63.5944 42.8976 57.6693 46.9979 55.9905 48.498C54.3117 49.9981 52.1392 52.2982 49.6704 55.7985L50.0654 56.9986Z" fill="#E5E5E5"/>
<path d="M55.6937 53.2983C62.1125 50.6981 80.2828 41.8975 80.2828 41.8975C80.2828 41.8975 80.4803 41.7975 80.4803 41.4975C80.4803 41.2975 80.3815 41.1974 80.3815 41.1974L53.8174 54.0984C53.8174 54.0984 55.3974 53.4983 55.6937 53.2983Z" fill="url(#paint35_linear_630_41935)"/>
<path d="M15.8975 51.6982C15.8975 51.6982 20.835 32.3968 22.3163 28.7965C23.7976 25.1963 25.1801 23.4962 25.1801 23.4962L24.4888 35.397L17.3787 51.1981L15.8975 51.6982Z" fill="#BABABA"/>
<path d="M16.687 51.4982L24.7846 32.6968C24.7846 32.6968 25.7721 32.4968 25.9697 33.2969L17.6745 52.0982L16.687 51.4982Z" fill="url(#paint36_linear_630_41935)"/>
<path d="M23.8957 35.197C23.8957 35.197 21.7231 30.9967 23.5994 23.9962C23.5994 23.9962 26.0682 14.4956 30.117 8.29511C30.117 8.29511 32.1908 5.09489 37.1284 3.39477C37.1284 3.39477 38.2146 2.89473 38.9059 3.8948C40.0909 5.39491 41.0784 6.29497 41.2759 8.19511C41.4734 10.1952 40.1897 14.4956 38.3134 18.9959C36.9309 22.4961 33.1783 28.2965 31.697 29.9966C30.2158 31.6968 28.6357 33.0969 25.1794 35.7971L23.8957 35.197Z" fill="url(#paint37_linear_630_41935)"/>
<path d="M23.8958 35.097C23.8958 35.097 21.5257 29.9967 23.9945 23.2962C23.9945 23.2962 26.4633 14.1956 30.3146 8.29514C30.3146 8.29514 32.3884 5.29493 37.1285 3.59481C37.1285 3.59481 38.116 3.09477 38.906 4.09484C39.9923 5.49494 40.6835 6.19499 40.881 7.99512C41.0785 9.89525 39.696 14.3956 38.0172 18.5959C36.7335 21.8961 33.0797 27.7965 31.6971 29.3966C30.3146 31.0968 28.2408 33.1969 24.982 35.6971L23.8958 35.097Z" fill="url(#paint38_linear_630_41935)"/>
<path d="M27.2528 29.4966C29.4253 23.0962 37.0292 4.99489 37.0292 4.99489C37.0292 4.99489 37.1279 4.79488 37.4242 4.79488C37.6217 4.89488 37.6217 4.99489 37.6217 4.99489L26.5615 31.3968C26.5615 31.3968 27.154 29.7966 27.2528 29.4966Z" fill="url(#paint39_linear_630_41935)"/>
<path d="M30.4135 72.5996C30.4135 72.5996 30.216 65.1991 23.5009 58.9987C16.687 52.7982 11.7495 53.5983 11.7495 53.5983L4.73811 59.8987L4.63936 59.9988L4.34311 60.2988C2.07182 62.3989 0.491799 65.2991 0.0967928 68.6994C-0.79197 76.1999 4.54061 83.0004 11.947 83.9004C15.6008 84.3005 18.7608 83.5004 21.5259 81.4003C25.7722 78.1 30.4135 72.5996 30.4135 72.5996Z" fill="url(#paint40_radial_630_41935)"/>
<path d="M27.0559 76.2999L32.0922 70.8995C33.5735 65.1991 30.9072 58.2986 25.0809 53.9983C22.2171 51.8982 18.0695 51.1981 15.0082 50.9981C15.0082 50.9981 14.8107 50.9981 14.712 51.0981C14.6132 51.1981 14.4157 51.2981 14.4157 51.2981L9.37939 55.7985C13.3295 55.4984 17.5758 56.5985 20.9333 58.9987C26.8584 63.399 28.9322 70.5995 27.0559 76.2999Z" fill="url(#paint41_linear_630_41935)"/>
<path d="M34.1657 68.7994L35.5482 68.9994C39.4982 61.6989 36.7332 53.5983 30.1168 48.998C21.723 43.0976 17.0816 47.7979 17.0816 47.7979L16.5879 49.698C19.6492 45.2977 26.068 47.4979 29.8206 50.2981C36.3382 55.0984 37.9182 63.099 34.1657 68.7994Z" fill="#757575"/>
<path d="M39.6958 68.8994L41.5721 68.5994C46.2134 63.799 44.5346 53.6983 36.5357 46.2978C27.2531 37.7972 18.7605 40.8974 18.7605 40.8974L18.168 43.0976C23.1055 39.8973 30.2157 42.9976 35.0545 46.8978C42.1646 52.8983 45.5221 63.399 39.6958 68.8994Z" fill="#757575"/>
<path d="M39.7949 68.6994L41.6712 68.3994C46.3125 63.599 44.6337 53.4983 36.6349 46.0978C27.3522 37.5972 18.8596 40.6974 18.8596 40.6974L18.2671 42.9976C23.2047 39.7973 30.3148 42.8976 35.1536 46.7978C42.3624 52.6982 45.72 63.199 39.7949 68.6994Z" fill="url(#paint42_linear_630_41935)"/>
<path d="M34.265 68.7994L35.6475 68.9994C39.5976 61.6989 36.9313 53.3983 30.2162 48.798C21.8223 42.8975 16.9835 47.5979 16.9835 47.5979L16.4897 49.498C19.551 45.0977 26.1674 47.2978 29.9199 49.998C36.5363 54.8984 38.0176 63.099 34.265 68.7994Z" fill="url(#paint43_linear_630_41935)"/>
<defs>
<linearGradient id="paint0_linear_630_41935" x1="36.0101" y1="52.1359" x2="26.4515" y2="44.4225" gradientUnits="userSpaceOnUse">
<stop offset="0.0265899" stop-color="#939393"/>
<stop offset="0.9738" stop-color="#BCBCBC"/>
</linearGradient>
<linearGradient id="paint1_linear_630_41935" x1="31.6731" y1="48.2005" x2="31.3234" y2="47.9172" gradientUnits="userSpaceOnUse">
<stop offset="0.0561744" stop-color="#575757"/>
<stop offset="0.5985" stop-color="#BDBDBD"/>
<stop offset="0.8759" stop-color="#BBBBBB"/>
<stop offset="0.9817" stop-color="#B4B4B4"/>
<stop offset="1" stop-color="#B2B2B2"/>
</linearGradient>
<linearGradient id="paint2_linear_630_41935" x1="31.4559" y1="45.3587" x2="19.8994" y2="41.3042" gradientUnits="userSpaceOnUse">
<stop offset="0.0265899" stop-color="#939393"/>
<stop offset="0.9738" stop-color="#BCBCBC"/>
</linearGradient>
<linearGradient id="paint3_linear_630_41935" x1="26.0543" y1="43.1327" x2="25.6333" y2="42.984" gradientUnits="userSpaceOnUse">
<stop offset="0.0561744" stop-color="#575757"/>
<stop offset="0.5985" stop-color="#BDBDBD"/>
<stop offset="0.8759" stop-color="#BBBBBB"/>
<stop offset="0.9817" stop-color="#B4B4B4"/>
<stop offset="1" stop-color="#B2B2B2"/>
</linearGradient>
<linearGradient id="paint4_linear_630_41935" x1="42.0991" y1="59.5912" x2="35.1458" y2="49.4235" gradientUnits="userSpaceOnUse">
<stop offset="0.0265899" stop-color="#939393"/>
<stop offset="0.9738" stop-color="#BCBCBC"/>
</linearGradient>
<linearGradient id="paint5_linear_630_41935" x1="39.0662" y1="54.5614" x2="38.8123" y2="54.1886" gradientUnits="userSpaceOnUse">
<stop offset="0.0561744" stop-color="#575757"/>
<stop offset="0.5985" stop-color="#BDBDBD"/>
<stop offset="0.8759" stop-color="#BBBBBB"/>
<stop offset="0.9817" stop-color="#B4B4B4"/>
<stop offset="1" stop-color="#B2B2B2"/>
</linearGradient>
<linearGradient id="paint6_linear_630_41935" x1="44.128" y1="68.5599" x2="39.2867" y2="57.2129" gradientUnits="userSpaceOnUse">
<stop offset="0.0265899" stop-color="#939393"/>
<stop offset="0.9738" stop-color="#BCBCBC"/>
</linearGradient>
<linearGradient id="paint7_linear_630_41935" x1="42.116" y1="63.0302" x2="41.9401" y2="62.6156" gradientUnits="userSpaceOnUse">
<stop offset="0.0561744" stop-color="#575757"/>
<stop offset="0.5985" stop-color="#BDBDBD"/>
<stop offset="0.8759" stop-color="#BBBBBB"/>
<stop offset="0.9817" stop-color="#B4B4B4"/>
<stop offset="1" stop-color="#B2B2B2"/>
</linearGradient>
<linearGradient id="paint8_linear_630_41935" x1="64.8699" y1="32.8659" x2="52.8845" y2="20.8363" gradientUnits="userSpaceOnUse">
<stop offset="0.0265899" stop-color="#939393"/>
<stop offset="0.9738" stop-color="#BCBCBC"/>
</linearGradient>
<linearGradient id="paint9_linear_630_41935" x1="34.3513" y1="46.293" x2="37.9723" y2="49.9592" gradientUnits="userSpaceOnUse">
<stop offset="0.4551" stop-color="#B2B2B2"/>
<stop offset="0.5985" stop-color="#E2E2E2"/>
<stop offset="0.6592" stop-color="#E0E0E0"/>
<stop offset="0.6823" stop-color="#D9D9D9"/>
<stop offset="0.6991" stop-color="#CDCDCD"/>
<stop offset="0.7126" stop-color="#BCBCBC"/>
<stop offset="0.7185" stop-color="#B2B2B2"/>
</linearGradient>
<linearGradient id="paint10_linear_630_41935" x1="58.7628" y1="24.6977" x2="59.3335" y2="32.7707" gradientUnits="userSpaceOnUse">
<stop offset="0.0538006" stop-color="#E5E5E5"/>
<stop offset="1" stop-color="#C1C1C1"/>
</linearGradient>
<linearGradient id="paint11_linear_630_41935" x1="60.4496" y1="25.8873" x2="59.9169" y2="25.3504" gradientUnits="userSpaceOnUse">
<stop offset="0.0561744" stop-color="#B2B2B2"/>
<stop offset="0.5985" stop-color="#E2E2E2"/>
<stop offset="0.8014" stop-color="#E0E0E0"/>
<stop offset="0.8789" stop-color="#D9D9D9"/>
<stop offset="0.9349" stop-color="#CDCDCD"/>
<stop offset="0.9803" stop-color="#BCBCBC"/>
<stop offset="1" stop-color="#B2B2B2"/>
</linearGradient>
<linearGradient id="paint12_linear_630_41935" x1="23.2497" y1="41.6206" x2="27.3501" y2="44.0252" gradientUnits="userSpaceOnUse">
<stop offset="0.4551" stop-color="#B2B2B2"/>
<stop offset="0.5985" stop-color="#E2E2E2"/>
<stop offset="0.6592" stop-color="#E0E0E0"/>
<stop offset="0.6823" stop-color="#D9D9D9"/>
<stop offset="0.6991" stop-color="#CDCDCD"/>
<stop offset="0.7126" stop-color="#BCBCBC"/>
<stop offset="0.7185" stop-color="#B2B2B2"/>
</linearGradient>
<linearGradient id="paint13_linear_630_41935" x1="38.7152" y1="53.5521" x2="41.4965" y2="57.8285" gradientUnits="userSpaceOnUse">
<stop offset="0.4551" stop-color="#B2B2B2"/>
<stop offset="0.5985" stop-color="#E2E2E2"/>
<stop offset="0.6592" stop-color="#E0E0E0"/>
<stop offset="0.6823" stop-color="#D9D9D9"/>
<stop offset="0.6991" stop-color="#CDCDCD"/>
<stop offset="0.7126" stop-color="#BCBCBC"/>
<stop offset="0.7185" stop-color="#B2B2B2"/>
</linearGradient>
<linearGradient id="paint14_linear_630_41935" x1="40.5712" y1="57.6954" x2="42.7206" y2="62.2137" gradientUnits="userSpaceOnUse">
<stop offset="0.4551" stop-color="#B2B2B2"/>
<stop offset="0.5985" stop-color="#E2E2E2"/>
<stop offset="0.6592" stop-color="#E0E0E0"/>
<stop offset="0.6823" stop-color="#D9D9D9"/>
<stop offset="0.6991" stop-color="#CDCDCD"/>
<stop offset="0.7126" stop-color="#BCBCBC"/>
<stop offset="0.7185" stop-color="#B2B2B2"/>
</linearGradient>
<linearGradient id="paint15_linear_630_41935" x1="40.5523" y1="61.0036" x2="41.9239" y2="65.153" gradientUnits="userSpaceOnUse">
<stop offset="0.4551" stop-color="#B2B2B2"/>
<stop offset="0.5985" stop-color="#E2E2E2"/>
<stop offset="0.6592" stop-color="#E0E0E0"/>
<stop offset="0.6823" stop-color="#D9D9D9"/>
<stop offset="0.6991" stop-color="#CDCDCD"/>
<stop offset="0.7126" stop-color="#BCBCBC"/>
<stop offset="0.7185" stop-color="#B2B2B2"/>
</linearGradient>
<linearGradient id="paint16_linear_630_41935" x1="49.6829" y1="18.8744" x2="35.5117" y2="10.728" gradientUnits="userSpaceOnUse">
<stop offset="0.0265899" stop-color="#939393"/>
<stop offset="0.9738" stop-color="#BCBCBC"/>
</linearGradient>
<linearGradient id="paint17_linear_630_41935" x1="37.9495" y1="17.502" x2="44.9316" y2="21.1613" gradientUnits="userSpaceOnUse">
<stop offset="0.0842659" stop-color="#E5E5E5"/>
<stop offset="1" stop-color="white"/>
</linearGradient>
<linearGradient id="paint18_linear_630_41935" x1="42.1937" y1="16.3245" x2="41.5644" y2="15.961" gradientUnits="userSpaceOnUse">
<stop offset="0.0561744" stop-color="#B2B2B2"/>
<stop offset="0.5985" stop-color="#E2E2E2"/>
<stop offset="0.8014" stop-color="#E0E0E0"/>
<stop offset="0.8789" stop-color="#D9D9D9"/>
<stop offset="0.9349" stop-color="#CDCDCD"/>
<stop offset="0.9803" stop-color="#BCBCBC"/>
<stop offset="1" stop-color="#B2B2B2"/>
</linearGradient>
<linearGradient id="paint19_linear_630_41935" x1="65.3102" y1="30.5031" x2="73.7906" y2="44.5664" gradientUnits="userSpaceOnUse">
<stop offset="0.0265899" stop-color="#939393"/>
<stop offset="0.9738" stop-color="#BCBCBC"/>
</linearGradient>
<linearGradient id="paint20_linear_630_41935" x1="66.7786" y1="42.35" x2="62.9604" y2="35.4127" gradientUnits="userSpaceOnUse">
<stop offset="0.0842659" stop-color="#C6C6C6"/>
<stop offset="0.3398" stop-color="#CACACA"/>
<stop offset="0.573" stop-color="#D5D5D5"/>
<stop offset="0.7968" stop-color="#E7E7E7"/>
<stop offset="1" stop-color="white"/>
</linearGradient>
<linearGradient id="paint21_linear_630_41935" x1="67.9083" y1="38.084" x2="68.2785" y2="38.695" gradientUnits="userSpaceOnUse">
<stop offset="0.0561744" stop-color="#B2B2B2"/>
<stop offset="0.5985" stop-color="#E2E2E2"/>
<stop offset="0.8014" stop-color="#E0E0E0"/>
<stop offset="0.8789" stop-color="#D9D9D9"/>
<stop offset="0.9349" stop-color="#CDCDCD"/>
<stop offset="0.9803" stop-color="#BCBCBC"/>
<stop offset="1" stop-color="#B2B2B2"/>
</linearGradient>
<linearGradient id="paint22_linear_630_41935" x1="67.7451" y1="48.5304" x2="71.0124" y2="56.3879" gradientUnits="userSpaceOnUse">
<stop offset="0.0265899" stop-color="#939393"/>
<stop offset="0.9738" stop-color="#BCBCBC"/>
</linearGradient>
<linearGradient id="paint23_linear_630_41935" x1="68.4766" y1="52.6252" x2="68.6188" y2="52.966" gradientUnits="userSpaceOnUse">
<stop offset="0.0561744" stop-color="#B2B2B2"/>
<stop offset="0.5985" stop-color="#E2E2E2"/>
<stop offset="0.8014" stop-color="#E0E0E0"/>
<stop offset="0.8789" stop-color="#D9D9D9"/>
<stop offset="0.9349" stop-color="#CDCDCD"/>
<stop offset="0.9803" stop-color="#BCBCBC"/>
<stop offset="1" stop-color="#B2B2B2"/>
</linearGradient>
<linearGradient id="paint24_linear_630_41935" x1="63.2741" y1="55.3842" x2="65.2139" y2="61.2163" gradientUnits="userSpaceOnUse">
<stop offset="0.0265899" stop-color="#939393"/>
<stop offset="0.9738" stop-color="#BCBCBC"/>
</linearGradient>
<linearGradient id="paint25_linear_630_41935" x1="62.5015" y1="58.7339" x2="62.5858" y2="58.9866" gradientUnits="userSpaceOnUse">
<stop offset="0.0561744" stop-color="#B2B2B2"/>
<stop offset="0.5985" stop-color="#E2E2E2"/>
<stop offset="0.8014" stop-color="#E0E0E0"/>
<stop offset="0.8789" stop-color="#D9D9D9"/>
<stop offset="0.9349" stop-color="#CDCDCD"/>
<stop offset="0.9803" stop-color="#BCBCBC"/>
<stop offset="1" stop-color="#B2B2B2"/>
</linearGradient>
<linearGradient id="paint26_linear_630_41935" x1="55.1264" y1="27.1225" x2="41.4245" y2="16.9364" gradientUnits="userSpaceOnUse">
<stop offset="0.0265899" stop-color="#939393"/>
<stop offset="0.9738" stop-color="#BCBCBC"/>
</linearGradient>
<linearGradient id="paint27_linear_630_41935" x1="28.1951" y1="43.6204" x2="32.0017" y2="46.4762" gradientUnits="userSpaceOnUse">
<stop offset="0.4551" stop-color="#B2B2B2"/>
<stop offset="0.5985" stop-color="#E2E2E2"/>
<stop offset="0.6592" stop-color="#E0E0E0"/>
<stop offset="0.6823" stop-color="#D9D9D9"/>
<stop offset="0.6991" stop-color="#CDCDCD"/>
<stop offset="0.7126" stop-color="#BCBCBC"/>
<stop offset="0.7185" stop-color="#B2B2B2"/>
</linearGradient>
<linearGradient id="paint28_linear_630_41935" x1="46.1022" y1="20.2556" x2="52.7943" y2="24.8084" gradientUnits="userSpaceOnUse">
<stop offset="0.0842659" stop-color="#E5E5E5"/>
<stop offset="1" stop-color="white"/>
</linearGradient>
<linearGradient id="paint29_linear_630_41935" x1="49.7063" y1="20.822" x2="49.0975" y2="20.3674" gradientUnits="userSpaceOnUse">
<stop offset="0.0561744" stop-color="#B2B2B2"/>
<stop offset="0.5985" stop-color="#E2E2E2"/>
<stop offset="0.8014" stop-color="#E0E0E0"/>
<stop offset="0.8789" stop-color="#D9D9D9"/>
<stop offset="0.9349" stop-color="#CDCDCD"/>
<stop offset="0.9803" stop-color="#BCBCBC"/>
<stop offset="1" stop-color="#B2B2B2"/>
</linearGradient>
<linearGradient id="paint30_linear_630_41935" x1="66.5324" y1="40.8188" x2="55.8131" y2="27.6264" gradientUnits="userSpaceOnUse">
<stop offset="0.0265899" stop-color="#939393"/>
<stop offset="0.9738" stop-color="#BCBCBC"/>
</linearGradient>
<linearGradient id="paint31_linear_630_41935" x1="36.2505" y1="50.3232" x2="39.2221" y2="54.0132" gradientUnits="userSpaceOnUse">
<stop offset="0.4551" stop-color="#B2B2B2"/>
<stop offset="0.5985" stop-color="#E2E2E2"/>
<stop offset="0.6592" stop-color="#E0E0E0"/>
<stop offset="0.6823" stop-color="#D9D9D9"/>
<stop offset="0.6991" stop-color="#CDCDCD"/>
<stop offset="0.7126" stop-color="#BCBCBC"/>
<stop offset="0.7185" stop-color="#B2B2B2"/>
</linearGradient>
<linearGradient id="paint32_linear_630_41935" x1="59.4677" y1="32.0127" x2="64.8061" y2="38.0517" gradientUnits="userSpaceOnUse">
<stop offset="0.0538006" stop-color="#E5E5E5"/>
<stop offset="1" stop-color="#D6D6D6"/>
</linearGradient>
<linearGradient id="paint33_linear_630_41935" x1="62.8305" y1="33.4251" x2="62.3545" y2="32.8367" gradientUnits="userSpaceOnUse">
<stop offset="0.0561744" stop-color="#B2B2B2"/>
<stop offset="0.5985" stop-color="#E2E2E2"/>
<stop offset="0.8014" stop-color="#E0E0E0"/>
<stop offset="0.8789" stop-color="#D9D9D9"/>
<stop offset="0.9349" stop-color="#CDCDCD"/>
<stop offset="0.9803" stop-color="#BCBCBC"/>
<stop offset="1" stop-color="#B2B2B2"/>
</linearGradient>
<linearGradient id="paint34_linear_630_41935" x1="65.7035" y1="40.5593" x2="71.8832" y2="53.5418" gradientUnits="userSpaceOnUse">
<stop offset="0.0265899" stop-color="#939393"/>
<stop offset="0.9738" stop-color="#BCBCBC"/>
</linearGradient>
<linearGradient id="paint35_linear_630_41935" x1="67.043" y1="47.5156" x2="67.3132" y2="48.0802" gradientUnits="userSpaceOnUse">
<stop offset="0.0561744" stop-color="#B2B2B2"/>
<stop offset="0.5985" stop-color="#E2E2E2"/>
<stop offset="0.8014" stop-color="#E0E0E0"/>
<stop offset="0.8789" stop-color="#D9D9D9"/>
<stop offset="0.9349" stop-color="#CDCDCD"/>
<stop offset="0.9803" stop-color="#BCBCBC"/>
<stop offset="1" stop-color="#B2B2B2"/>
</linearGradient>
<linearGradient id="paint36_linear_630_41935" x1="18.6906" y1="41.0859" x2="23.0401" y2="42.9931" gradientUnits="userSpaceOnUse">
<stop offset="0.4551" stop-color="#B2B2B2"/>
<stop offset="0.5985" stop-color="#E2E2E2"/>
<stop offset="0.6592" stop-color="#E0E0E0"/>
<stop offset="0.6823" stop-color="#D9D9D9"/>
<stop offset="0.6991" stop-color="#CDCDCD"/>
<stop offset="0.7126" stop-color="#BCBCBC"/>
<stop offset="0.7185" stop-color="#B2B2B2"/>
</linearGradient>
<linearGradient id="paint37_linear_630_41935" x1="39.1004" y1="19.6381" x2="25.7493" y2="14.1908" gradientUnits="userSpaceOnUse">
<stop offset="0.0265899" stop-color="#939393"/>
<stop offset="0.9738" stop-color="#BCBCBC"/>
</linearGradient>
<linearGradient id="paint38_linear_630_41935" x1="28.6978" y1="19.5846" x2="35.0974" y2="21.9056" gradientUnits="userSpaceOnUse">
<stop offset="0.0842659" stop-color="#E5E5E5"/>
<stop offset="1" stop-color="white"/>
</linearGradient>
<linearGradient id="paint39_linear_630_41935" x1="32.1649" y1="18.1522" x2="31.5854" y2="17.9145" gradientUnits="userSpaceOnUse">
<stop offset="0.0561744" stop-color="#B2B2B2"/>
<stop offset="0.5985" stop-color="#E2E2E2"/>
<stop offset="0.8014" stop-color="#E0E0E0"/>
<stop offset="0.8789" stop-color="#D9D9D9"/>
<stop offset="0.9349" stop-color="#CDCDCD"/>
<stop offset="0.9803" stop-color="#BCBCBC"/>
<stop offset="1" stop-color="#B2B2B2"/>
</linearGradient>
<radialGradient id="paint40_radial_630_41935" cx="0" cy="0" r="1" gradientUnits="userSpaceOnUse" gradientTransform="translate(13.9219 59.9987) rotate(83.6216) scale(26.6669 29.2522)">
<stop offset="0.557294" stop-color="#E2E2E2"/>
<stop offset="0.9169" stop-color="#B2B2B2"/>
</radialGradient>
<linearGradient id="paint41_linear_630_41935" x1="13.3482" y1="49.6699" x2="34.6001" y2="75.1837" gradientUnits="userSpaceOnUse">
<stop offset="0.1392" stop-color="#757575"/>
<stop offset="0.5093" stop-color="#1C1C1C"/>
<stop offset="0.8077" stop-color="#414141"/>
</linearGradient>
<linearGradient id="paint42_linear_630_41935" x1="21.393" y1="36.8747" x2="39.6637" y2="74.9628" gradientUnits="userSpaceOnUse">
<stop offset="0.1392" stop-color="#C7C7C7"/>
<stop offset="0.5093" stop-color="#C2C2C2"/>
<stop offset="0.8077" stop-color="#F1F1F1"/>
</linearGradient>
<linearGradient id="paint43_linear_630_41935" x1="19.0888" y1="43.3521" x2="41.0877" y2="69.7627" gradientUnits="userSpaceOnUse">
<stop offset="0.1392" stop-color="#C7C7C7"/>
<stop offset="0.5093" stop-color="#C2C2C2"/>
<stop offset="0.8077" stop-color="#F1F1F1"/>
</linearGradient>
</defs>
</svg>
