<svg width="20" height="20" fill="none" xmlns="http://www.w3.org/2000/svg"><path d="M4.072 9.25v3c0 2.475 0 3.712.76 4.48.76.77 1.981.77 4.426.77h1.481c2.444 0 3.667 0 4.426-.77.76-.768.76-2.005.76-4.48v-3M10 9.25v8.25M3.333 7.75c0-.56 0-.841.149-1.05.097-.137.238-.25.407-.33.257-.12.604-.12 1.296-.12h9.63c.692 0 1.038 0 1.296.12.169.08.309.193.406.33.15.209.15.49.15 1.05s0 .841-.15 1.05c-.097.137-.237.25-.406.33-.258.12-.604.12-1.296.12h-9.63c-.692 0-1.039 0-1.296-.12a1.032 1.032 0 0 1-.407-.33c-.149-.209-.149-.49-.149-1.05zm2.222-3.91c0-.74.592-1.34 1.322-1.34h.265c1.578 0 2.857 1.295 2.857 2.893v.857H7.936c-1.315 0-2.381-1.08-2.381-2.41zm8.89 0c0-.74-.592-1.34-1.322-1.34h-.265c-1.578 0-2.857 1.295-2.857 2.893v.857h2.063c1.315 0 2.381-1.08 2.381-2.41z" stroke="#fff" stroke-width="1.67" stroke-linecap="round" stroke-linejoin="round"/></svg>