<?xml version="1.0" encoding="UTF-8"?>
<!DOCTYPE svg PUBLIC "-//W3C//DTD SVG 1.1//EN" "http://www.w3.org/Graphics/SVG/1.1/DTD/svg11.dtd">
<!-- Creator: CorelDRAW -->
<svg xmlns="http://www.w3.org/2000/svg" xml:space="preserve" width="6.82666in" height="6.82666in" style="shape-rendering:geometricPrecision; text-rendering:geometricPrecision; image-rendering:optimizeQuality; fill-rule:evenodd; clip-rule:evenodd"
viewBox="0 0 6.82666 6.82666"
 xmlns:xlink="http://www.w3.org/1999/xlink">
 <defs>
  <style type="text/css">
   <![CDATA[
    .fil5 {fill:none}
    .fil2 {fill:#929292}
    .fil0 {fill:#A4A4A4}
    .fil1 {fill:#545454;fill-rule:nonzero}
    .fil3 {fill:#8B8B8B;fill-rule:nonzero}
    .fil4 {fill:#BFBFBF;fill-rule:nonzero}
   ]]>
  </style>
 </defs>
 <g id="Layer_x0020_1">
  <metadata id="CorelCorpID_0Corel-Layer"/>
  <g id="_276983616">
   <path id="_274236696" class="fil0" d="M5.69857 1.38864l-0.0670118 -0.0842913 0.0739016 -0.0588661 -0.200138 -0.200146c-0.000724409,0.000897638 -0.00142913,0.0018622 -0.00209843,0.00275984 -0.116984,0.156024 -0.245598,0.301016 -0.381992,0.440224 -0.120268,0.122748 -0.245606,0.239874 -0.369118,0.359268 -0.0562283,0.0543543 -0.112457,0.108709 -0.168169,0.163591 -0.362413,0.357 -0.750335,0.681843 -1.14017,1.00793 -0.342547,0.286539 -0.682941,0.573972 -1.01644,0.871118 -0.455732,0.406051 -0.89765,0.826484 -1.32923,1.25808 -0.0705748,0.0705787 -0.112039,0.163646 -0.118598,0.263126 -0.00652756,0.0990709 0.0226772,0.197354 0.0831181,0.27626 0.00950394,0.0124055 0.0197362,0.024252 0.0305984,0.0354921 0.010937,0.0113189 0.0225945,0.0219528 0.034752,0.0319449 0.0785276,0.0645551 0.178882,0.0972756 0.280331,0.0923228 0.101949,-0.00497638 0.197776,-0.0466339 0.270039,-0.118902 0.431594,-0.431591 0.852031,-0.87352 1.25809,-1.32925 0.297154,-0.3335 0.584594,-0.673894 0.871134,-1.01644 0.331839,-0.396705 0.662224,-0.791083 1.0265,-1.15897 0.0566496,-0.0572087 0.112689,-0.115012 0.168736,-0.172807 0.225433,-0.232488 0.447874,-0.456016 0.695772,-0.662453z"/>
   <path id="_274236360" class="fil1" d="M5.51381 0.903004c-0.0416496,-0.0416496 -0.109185,-0.0416496 -0.150835,0 -0.0416496,0.0416496 -0.0416496,0.109185 0,0.150835l0.40985 0.40985c0.0416496,0.0416496 0.109185,0.0416496 0.150835,0 0.0416496,-0.0416496 0.0416496,-0.109185 0,-0.150835l-0.40985 -0.40985z"/>
  </g>
  <path class="fil2" d="M5.69857 1.38864l-0.0670118 -0.0842913 0.0739016 -0.0588661 -0.0314409 -0.0314449 -0.00187795 -0.00187402 -4.59248 4.4963 0.000177165 0.000204724c0.00433858,0.00494488 0.00880709,0.0097874 0.0133819,0.0145197 0.010937,0.0113189 0.0225945,0.0219528 0.034752,0.0319449 0.0785276,0.0645551 0.178882,0.0972756 0.280331,0.0923228 0.101949,-0.00497638 0.197776,-0.0466339 0.270039,-0.118902 0.431594,-0.431591 0.852031,-0.87352 1.25809,-1.32925 0.297154,-0.3335 0.584594,-0.673894 0.871134,-1.01644 0.331839,-0.396705 0.662224,-0.791083 1.0265,-1.15897 0.0566496,-0.0572087 0.112689,-0.115012 0.168736,-0.172807 0.225433,-0.232488 0.447874,-0.456016 0.695772,-0.662453z"/>
  <path class="fil1" d="M5.51381 0.903004c-0.0416496,-0.0416496 -0.109185,-0.0416496 -0.150835,0 -0.0416496,0.0416496 -0.0416496,0.109185 0,0.150835l0.232949 0.232949 0.152429 -0.14924 -0.234543 -0.234543zm0.0821142 0.383783l0.00185039 0.00185039 0.175051 0.175051c0.0416496,0.0416496 0.109185,0.0416496 0.150835,0 0.0416496,-0.0416496 0.0416496,-0.109185 0,-0.150835l-0.173402 -0.173402 -0.00190551 -0.00190551 -0.152429 0.14924z"/>
  <path class="fil3" d="M3.86102 4.86935c-0.0801142,-0.0801181 -0.190819,-0.129681 -0.31311,-0.129681 -0.122287,0 -0.232992,0.0495591 -0.31311,0.129681 -0.0801181,0.0801142 -0.129677,0.190827 -0.129677,0.31311 0,0.122287 0.0495591,0.232996 0.129677,0.313114 0.0801142,0.0801142 0.190823,0.129673 0.31311,0.129673 0.122287,0 0.232996,-0.0495591 0.31311,-0.129673 0.080122,-0.080122 0.129681,-0.190827 0.129681,-0.313114 0,-0.122283 -0.049563,-0.232996 -0.129681,-0.31311z"/>
  <path class="fil4" d="M3.10852 5.12739c-0.00223622,0.0180433 -0.00339764,0.0364252 -0.00339764,0.0550787 0,0.00757874 0.000188976,0.0151142 0.000566929,0.0226024 0.00670079,0.00403543 0.0135709,0.00797638 0.0206063,0.0118189 0.055563,0.0303583 0.121673,0.0547598 0.194878,0.0713228 0.0701969,0.0158819 0.146799,0.0246496 0.226736,0.0246496 0.079937,0 0.156539,-0.00876772 0.226736,-0.0246496 0.0732047,-0.016563 0.139315,-0.0409646 0.194878,-0.0713228 0.00703543,-0.00384252 0.0139094,-0.00778346 0.0206102,-0.0118189 0.000377953,-0.00748819 0.000566929,-0.0150236 0.000566929,-0.0226024 0,-0.0186535 -0.00115748,-0.0370354 -0.00339764,-0.0550827 -0.0151063,0.0109882 -0.0316772,0.0214094 -0.0495512,0.0311732 -0.0502126,0.0274331 -0.11048,0.0496063 -0.177689,0.064811 -0.0649921,0.0147047 -0.136638,0.0228228 -0.212154,0.0228228 -0.0755157,0 -0.147161,-0.00811811 -0.212154,-0.0228228 -0.0672087,-0.0152047 -0.127476,-0.037378 -0.177689,-0.064811 -0.017874,-0.00976378 -0.0344409,-0.0201811 -0.0495472,-0.0311693z"/>
  <rect class="fil5" width="6.82666" height="6.82666"/>
 </g>
</svg>
