<svg width="20" height="20" fill="none" xmlns="http://www.w3.org/2000/svg"><g clip-path="url(#a)" stroke="#fff" stroke-width="1.67" stroke-linecap="round"><path d="M12.918 10a2.917 2.917 0 1 1-5.834 0 2.917 2.917 0 0 1 5.834 0z"/><path d="M17.51 11.877c.434-.127.652-.19.738-.31.086-.12.086-.314.086-.701V9.135c0-.388 0-.581-.086-.702-.086-.12-.304-.183-.739-.31-1.625-.47-2.642-2.295-2.223-4.03.116-.476.173-.715.118-.854-.055-.14-.213-.237-.529-.43l-1.437-.876c-.31-.19-.465-.284-.605-.264-.139.02-.296.189-.61.525a3.015 3.015 0 0 1-4.444 0c-.314-.336-.471-.504-.61-.525-.14-.02-.295.075-.605.264l-1.437.876c-.316.193-.474.29-.53.43-.054.14.003.378.119.855.419 1.734-.6 3.559-2.225 4.03-.435.126-.652.189-.738.31-.086.12-.086.313-.086.7v1.732c0 .387 0 .58.086.701.086.12.303.184.738.31 1.625.47 2.643 2.295 2.223 4.03-.115.476-.173.715-.118.855.055.14.213.236.53.429l1.437.876c.31.19.465.284.604.264.14-.02.297-.189.61-.525a3.017 3.017 0 0 1 4.447 0c.314.336.471.505.61.525.14.02.295-.075.605-.264l1.437-.876c.317-.193.475-.29.53-.43.055-.14-.003-.378-.118-.855-.42-1.734.596-3.559 2.221-4.03z"/></g><defs><clipPath id="a"><path fill="#fff" d="M0 0h20v20H0z"/></clipPath></defs></svg>