<svg width="84" height="84" viewBox="0 0 84 84" fill="none" xmlns="http://www.w3.org/2000/svg">
<path d="M42.0496 20.9753C47.8418 20.9753 52.5373 16.2798 52.5373 10.4876C52.5373 4.69547 47.8418 0 42.0496 0C36.2575 0 31.562 4.69547 31.562 10.4876C31.562 16.2798 36.2575 20.9753 42.0496 20.9753Z" fill="url(#paint0_radial_630_43767)"/>
<path opacity="0.5" d="M42.0496 20.9753C47.8418 20.9753 52.5373 16.2798 52.5373 10.4876C52.5373 4.69547 47.8418 0 42.0496 0C36.2575 0 31.562 4.69547 31.562 10.4876C31.562 16.2798 36.2575 20.9753 42.0496 20.9753Z" fill="url(#paint1_radial_630_43767)"/>
<path d="M42.0496 20.9753C47.8418 20.9753 52.5373 16.2798 52.5373 10.4876C52.5373 4.69547 47.8418 0 42.0496 0C36.2575 0 31.562 4.69547 31.562 10.4876C31.562 16.2798 36.2575 20.9753 42.0496 20.9753Z" fill="url(#paint2_radial_630_43767)" fill-opacity="0.8"/>
<path d="M31.5619 39.1802C37.354 39.1802 42.0495 34.4847 42.0495 28.6926C42.0495 22.9004 37.354 18.205 31.5619 18.205C25.7697 18.205 21.0742 22.9004 21.0742 28.6926C21.0742 34.4847 25.7697 39.1802 31.5619 39.1802Z" fill="url(#paint3_radial_630_43767)"/>
<path opacity="0.5" d="M31.5619 39.1802C37.354 39.1802 42.0495 34.4847 42.0495 28.6926C42.0495 22.9004 37.354 18.205 31.5619 18.205C25.7697 18.205 21.0742 22.9004 21.0742 28.6926C21.0742 34.4847 25.7697 39.1802 31.5619 39.1802Z" fill="url(#paint4_radial_630_43767)"/>
<path d="M31.5619 39.1802C37.354 39.1802 42.0495 34.4847 42.0495 28.6926C42.0495 22.9004 37.354 18.205 31.5619 18.205C25.7697 18.205 21.0742 22.9004 21.0742 28.6926C21.0742 34.4847 25.7697 39.1802 31.5619 39.1802Z" fill="url(#paint5_radial_630_43767)" fill-opacity="0.8"/>
<path d="M52.5372 39.1802C58.3294 39.1802 63.0248 34.4847 63.0248 28.6926C63.0248 22.9004 58.3294 18.205 52.5372 18.205C46.745 18.205 42.0496 22.9004 42.0496 28.6926C42.0496 34.4847 46.745 39.1802 52.5372 39.1802Z" fill="url(#paint6_radial_630_43767)"/>
<path opacity="0.5" d="M52.5372 39.1802C58.3294 39.1802 63.0248 34.4847 63.0248 28.6926C63.0248 22.9004 58.3294 18.205 52.5372 18.205C46.745 18.205 42.0496 22.9004 42.0496 28.6926C42.0496 34.4847 46.745 39.1802 52.5372 39.1802Z" fill="url(#paint7_radial_630_43767)"/>
<path d="M52.5372 39.1802C58.3294 39.1802 63.0248 34.4847 63.0248 28.6926C63.0248 22.9004 58.3294 18.205 52.5372 18.205C46.745 18.205 42.0496 22.9004 42.0496 28.6926C42.0496 34.4847 46.745 39.1802 52.5372 39.1802Z" fill="url(#paint8_radial_630_43767)" fill-opacity="0.8"/>
<path d="M20.9754 57.2862C26.7676 57.2862 31.4631 52.5908 31.4631 46.7986C31.4631 41.0064 26.7676 36.311 20.9754 36.311C15.1833 36.311 10.4878 41.0064 10.4878 46.7986C10.4878 52.5908 15.1833 57.2862 20.9754 57.2862Z" fill="url(#paint9_radial_630_43767)"/>
<path opacity="0.5" d="M20.9754 57.2862C26.7676 57.2862 31.4631 52.5908 31.4631 46.7986C31.4631 41.0064 26.7676 36.311 20.9754 36.311C15.1833 36.311 10.4878 41.0064 10.4878 46.7986C10.4878 52.5908 15.1833 57.2862 20.9754 57.2862Z" fill="url(#paint10_radial_630_43767)"/>
<path d="M20.9754 57.2862C26.7676 57.2862 31.4631 52.5908 31.4631 46.7986C31.4631 41.0064 26.7676 36.311 20.9754 36.311C15.1833 36.311 10.4878 41.0064 10.4878 46.7986C10.4878 52.5908 15.1833 57.2862 20.9754 57.2862Z" fill="url(#paint11_radial_630_43767)" fill-opacity="0.8"/>
<path d="M41.9505 57.2862C47.7427 57.2862 52.4382 52.5908 52.4382 46.7986C52.4382 41.0064 47.7427 36.311 41.9505 36.311C36.1584 36.311 31.4629 41.0064 31.4629 46.7986C31.4629 52.5908 36.1584 57.2862 41.9505 57.2862Z" fill="url(#paint12_radial_630_43767)"/>
<path opacity="0.5" d="M41.9505 57.2862C47.7427 57.2862 52.4382 52.5908 52.4382 46.7986C52.4382 41.0064 47.7427 36.311 41.9505 36.311C36.1584 36.311 31.4629 41.0064 31.4629 46.7986C31.4629 52.5908 36.1584 57.2862 41.9505 57.2862Z" fill="url(#paint13_radial_630_43767)"/>
<path d="M41.9505 57.2862C47.7427 57.2862 52.4382 52.5908 52.4382 46.7986C52.4382 41.0064 47.7427 36.311 41.9505 36.311C36.1584 36.311 31.4629 41.0064 31.4629 46.7986C31.4629 52.5908 36.1584 57.2862 41.9505 57.2862Z" fill="url(#paint14_radial_630_43767)" fill-opacity="0.8"/>
<path d="M62.9259 57.2862C68.718 57.2862 73.4135 52.5908 73.4135 46.7986C73.4135 41.0064 68.718 36.311 62.9259 36.311C57.1337 36.311 52.4382 41.0064 52.4382 46.7986C52.4382 52.5908 57.1337 57.2862 62.9259 57.2862Z" fill="url(#paint15_radial_630_43767)"/>
<path opacity="0.5" d="M62.9259 57.2862C68.718 57.2862 73.4135 52.5908 73.4135 46.7986C73.4135 41.0064 68.718 36.311 62.9259 36.311C57.1337 36.311 52.4382 41.0064 52.4382 46.7986C52.4382 52.5908 57.1337 57.2862 62.9259 57.2862Z" fill="url(#paint16_radial_630_43767)"/>
<path d="M62.9259 57.2862C68.718 57.2862 73.4135 52.5908 73.4135 46.7986C73.4135 41.0064 68.718 36.311 62.9259 36.311C57.1337 36.311 52.4382 41.0064 52.4382 46.7986C52.4382 52.5908 57.1337 57.2862 62.9259 57.2862Z" fill="url(#paint17_radial_630_43767)" fill-opacity="0.8"/>
<path d="M10.4876 75.4911C16.2798 75.4911 20.9753 70.7957 20.9753 65.0035C20.9753 59.2113 16.2798 54.5159 10.4876 54.5159C4.69547 54.5159 0 59.2113 0 65.0035C0 70.7957 4.69547 75.4911 10.4876 75.4911Z" fill="url(#paint18_radial_630_43767)"/>
<path opacity="0.5" d="M10.4876 75.4911C16.2798 75.4911 20.9753 70.7957 20.9753 65.0035C20.9753 59.2113 16.2798 54.5159 10.4876 54.5159C4.69547 54.5159 0 59.2113 0 65.0035C0 70.7957 4.69547 75.4911 10.4876 75.4911Z" fill="url(#paint19_radial_630_43767)"/>
<path d="M10.4876 75.4911C16.2798 75.4911 20.9753 70.7957 20.9753 65.0035C20.9753 59.2113 16.2798 54.5159 10.4876 54.5159C4.69547 54.5159 0 59.2113 0 65.0035C0 70.7957 4.69547 75.4911 10.4876 75.4911Z" fill="url(#paint20_radial_630_43767)" fill-opacity="0.8"/>
<path d="M31.4627 75.4911C37.2549 75.4911 41.9504 70.7957 41.9504 65.0035C41.9504 59.2113 37.2549 54.5159 31.4627 54.5159C25.6706 54.5159 20.9751 59.2113 20.9751 65.0035C20.9751 70.7957 25.6706 75.4911 31.4627 75.4911Z" fill="url(#paint21_radial_630_43767)"/>
<path opacity="0.5" d="M31.4627 75.4911C37.2549 75.4911 41.9504 70.7957 41.9504 65.0035C41.9504 59.2113 37.2549 54.5159 31.4627 54.5159C25.6706 54.5159 20.9751 59.2113 20.9751 65.0035C20.9751 70.7957 25.6706 75.4911 31.4627 75.4911Z" fill="url(#paint22_radial_630_43767)"/>
<path d="M31.4627 75.4911C37.2549 75.4911 41.9504 70.7957 41.9504 65.0035C41.9504 59.2113 37.2549 54.5159 31.4627 54.5159C25.6706 54.5159 20.9751 59.2113 20.9751 65.0035C20.9751 70.7957 25.6706 75.4911 31.4627 75.4911Z" fill="url(#paint23_radial_630_43767)" fill-opacity="0.8"/>
<path d="M52.4381 75.4911C58.2302 75.4911 62.9257 70.7957 62.9257 65.0035C62.9257 59.2113 58.2302 54.5159 52.4381 54.5159C46.6459 54.5159 41.9504 59.2113 41.9504 65.0035C41.9504 70.7957 46.6459 75.4911 52.4381 75.4911Z" fill="url(#paint24_radial_630_43767)"/>
<path opacity="0.5" d="M52.4381 75.4911C58.2302 75.4911 62.9257 70.7957 62.9257 65.0035C62.9257 59.2113 58.2302 54.5159 52.4381 54.5159C46.6459 54.5159 41.9504 59.2113 41.9504 65.0035C41.9504 70.7957 46.6459 75.4911 52.4381 75.4911Z" fill="url(#paint25_radial_630_43767)"/>
<path d="M52.4381 75.4911C58.2302 75.4911 62.9257 70.7957 62.9257 65.0035C62.9257 59.2113 58.2302 54.5159 52.4381 54.5159C46.6459 54.5159 41.9504 59.2113 41.9504 65.0035C41.9504 70.7957 46.6459 75.4911 52.4381 75.4911Z" fill="url(#paint26_radial_630_43767)" fill-opacity="0.8"/>
<path d="M73.5123 75.4911C79.3044 75.4911 83.9999 70.7957 83.9999 65.0035C83.9999 59.2113 79.3044 54.5159 73.5123 54.5159C67.7201 54.5159 63.0247 59.2113 63.0247 65.0035C63.0247 70.7957 67.7201 75.4911 73.5123 75.4911Z" fill="url(#paint27_radial_630_43767)"/>
<path opacity="0.5" d="M73.5123 75.4911C79.3044 75.4911 83.9999 70.7957 83.9999 65.0035C83.9999 59.2113 79.3044 54.5159 73.5123 54.5159C67.7201 54.5159 63.0247 59.2113 63.0247 65.0035C63.0247 70.7957 67.7201 75.4911 73.5123 75.4911Z" fill="url(#paint28_radial_630_43767)"/>
<path d="M73.5123 75.4911C79.3044 75.4911 83.9999 70.7957 83.9999 65.0035C83.9999 59.2113 79.3044 54.5159 73.5123 54.5159C67.7201 54.5159 63.0247 59.2113 63.0247 65.0035C63.0247 70.7957 67.7201 75.4911 73.5123 75.4911Z" fill="url(#paint29_radial_630_43767)" fill-opacity="0.8"/>
<path d="M42.0496 83.8233C47.8418 83.8233 52.5373 79.1278 52.5373 73.3357C52.5373 67.5435 47.8418 62.8481 42.0496 62.8481C36.2575 62.8481 31.562 67.5435 31.562 73.3357C31.562 79.1278 36.2575 83.8233 42.0496 83.8233Z" fill="url(#paint30_radial_630_43767)"/>
<path opacity="0.5" d="M42.0496 83.8233C47.8418 83.8233 52.5373 79.1278 52.5373 73.3357C52.5373 67.5435 47.8418 62.8481 42.0496 62.8481C36.2575 62.8481 31.562 67.5435 31.562 73.3357C31.562 79.1278 36.2575 83.8233 42.0496 83.8233Z" fill="url(#paint31_radial_630_43767)"/>
<path d="M42.0496 83.8233C47.8418 83.8233 52.5373 79.1278 52.5373 73.3357C52.5373 67.5435 47.8418 62.8481 42.0496 62.8481C36.2575 62.8481 31.562 67.5435 31.562 73.3357C31.562 79.1278 36.2575 83.8233 42.0496 83.8233Z" fill="url(#paint32_radial_630_43767)" fill-opacity="0.8"/>
<defs>
<radialGradient id="paint0_radial_630_43767" cx="0" cy="0" r="1" gradientUnits="userSpaceOnUse" gradientTransform="translate(39.8068 5.87772) scale(16.4001)">
<stop offset="0.2105" stop-color="#FF0000"/>
<stop offset="0.4733" stop-color="#FD0000"/>
<stop offset="0.599" stop-color="#F50000"/>
<stop offset="0.6955" stop-color="#E80000"/>
<stop offset="0.7771" stop-color="#D60000"/>
<stop offset="0.8486" stop-color="#BE0000"/>
<stop offset="0.8825" stop-color="#B00000"/>
</radialGradient>
<radialGradient id="paint1_radial_630_43767" cx="0" cy="0" r="1" gradientUnits="userSpaceOnUse" gradientTransform="translate(40.0614 6.9355) rotate(59.5394) scale(15.6095)">
<stop offset="0.585326" stop-color="#FF0000"/>
<stop offset="0.795482" stop-color="#AB0000"/>
</radialGradient>
<radialGradient id="paint2_radial_630_43767" cx="0" cy="0" r="1" gradientUnits="userSpaceOnUse" gradientTransform="translate(40.0707 6.33216) rotate(47.7263) scale(7.35424 7.35548)">
<stop offset="0.0349543" stop-color="white" stop-opacity="0.6"/>
<stop offset="0.9757" stop-color="white" stop-opacity="0"/>
</radialGradient>
<radialGradient id="paint3_radial_630_43767" cx="0" cy="0" r="1" gradientUnits="userSpaceOnUse" gradientTransform="translate(29.319 24.0827) scale(16.4001)">
<stop offset="0.2105" stop-color="#FF0000"/>
<stop offset="0.4733" stop-color="#FD0000"/>
<stop offset="0.599" stop-color="#F50000"/>
<stop offset="0.6955" stop-color="#E80000"/>
<stop offset="0.7771" stop-color="#D60000"/>
<stop offset="0.8486" stop-color="#BE0000"/>
<stop offset="0.8825" stop-color="#B00000"/>
</radialGradient>
<radialGradient id="paint4_radial_630_43767" cx="0" cy="0" r="1" gradientUnits="userSpaceOnUse" gradientTransform="translate(29.5736 25.1405) rotate(59.5394) scale(15.6095)">
<stop offset="0.585326" stop-color="#FF0000"/>
<stop offset="0.795482" stop-color="#AB0000"/>
</radialGradient>
<radialGradient id="paint5_radial_630_43767" cx="0" cy="0" r="1" gradientUnits="userSpaceOnUse" gradientTransform="translate(29.5829 24.5371) rotate(47.7263) scale(7.35424 7.35548)">
<stop offset="0.0349543" stop-color="white" stop-opacity="0.6"/>
<stop offset="0.9757" stop-color="white" stop-opacity="0"/>
</radialGradient>
<radialGradient id="paint6_radial_630_43767" cx="0" cy="0" r="1" gradientUnits="userSpaceOnUse" gradientTransform="translate(50.2943 24.0827) scale(16.4001)">
<stop offset="0.2105" stop-color="#FF0000"/>
<stop offset="0.4733" stop-color="#FD0000"/>
<stop offset="0.599" stop-color="#F50000"/>
<stop offset="0.6955" stop-color="#E80000"/>
<stop offset="0.7771" stop-color="#D60000"/>
<stop offset="0.8486" stop-color="#BE0000"/>
<stop offset="0.8825" stop-color="#B00000"/>
</radialGradient>
<radialGradient id="paint7_radial_630_43767" cx="0" cy="0" r="1" gradientUnits="userSpaceOnUse" gradientTransform="translate(50.5489 25.1405) rotate(59.5394) scale(15.6095)">
<stop offset="0.585326" stop-color="#FF0000"/>
<stop offset="0.795482" stop-color="#AB0000"/>
</radialGradient>
<radialGradient id="paint8_radial_630_43767" cx="0" cy="0" r="1" gradientUnits="userSpaceOnUse" gradientTransform="translate(50.5582 24.5371) rotate(47.7263) scale(7.35424 7.35548)">
<stop offset="0.0349543" stop-color="white" stop-opacity="0.6"/>
<stop offset="0.9757" stop-color="white" stop-opacity="0"/>
</radialGradient>
<radialGradient id="paint9_radial_630_43767" cx="0" cy="0" r="1" gradientUnits="userSpaceOnUse" gradientTransform="translate(18.7326 42.1887) scale(16.4001)">
<stop offset="0.2105" stop-color="#FF0000"/>
<stop offset="0.4733" stop-color="#FD0000"/>
<stop offset="0.599" stop-color="#F50000"/>
<stop offset="0.6955" stop-color="#E80000"/>
<stop offset="0.7771" stop-color="#D60000"/>
<stop offset="0.8486" stop-color="#BE0000"/>
<stop offset="0.8825" stop-color="#B00000"/>
</radialGradient>
<radialGradient id="paint10_radial_630_43767" cx="0" cy="0" r="1" gradientUnits="userSpaceOnUse" gradientTransform="translate(18.9872 43.2465) rotate(59.5394) scale(15.6095)">
<stop offset="0.585326" stop-color="#FF0000"/>
<stop offset="0.795482" stop-color="#AB0000"/>
</radialGradient>
<radialGradient id="paint11_radial_630_43767" cx="0" cy="0" r="1" gradientUnits="userSpaceOnUse" gradientTransform="translate(18.9965 42.6431) rotate(47.7263) scale(7.35424 7.35548)">
<stop offset="0.0349543" stop-color="white" stop-opacity="0.6"/>
<stop offset="0.9757" stop-color="white" stop-opacity="0"/>
</radialGradient>
<radialGradient id="paint12_radial_630_43767" cx="0" cy="0" r="1" gradientUnits="userSpaceOnUse" gradientTransform="translate(39.7077 42.1887) scale(16.4001)">
<stop offset="0.2105" stop-color="#FF0000"/>
<stop offset="0.4733" stop-color="#FD0000"/>
<stop offset="0.599" stop-color="#F50000"/>
<stop offset="0.6955" stop-color="#E80000"/>
<stop offset="0.7771" stop-color="#D60000"/>
<stop offset="0.8486" stop-color="#BE0000"/>
<stop offset="0.8825" stop-color="#B00000"/>
</radialGradient>
<radialGradient id="paint13_radial_630_43767" cx="0" cy="0" r="1" gradientUnits="userSpaceOnUse" gradientTransform="translate(39.9623 43.2465) rotate(59.5394) scale(15.6095)">
<stop offset="0.585326" stop-color="#FF0000"/>
<stop offset="0.795482" stop-color="#AB0000"/>
</radialGradient>
<radialGradient id="paint14_radial_630_43767" cx="0" cy="0" r="1" gradientUnits="userSpaceOnUse" gradientTransform="translate(39.9716 42.6431) rotate(47.7263) scale(7.35424 7.35548)">
<stop offset="0.0349543" stop-color="white" stop-opacity="0.6"/>
<stop offset="0.9757" stop-color="white" stop-opacity="0"/>
</radialGradient>
<radialGradient id="paint15_radial_630_43767" cx="0" cy="0" r="1" gradientUnits="userSpaceOnUse" gradientTransform="translate(60.683 42.1887) scale(16.4001)">
<stop offset="0.2105" stop-color="#FF0000"/>
<stop offset="0.4733" stop-color="#FD0000"/>
<stop offset="0.599" stop-color="#F50000"/>
<stop offset="0.6955" stop-color="#E80000"/>
<stop offset="0.7771" stop-color="#D60000"/>
<stop offset="0.8486" stop-color="#BE0000"/>
<stop offset="0.8825" stop-color="#B00000"/>
</radialGradient>
<radialGradient id="paint16_radial_630_43767" cx="0" cy="0" r="1" gradientUnits="userSpaceOnUse" gradientTransform="translate(60.9376 43.2465) rotate(59.5394) scale(15.6095)">
<stop offset="0.585326" stop-color="#FF0000"/>
<stop offset="0.795482" stop-color="#AB0000"/>
</radialGradient>
<radialGradient id="paint17_radial_630_43767" cx="0" cy="0" r="1" gradientUnits="userSpaceOnUse" gradientTransform="translate(60.9469 42.6431) rotate(47.7263) scale(7.35424 7.35548)">
<stop offset="0.0349543" stop-color="white" stop-opacity="0.6"/>
<stop offset="0.9757" stop-color="white" stop-opacity="0"/>
</radialGradient>
<radialGradient id="paint18_radial_630_43767" cx="0" cy="0" r="1" gradientUnits="userSpaceOnUse" gradientTransform="translate(8.24476 60.3936) scale(16.4001)">
<stop offset="0.2105" stop-color="#FF0000"/>
<stop offset="0.4733" stop-color="#FD0000"/>
<stop offset="0.599" stop-color="#F50000"/>
<stop offset="0.6955" stop-color="#E80000"/>
<stop offset="0.7771" stop-color="#D60000"/>
<stop offset="0.8486" stop-color="#BE0000"/>
<stop offset="0.8825" stop-color="#B00000"/>
</radialGradient>
<radialGradient id="paint19_radial_630_43767" cx="0" cy="0" r="1" gradientUnits="userSpaceOnUse" gradientTransform="translate(8.49936 61.4514) rotate(59.5394) scale(15.6095)">
<stop offset="0.585326" stop-color="#FF0000"/>
<stop offset="0.795482" stop-color="#AB0000"/>
</radialGradient>
<radialGradient id="paint20_radial_630_43767" cx="0" cy="0" r="1" gradientUnits="userSpaceOnUse" gradientTransform="translate(8.50869 60.848) rotate(47.7263) scale(7.35424 7.35548)">
<stop offset="0.0349543" stop-color="white" stop-opacity="0.6"/>
<stop offset="0.9757" stop-color="white" stop-opacity="0"/>
</radialGradient>
<radialGradient id="paint21_radial_630_43767" cx="0" cy="0" r="1" gradientUnits="userSpaceOnUse" gradientTransform="translate(29.2199 60.3936) scale(16.4001)">
<stop offset="0.2105" stop-color="#FF0000"/>
<stop offset="0.4733" stop-color="#FD0000"/>
<stop offset="0.599" stop-color="#F50000"/>
<stop offset="0.6955" stop-color="#E80000"/>
<stop offset="0.7771" stop-color="#D60000"/>
<stop offset="0.8486" stop-color="#BE0000"/>
<stop offset="0.8825" stop-color="#B00000"/>
</radialGradient>
<radialGradient id="paint22_radial_630_43767" cx="0" cy="0" r="1" gradientUnits="userSpaceOnUse" gradientTransform="translate(29.4745 61.4514) rotate(59.5394) scale(15.6095)">
<stop offset="0.585326" stop-color="#FF0000"/>
<stop offset="0.795482" stop-color="#AB0000"/>
</radialGradient>
<radialGradient id="paint23_radial_630_43767" cx="0" cy="0" r="1" gradientUnits="userSpaceOnUse" gradientTransform="translate(29.4838 60.848) rotate(47.7263) scale(7.35424 7.35548)">
<stop offset="0.0349543" stop-color="white" stop-opacity="0.6"/>
<stop offset="0.9757" stop-color="white" stop-opacity="0"/>
</radialGradient>
<radialGradient id="paint24_radial_630_43767" cx="0" cy="0" r="1" gradientUnits="userSpaceOnUse" gradientTransform="translate(50.1952 60.3936) scale(16.4001)">
<stop offset="0.2105" stop-color="#FF0000"/>
<stop offset="0.4733" stop-color="#FD0000"/>
<stop offset="0.599" stop-color="#F50000"/>
<stop offset="0.6955" stop-color="#E80000"/>
<stop offset="0.7771" stop-color="#D60000"/>
<stop offset="0.8486" stop-color="#BE0000"/>
<stop offset="0.8825" stop-color="#B00000"/>
</radialGradient>
<radialGradient id="paint25_radial_630_43767" cx="0" cy="0" r="1" gradientUnits="userSpaceOnUse" gradientTransform="translate(50.4498 61.4514) rotate(59.5394) scale(15.6095)">
<stop offset="0.585326" stop-color="#FF0000"/>
<stop offset="0.795482" stop-color="#AB0000"/>
</radialGradient>
<radialGradient id="paint26_radial_630_43767" cx="0" cy="0" r="1" gradientUnits="userSpaceOnUse" gradientTransform="translate(50.4591 60.848) rotate(47.7263) scale(7.35424 7.35548)">
<stop offset="0.0349543" stop-color="white" stop-opacity="0.6"/>
<stop offset="0.9757" stop-color="white" stop-opacity="0"/>
</radialGradient>
<radialGradient id="paint27_radial_630_43767" cx="0" cy="0" r="1" gradientUnits="userSpaceOnUse" gradientTransform="translate(71.2694 60.3936) scale(16.4001)">
<stop offset="0.2105" stop-color="#FF0000"/>
<stop offset="0.4733" stop-color="#FD0000"/>
<stop offset="0.599" stop-color="#F50000"/>
<stop offset="0.6955" stop-color="#E80000"/>
<stop offset="0.7771" stop-color="#D60000"/>
<stop offset="0.8486" stop-color="#BE0000"/>
<stop offset="0.8825" stop-color="#B00000"/>
</radialGradient>
<radialGradient id="paint28_radial_630_43767" cx="0" cy="0" r="1" gradientUnits="userSpaceOnUse" gradientTransform="translate(71.524 61.4514) rotate(59.5394) scale(15.6095)">
<stop offset="0.585326" stop-color="#FF0000"/>
<stop offset="0.795482" stop-color="#AB0000"/>
</radialGradient>
<radialGradient id="paint29_radial_630_43767" cx="0" cy="0" r="1" gradientUnits="userSpaceOnUse" gradientTransform="translate(71.5333 60.848) rotate(47.7263) scale(7.35424 7.35548)">
<stop offset="0.0349543" stop-color="white" stop-opacity="0.6"/>
<stop offset="0.9757" stop-color="white" stop-opacity="0"/>
</radialGradient>
<radialGradient id="paint30_radial_630_43767" cx="0" cy="0" r="1" gradientUnits="userSpaceOnUse" gradientTransform="translate(39.8068 68.6971) scale(16.4001 16.4001)">
<stop offset="0.2105" stop-color="#303030"/>
<stop offset="0.5099" stop-color="#2E2E2E"/>
<stop offset="0.653" stop-color="#262626"/>
<stop offset="0.7629" stop-color="#191919"/>
<stop offset="0.8553" stop-color="#070707"/>
<stop offset="0.8825"/>
</radialGradient>
<radialGradient id="paint31_radial_630_43767" cx="0" cy="0" r="1" gradientUnits="userSpaceOnUse" gradientTransform="translate(40.0642 69.7525) rotate(59.5394) scale(15.6095 15.6095)">
<stop offset="0.271412" stop-color="#828282"/>
<stop offset="0.819507" stop-color="#040404"/>
</radialGradient>
<radialGradient id="paint32_radial_630_43767" cx="0" cy="0" r="1" gradientUnits="userSpaceOnUse" gradientTransform="translate(39.576 69.6749) rotate(45) scale(13.9922 13.9946)">
<stop offset="0.0349543" stop-color="white" stop-opacity="0.31"/>
<stop offset="0.327109" stop-color="white" stop-opacity="0"/>
</radialGradient>
</defs>
</svg>
