<svg width="84" height="84" viewBox="0 0 84 84" fill="none" xmlns="http://www.w3.org/2000/svg">
<path d="M42.1143 35.7842C42.1143 35.7842 42.7455 36.121 42.9803 37.0143C42.9803 37.0143 42.995 37.029 43.0097 37.1754C43.039 37.3219 43.0684 37.6148 43.0684 37.6148C43.0684 37.6148 43.1271 38.2006 43.0244 38.6985C42.9363 39.2111 42.8776 39.4893 42.7014 39.9726C42.54 40.4705 42.4372 40.7634 42.217 41.2028C42.217 41.2028 43.5675 42.9748 45.2262 43.9706C45.2262 43.9706 46.1363 42.3743 46.2685 40.8366C46.3859 39.4161 46.0776 38.4788 46.0776 38.4788C46.0776 38.4788 45.9602 38.0102 45.7694 37.688C45.7694 37.688 45.4611 36.9851 44.8299 36.4725C44.8593 36.4871 43.817 35.8281 42.1143 35.7842Z" fill="url(#paint0_radial_630_43815)"/>
<path d="M42.1147 35.7841C42.1147 35.7841 42.3642 35.9159 42.6431 36.2967C42.6431 36.2967 42.8927 36.6482 42.9807 37.0143C42.9807 37.0143 43.0541 37.2779 43.0688 37.5122C43.0688 37.5122 42.1147 37.3658 40.8963 37.644C40.8963 37.644 39.5311 37.8491 38.1073 38.8303C38.1073 38.8303 37.4173 39.2989 36.8302 39.9726C36.8302 39.9726 36.4485 40.4119 36.243 40.7048L35.8467 41.3052C35.8467 41.3052 35.8614 40.324 36.5513 39.0206C36.5513 39.0206 37.1531 37.7026 38.7531 36.6921C38.7531 36.6921 40.1183 35.7548 42.1147 35.7841Z" fill="url(#paint1_radial_630_43815)"/>
<path d="M44.8594 36.4871C44.8594 36.4871 46.1511 37.4097 46.2833 39.6357C46.2833 39.6357 46.4741 40.8073 46.0043 42.2132C46.0043 42.2132 45.7548 43.048 45.241 43.9852C45.241 43.9852 45.9897 44.4685 46.8411 44.7321C46.8411 44.7321 47.3842 44.8786 47.5603 44.5857C47.5603 44.5857 47.8833 44.0145 48.0888 42.9308C48.0888 42.9308 48.2943 41.8178 47.9567 40.2801C47.9567 40.2801 47.6337 39.2257 47.0759 38.4641C47.0759 38.4641 46.6062 37.7758 45.9897 37.2633C45.9897 37.234 45.2997 36.6628 44.8594 36.4871Z" fill="url(#paint2_radial_630_43815)"/>
<path d="M38.5034 42.4915C38.5034 42.4915 39.7511 41.6421 42.2466 41.2174C42.2466 41.2174 43.1127 42.3597 44.287 43.2969C44.287 43.2969 45.4026 44.2196 46.4889 44.615C46.4889 44.615 47.2669 44.9957 47.5751 44.5857C47.5751 44.5857 47.3403 45.069 47.1347 45.3472C46.9292 45.6401 46.665 46.0648 45.8723 46.7238C45.8723 46.7238 45.3439 47.1339 45.2118 47.1925C45.2118 47.1925 44.4485 47.5146 42.5402 46.6799C42.5402 46.6799 41.4392 46.2259 40.3823 45.1275C40.3677 45.1129 39.3988 44.161 38.5034 42.4915Z" fill="url(#paint3_radial_630_43815)"/>
<path d="M36.6387 44.9811C36.6387 44.9811 36.7267 44.3367 37.1818 43.7216C37.1818 43.7216 37.7543 42.8723 38.4882 42.4915C38.4882 42.4915 39.2809 44.0731 40.558 45.3326C40.558 45.3326 41.2332 46.0062 42.0699 46.4602C42.0699 46.4602 42.9654 46.9728 44.0076 47.1778C44.0076 47.1778 44.5948 47.3389 45.1819 47.1925C45.1819 47.1925 44.6388 47.5293 43.7874 47.8222C43.7874 47.8222 42.7305 48.203 41.1745 48.0419C41.1745 48.0419 39.8828 47.9394 38.7084 47.1485C37.5341 46.3577 36.991 45.6108 36.6387 44.9811Z" fill="url(#paint4_radial_630_43815)"/>
<path d="M35.8609 41.3052C35.8609 41.3052 36.9325 39.3575 38.8261 38.4056C38.8261 38.4056 40.7197 37.2779 43.0684 37.5269C43.0684 37.5269 43.1564 38.1273 42.9803 39.0206C42.9803 39.0206 42.6427 40.4265 42.2317 41.2174C42.2317 41.2174 39.927 41.5688 38.4885 42.4915C38.4885 42.4915 37.4756 42.9894 36.8297 44.3074C36.8297 44.3074 36.6683 44.7175 36.6242 44.9811C36.6242 44.9811 36.0958 44.1756 35.9196 43.048C35.9343 43.0333 35.7288 42.0521 35.8609 41.3052Z" fill="url(#paint5_radial_630_43815)"/>
<path d="M37.8574 39.0353C37.8574 39.0353 38.5914 38.4202 40.0006 37.8784C40.0006 37.8784 40.8079 37.5122 42.3492 37.4683C42.3492 37.4683 42.6575 37.483 42.7456 37.483C42.8336 37.4976 42.3639 37.3511 42.0263 37.3658C41.6887 37.3804 41.1749 37.3072 40.1327 37.6587C39.0905 38.0102 38.3125 38.5227 37.8574 39.0353Z" fill="url(#paint6_radial_630_43815)"/>
<path d="M42.4077 41.0563C42.4077 41.0563 43.0242 40.2216 43.2151 38.6839C43.2151 38.6839 43.3765 37.6587 43.0096 36.78C43.0096 36.78 43.2738 37.4683 43.0976 38.7278C43.0096 39.3429 42.8187 40.1923 42.4077 41.0563Z" fill="url(#paint7_radial_630_43815)"/>
<path d="M45.6519 43.4288C45.6519 43.4288 46.2684 42.5354 46.4592 40.9245C46.4592 40.9245 46.6207 39.8408 46.2537 38.9182C46.2537 38.9182 46.5179 39.6358 46.3418 40.9684C46.2537 41.6275 46.0776 42.5208 45.6519 43.4288Z" fill="url(#paint8_radial_630_43815)"/>
<path d="M38.5767 42.8576C38.5767 42.8576 38.8556 43.8974 39.9565 45.0983C39.9565 45.0983 40.6758 45.9184 41.6152 46.2552C41.6152 46.2552 40.896 45.9916 40.0005 44.9811C39.5602 44.4978 39.0024 43.7656 38.5767 42.8576Z" fill="url(#paint9_radial_630_43815)"/>
<path d="M39.2373 42.3011C39.4135 42.2279 39.6777 42.1107 40.0006 41.9936C40.3236 41.8764 40.7199 41.7446 41.1603 41.6275C41.3805 41.5689 41.6153 41.5103 41.8502 41.4517C41.9089 41.4371 41.9676 41.4224 42.0263 41.4078C42.0704 41.3931 42.1144 41.4078 42.1585 41.4371C42.1878 41.4517 42.2318 41.5249 42.2759 41.5689C42.3199 41.6128 42.364 41.6714 42.408 41.7153C43.0832 42.5354 43.8172 43.1652 44.375 43.5752C44.6539 43.7803 44.8888 43.9267 45.0649 44.0292C45.2411 44.1317 45.3291 44.1757 45.3291 44.161C45.3291 44.161 45.2411 44.0878 45.0796 43.9853C44.9181 43.8828 44.6979 43.707 44.419 43.502C43.8759 43.0773 43.1713 42.4329 42.4961 41.6275C42.452 41.5835 42.408 41.525 42.3786 41.481L42.3199 41.4224C42.3052 41.3931 42.2759 41.3639 42.2318 41.3346C42.1585 41.2906 42.0704 41.276 41.997 41.2906C41.9383 41.3053 41.8795 41.3199 41.8062 41.3346C41.5566 41.3931 41.3364 41.4517 41.1016 41.525C40.6612 41.6568 40.2648 41.7886 39.9419 41.9204L39.2373 42.3011Z" fill="url(#paint10_radial_630_43815)"/>
<path d="M41.8063 40.4997C37.4907 41.5688 36.2136 43.7509 36.1108 43.8095C36.2136 44.1609 36.3897 44.5856 36.6393 44.981C36.6393 44.981 36.7274 44.2634 37.4466 43.3848C37.4466 43.3848 37.9457 42.7257 38.9586 42.2278C38.9586 42.2278 39.4136 41.9789 40.8082 41.5249C40.8082 41.5249 41.8063 41.2759 42.2467 41.2027C42.2467 41.2027 42.4229 40.8512 42.5109 40.573C42.5403 40.5144 42.555 40.4411 42.5843 40.3826C42.4082 40.3826 42.0706 40.4411 41.8063 40.4997Z" fill="url(#paint11_radial_630_43815)"/>
<g clip-path="url(#clip0_630_43815)">
<path d="M0.220451 46.4947L7.64562 43.2213L12.5712 42.0616L14.9238 41.4451L16.0853 34.8835L17.9967 28.1457L11.0421 28.131L5.20487 28.2338L2.13188 28.8503C2.13188 28.8503 0.735067 32.9165 0.396891 36.5422C0.382187 36.5569 -0.367682 41.0781 0.220451 46.4947Z" fill="url(#paint12_radial_630_43815)"/>
<path d="M15.2769 40.7698C15.2769 40.7698 16.7766 26.0906 25.2751 12.3362C25.2751 12.3362 31.9798 1.84057 35.685 0.724952C35.685 0.724952 44.507 -1.12463 54.5935 2.07544L49.8002 8.28474L41.9634 20.0575L34.6999 34.4137L26.7307 54.2453C26.7307 54.2453 16.2473 46.3626 15.2769 40.7698Z" fill="url(#paint13_radial_630_43815)"/>
<path d="M26.8774 54.5389C26.8774 54.5389 32.9352 35.2798 40.1986 23.5364C47.4621 11.7931 54.8431 2.16351 54.8431 2.16351C54.8431 2.16351 62.827 4.30668 69.6788 10.5894C69.6788 10.5894 65.0619 21.3786 64.5032 22.7144C63.9445 24.0502 58.4454 34.766 58.4454 34.766L54.5932 41.2249L50.6233 47.4195L46.5064 52.9829L41.9483 58.2234L39.0665 61.2033C39.0812 61.1886 29.4358 57.0638 26.8774 54.5389Z" fill="url(#paint14_radial_630_43815)"/>
<path d="M39.4636 61.1886C39.4636 61.1886 50.0353 50.3847 58.3132 35.6321C58.3132 35.6321 69.4584 12.6004 69.9877 10.8536C69.9877 10.8536 76.2954 15.9179 80.3535 24.7989L80.0888 27.2209L77.8245 35.7349L74.7221 42.546L71.8109 47.4342L66.0913 55.1995L61.3127 60.8069L55.0344 66.3704L45.6831 63.6694L39.2725 61.4528L39.4636 61.1886Z" fill="url(#paint15_radial_630_43815)"/>
<path d="M80.5007 25.4007L78.2217 34.0027L75.0752 41.724L77.3983 45.3938L81.3094 53.1884L81.8828 55.0233C81.8828 55.0233 84.3971 47.8599 83.9266 40.212C83.9413 40.212 83.8972 33.4889 80.5007 25.4007Z" fill="url(#paint16_radial_630_43815)"/>
<path d="M66.209 55.3903L70.0171 50.1939L73.3989 44.7332L74.928 42.0616C74.928 42.0616 76.6483 43.7057 78.4568 47.3902C80.2653 51.06 81.8974 55.0233 81.8974 55.0233C81.8974 55.0233 81.1181 58.2381 78.0893 63.4198C78.0893 63.4198 76.2366 66.9575 72.1344 71.1998L70.6788 65.4309L68.5762 59.3831L66.209 55.3903Z" fill="url(#paint17_radial_630_43815)"/>
<path d="M55.417 66.6933L61.1072 61.1886L66.2092 55.3903C66.2092 55.3903 68.1648 58.4876 68.7676 59.9409C69.3704 61.4088 70.3556 64.8144 70.9878 66.6786C71.62 68.5429 72.0023 71.3026 72.0023 71.3026C72.0023 71.3026 68.4147 74.9724 65.327 76.866C65.327 76.866 60.5484 79.8752 57.6225 80.9321L55.417 66.6933Z" fill="url(#paint18_radial_630_43815)"/>
<path d="M12.542 12.1894C12.542 12.1894 14.821 9.47375 21.4522 5.49569C21.4522 5.49569 28.7303 1.40019 35.2439 0.79834C35.2439 0.79834 27.2159 8.98934 25.2898 12.3362L24.7898 12.7032L12.542 12.1894Z" fill="url(#paint19_linear_630_43815)"/>
<path d="M2.20557 28.5861C2.20557 28.5861 2.89662 25.6796 6.48423 19.6611C6.48423 19.6611 8.98379 15.4776 12.1303 12.6004L18.2028 12.3509L24.7751 12.7179C24.7751 12.7179 18.3057 26.7365 18.2322 27.8375L17.4382 28.131L7.61638 28.1604L2.20557 28.5861Z" fill="url(#paint20_radial_630_43815)"/>
<path d="M5.1167 44.6158C5.1167 44.6158 7.41041 51.5003 10.6745 55.3903C13.9387 59.295 17.3057 62.9795 21.5403 65.9594C25.7748 68.9392 32.0679 72.8733 37.7727 74.3412C43.4776 75.8091 46.2124 76.1761 49.0796 76.4256C51.9467 76.6752 56.6959 76.5431 56.6959 76.5431L55.0638 66.5465L44.4039 63.7135L34.1263 59.2069L27.9215 55.3903L20.8786 49.7535L14.8503 41.9001C14.8503 41.9001 6.79288 43.6176 5.1167 44.6158Z" fill="url(#paint21_radial_630_43815)"/>
<path d="M0.264648 46.847L4.82267 44.4396C4.82267 44.4396 5.74898 47.258 8.99841 53.0563C12.2478 58.8546 20.4964 65.7979 21.5844 66.3704C21.5844 66.3704 29.7595 72.8439 38.3021 74.9871C38.3021 74.9871 52.5202 76.6018 54.8433 76.7192L56.696 76.5431L57.6076 80.9468C57.6076 80.9468 51.6968 83.7946 43.2718 83.9561C43.2718 83.9561 32.5972 84.7487 21.9079 78.8771C21.9079 78.8771 13.6741 74.5027 8.71905 67.6328C8.71905 67.6328 4.38158 61.9373 2.29371 55.7867C2.29371 55.8013 0.499901 50.0324 0.264648 46.847Z" fill="url(#paint22_radial_630_43815)"/>
<path d="M82.0737 54.4509C81.9708 54.0252 81.7649 53.3793 81.3679 52.4251L81.3238 52.293C81.2944 52.2049 81.265 52.1315 81.2356 52.0728C79.8976 48.5351 78.0744 45.1296 75.6925 41.6359L75.5895 41.4891L75.663 41.3423C77.4715 37.7753 78.839 33.8853 80.074 28.7622C80.0887 28.6888 80.1181 28.5861 80.1476 28.4687L80.177 28.3659C80.5004 27.1475 80.6475 26.3695 80.6916 25.8558C80.574 25.5768 80.4416 25.2833 80.324 25.0044L80.2211 24.9456C80.1917 25.0924 80.1623 25.2539 80.1476 25.4007C80.1181 25.5622 80.0887 25.7383 80.0593 25.8998C80.0593 25.9145 80.0593 25.9291 80.0593 25.9291C80.0299 26.0906 80.0005 26.2521 79.9564 26.4136C79.9564 26.4282 79.9564 26.4429 79.9417 26.4576C79.9123 26.6191 79.8829 26.7659 79.8388 26.9273C79.8388 26.942 79.8388 26.9567 79.8241 26.9861C79.7947 27.1475 79.7506 27.2943 79.7212 27.4411C79.7212 27.4558 79.7065 27.4851 79.7065 27.4998C79.677 27.6466 79.6329 27.7934 79.6035 27.9549C79.6035 27.9696 79.5888 27.9989 79.5888 28.0136C79.5594 28.1604 79.5153 28.3072 79.4859 28.454C79.4859 28.4687 79.4712 28.498 79.4712 28.5127C79.4418 28.6595 79.3977 28.8063 79.3683 28.9531C79.3683 28.9677 79.3536 28.9971 79.3536 29.0118C79.3095 29.1586 79.2801 29.2907 79.236 29.4375C79.236 29.4522 79.2213 29.4815 79.2213 29.4962C79.1771 29.643 79.1477 29.7751 79.1036 29.9072C79.1036 29.9219 79.0889 29.9513 79.0889 29.9659C79.0448 30.098 79.0154 30.2302 78.9713 30.3623C78.9713 30.3769 78.9566 30.4063 78.9566 30.421C78.9125 30.5531 78.8831 30.6852 78.839 30.8173C78.839 30.832 78.8243 30.8614 78.8243 30.876C78.7802 31.0082 78.7507 31.1403 78.7066 31.2577C78.7066 31.2724 78.6919 31.3017 78.6919 31.3164C78.6478 31.4485 78.6184 31.566 78.5743 31.6834C78.5743 31.6981 78.5596 31.7274 78.5596 31.7421C78.5155 31.8596 78.4861 31.9917 78.442 32.1091C78.442 32.1238 78.4273 32.1385 78.4273 32.1531C78.3832 32.2706 78.3538 32.388 78.3096 32.5054C78.3096 32.5201 78.2949 32.5348 78.2949 32.5642C78.2508 32.6816 78.2214 32.7843 78.192 32.9018C78.192 32.9165 78.1773 32.9311 78.1773 32.9458C78.1479 33.0632 78.1038 33.166 78.0744 33.2688C78.0744 33.2834 78.0597 33.2981 78.0597 33.3128C78.0303 33.4155 77.9862 33.5183 77.9568 33.6211C77.9568 33.6357 77.9421 33.6504 77.9421 33.6651C77.9127 33.7678 77.8686 33.8706 77.8391 33.9587C77.8391 33.9734 77.8244 33.988 77.8244 33.988C77.795 34.0761 77.7656 34.1789 77.7215 34.2669C77.7215 34.2816 77.7068 34.2963 77.7068 34.2963C77.6774 34.3844 77.648 34.4725 77.6186 34.5605C77.6186 34.5752 77.6186 34.5752 77.6039 34.5899C77.5745 34.678 77.5451 34.7514 77.5157 34.8394C77.5157 34.8541 77.5157 34.8541 77.501 34.8688C77.4716 34.9422 77.4422 35.0156 77.4128 35.089C77.4128 35.089 77.4128 35.1037 77.398 35.1037C77.3686 35.1771 77.3392 35.2504 77.3245 35.3092C77.3245 35.3238 77.3245 35.3238 77.3098 35.3385C77.2804 35.3972 77.2657 35.456 77.2363 35.5147C77.2363 35.5294 77.2363 35.5294 77.2216 35.544C77.2069 35.6027 77.1775 35.6468 77.1628 35.7055C77.1628 35.7202 77.1628 35.7202 77.1481 35.7202C77.1334 35.7642 77.1187 35.8083 77.0893 35.8523C77.0599 35.9404 77.0305 36.0138 77.0011 36.0725C77.0011 36.0872 77.001 36.0872 76.9863 36.1018C76.9863 36.1165 76.9716 36.1312 76.9716 36.1459C76.9716 36.1606 76.9716 36.1606 76.9569 36.1606C76.9422 36.1899 76.9422 36.2046 76.9422 36.2046C76.9422 36.2046 76.5747 37.2175 76.1483 38.1423C71.7226 48.7406 64.8267 56.4619 59.4894 61.7611C59.2983 61.9519 59.0777 62.1868 58.8425 62.4363L58.8131 62.4657C58.7248 62.5538 58.6366 62.6565 58.5484 62.7446C58.519 62.774 58.4896 62.8033 58.4602 62.8327C58.4014 62.8914 58.3426 62.9501 58.2837 63.0088C58.2396 63.0529 58.2102 63.0969 58.1661 63.1263C58.122 63.1703 58.0779 63.2143 58.0338 63.2584C57.9897 63.3024 57.9456 63.3465 57.8868 63.4052C57.8573 63.4345 57.8132 63.4786 57.7838 63.5079C57.725 63.5666 57.6809 63.6107 57.6221 63.6694C57.6074 63.6841 57.5927 63.6987 57.5633 63.7281C57.2692 64.007 56.9898 64.2712 56.7105 64.5208L56.6958 64.5355C56.6223 64.5942 56.5488 64.6529 56.4899 64.7116C56.0635 65.0639 55.6519 65.3428 55.2843 65.5043C55.0931 65.5924 54.9167 65.6364 54.7549 65.6658C54.6667 65.6804 54.5785 65.6804 54.4903 65.6804C53.7698 65.6804 48.6825 64.1685 47.6385 63.8602C45.1684 63.1263 42.9629 62.3483 40.5515 61.3501L40.1693 61.1886L40.4486 60.895C50.241 50.2086 58.6513 36.9973 66.0177 20.7034C68.1056 15.9326 69.4583 12.2041 69.9435 10.8536C69.767 10.6921 69.5906 10.5307 69.3994 10.3692L69.37 10.4279C69.3406 10.516 69.2965 10.5894 69.2671 10.6775C69.0025 11.3087 68.7378 11.9399 68.4731 12.5711C68.3261 12.9234 68.1791 13.2757 68.032 13.628C68.0173 13.672 68.0026 13.7014 67.9879 13.7454C67.7968 14.2005 67.5909 14.6555 67.3998 15.1253C67.3704 15.1986 67.341 15.2574 67.3116 15.3308C67.1204 15.7565 66.944 16.1968 66.7528 16.6372C66.7087 16.7253 66.6793 16.8134 66.6352 16.9014C66.4588 17.3125 66.2676 17.7235 66.0912 18.1492C66.0471 18.2519 65.9883 18.3694 65.9442 18.4721C65.7677 18.8685 65.5913 19.2648 65.4148 19.6611C65.356 19.7932 65.2972 19.9107 65.2384 20.0428C65.062 20.4244 64.8855 20.8061 64.7238 21.1878C64.665 21.3346 64.5915 21.4813 64.5327 21.6135C64.3709 21.9804 64.1945 22.3474 64.018 22.7144C63.9445 22.8759 63.871 23.0373 63.7975 23.1841C63.6357 23.5364 63.4593 23.8887 63.2976 24.2557C63.2094 24.4319 63.1358 24.608 63.0476 24.7695C62.8859 25.1071 62.7241 25.4447 62.5624 25.797C62.4742 25.9879 62.386 26.164 62.2977 26.3548C62.136 26.6925 61.9743 27.0154 61.8125 27.353C61.7243 27.5439 61.6214 27.7347 61.5185 27.9255C61.3567 28.2485 61.195 28.5714 61.0333 28.8944C60.9303 29.0999 60.8274 29.3054 60.7245 29.5109C60.5628 29.8191 60.4157 30.1274 60.254 30.4503C60.1511 30.6705 60.0334 30.876 59.9158 31.0962C59.7541 31.4045 59.607 31.6981 59.4453 32.0063C59.3277 32.2265 59.21 32.4467 59.0924 32.6669C58.9307 32.9605 58.7837 33.2541 58.6219 33.5477C58.5043 33.7825 58.372 34.0027 58.2396 34.2376C58.0926 34.5165 57.9309 34.7954 57.7838 35.089C57.6515 35.3238 57.5192 35.5587 57.3868 35.7936C57.2398 36.0725 57.0781 36.3514 56.931 36.6156C56.7987 36.8505 56.6517 37.1 56.5193 37.3349C56.3723 37.5991 56.2106 37.8633 56.0635 38.1276C55.9165 38.3771 55.7695 38.6267 55.6224 38.8762C55.4754 39.1404 55.3137 39.39 55.1666 39.6542C55.0196 39.9038 54.8579 40.1533 54.7108 40.4175C54.5638 40.6671 54.4168 40.9166 54.255 41.1662C54.0933 41.4304 53.9316 41.6799 53.7698 41.9442C53.6228 42.179 53.4758 42.4286 53.314 42.6634C53.1523 42.9277 52.9758 43.1919 52.8141 43.4414C52.6671 43.6763 52.52 43.9112 52.3583 44.146C52.1819 44.4103 52.0054 44.6745 51.829 44.9387C51.682 45.1589 51.5349 45.3938 51.3879 45.614C51.2114 45.8782 51.0203 46.1571 50.8439 46.4213C50.6968 46.6415 50.5498 46.8617 50.4028 47.0819C50.2116 47.3608 50.0205 47.625 49.8293 47.8892C49.6823 48.0948 49.5353 48.3149 49.3882 48.5205C49.1971 48.7994 48.9913 49.0636 48.8001 49.3425C48.6531 49.548 48.506 49.7535 48.359 49.959C48.1532 50.2379 47.9473 50.5168 47.7415 50.781C47.5944 50.9719 47.4474 51.1774 47.3004 51.3682C47.0798 51.6471 46.874 51.926 46.6534 52.2049C46.5064 52.3958 46.3594 52.5719 46.2123 52.7627C46.0359 52.9829 45.8447 53.2178 45.6683 53.438C45.3595 53.8196 45.0361 54.216 44.7273 54.5976C44.6979 54.6417 44.6538 54.6857 44.6244 54.7298C44.345 55.0674 44.0509 55.4197 43.7569 55.7573C43.6392 55.9041 43.5069 56.0362 43.3893 56.183C43.1687 56.4325 42.9482 56.6821 42.7276 56.9316C42.3748 57.3427 42.0072 57.739 41.6396 58.1353C41.4338 58.3555 41.2426 58.5904 41.0809 58.7959C40.5074 59.4858 39.9193 60.2051 39.0518 60.5868C39.0371 60.5868 39.0224 60.6014 39.0077 60.6014L38.8901 60.6455L38.2872 60.3519C34.5379 58.5757 30.6709 56.7555 27.5685 54.216L27.4215 54.0839L27.4803 53.893C33.0235 37.834 39.7429 24.0502 47.4768 12.7619C47.4621 12.7766 47.4621 12.7766 47.4621 12.7766L48.9324 10.6775C51.6378 6.81682 54.2109 3.60207 55.2843 2.29562C55.049 2.22223 54.8138 2.13415 54.5785 2.06076C54.505 2.10479 54.4315 2.16351 54.358 2.22223C54.2991 2.28094 54.2256 2.33966 54.1668 2.39838C54.0492 2.53049 53.9316 2.6626 53.8139 2.8094C53.7992 2.82407 53.7992 2.82407 53.7845 2.83875C53.7257 2.91215 53.6816 2.97087 53.6228 3.04426C53.5052 3.19105 53.4022 3.32317 53.314 3.4406C41.5367 17.151 33.6704 34.7807 28.0537 49.4599C28.0096 49.592 27.9508 49.7241 27.9067 49.8563C27.8038 50.1352 27.7009 50.3994 27.5979 50.6636C27.5097 50.8838 27.4362 51.104 27.348 51.3242C27.2745 51.5297 27.2009 51.7352 27.1127 51.926C26.951 52.3517 26.7893 52.7921 26.6275 53.2178L26.4952 53.5701L26.1864 53.3499C23.7604 51.6324 22.0842 50.1645 20.1875 48.1241L19.9081 47.8158C18.4672 46.2745 15.7765 43.4121 15.5559 41.3864C15.4236 40.1386 15.9676 38.0982 16.4528 36.2927C16.5705 35.8816 16.7028 35.3385 16.8351 34.8394C18.9377 26.2227 21.746 19.1033 25.4513 13.1729C25.8924 12.3068 26.5393 11.4408 26.5393 11.4408C30.1416 5.81863 33.9204 2.28094 35.9641 0.592834C35.5671 0.651551 35.1848 0.710268 34.8026 0.768985C34.4791 1.03321 34.1703 1.31212 33.8468 1.59102C33.8321 1.6057 33.8174 1.62038 33.8027 1.63506C33.5381 1.86993 33.2881 2.10479 33.0382 2.35434C30.1563 5.09935 27.7009 8.2407 25.4807 11.3233C25.3042 11.5729 25.1278 11.8078 24.9513 12.0573L24.8484 12.2041L24.672 12.1747C22.8488 11.8518 20.3639 11.661 18.0261 11.661C16.4087 11.661 14.8796 11.749 13.6151 11.9252C13.2622 11.9692 12.924 12.0279 12.6447 12.1013C12.6006 12.1454 12.5565 12.1894 12.5123 12.2334C12.4682 12.2775 12.4241 12.3215 12.38 12.3656C12.2183 12.527 12.0565 12.6885 11.8948 12.85C15.5412 12.3802 19.1729 12.5564 21.349 12.7472C22.2018 12.8059 23.084 12.9087 23.9956 13.0261L24.4073 13.0848L24.2015 13.4518C22.0401 17.3271 19.6287 22.0098 18.0114 27.4411L17.9379 27.676L17.7026 27.6466C16.0705 27.4411 14.3356 27.3237 12.5418 27.3237C8.95415 27.3237 5.29302 27.764 2.20533 28.5567C2.11711 28.821 2.02889 29.0852 1.94067 29.3494C5.36654 28.5714 9.85105 28.3659 9.85105 28.3659L9.83634 28.3806C10.7332 28.3219 11.6154 28.2925 12.4976 28.2925C14.1885 28.2925 15.7912 28.3953 17.2615 28.6008L17.6144 28.6448L17.4968 28.9677C16.3646 32.1531 15.6441 35.8229 14.9384 39.3606L14.8355 39.845C14.7472 40.2561 14.6737 40.6671 14.5855 41.0634L14.5561 41.2396L14.3797 41.2836C12.0124 41.8708 10.4833 42.1497 7.93962 42.8249C5.99878 43.4121 2.33766 45.0415 0.17627 46.2598C0.190973 46.4654 0.220379 46.6709 0.249786 46.8764L0.352709 46.847C0.793808 46.7296 1.24961 46.5241 1.73482 46.2745C2.36706 45.9663 3.91091 44.9828 4.64607 44.88L4.88133 44.8507L4.95484 45.0708C7.92491 54.4509 14.9972 62.5685 24.2309 68.5282C32.4794 73.8568 41.5808 76.91 52.8876 77.0422C54.0198 77.0568 55.1519 77.0422 56.2841 76.9981L56.534 76.9834C56.7766 78.3559 56.8232 78.6324 57.2104 81.1083C57.4457 81.0202 57.6662 80.9175 57.9015 80.8294C57.8279 78.2165 57.2545 75.3981 57.0781 74.2971C56.7546 72.3595 56.4164 70.0842 56.0341 68.2199L55.696 66.5465L55.8283 66.4438C58.9601 63.7281 62.1801 60.5134 65.9442 56.3445L66.1941 56.0656L66.4 56.3738C68.2232 59.2069 69.767 63.229 70.7816 67.7355C71.0462 68.8071 71.3109 70.0108 71.5461 71.2732C71.5755 71.3173 71.6049 71.3466 71.6343 71.376C71.6638 71.4053 71.6932 71.42 71.7079 71.4494C71.7373 71.4787 71.7667 71.4934 71.7961 71.5228C71.9578 71.3613 72.1049 71.1998 72.2666 71.0384C72.3842 70.2457 72.149 69.3062 71.9137 68.4108C71.8402 68.1319 71.7667 67.853 71.7079 67.6034C70.6492 62.8914 68.9436 58.517 66.9293 55.2876L66.8264 55.1114L66.9587 54.9499C69.7376 51.5003 72.3401 47.581 74.9132 42.9717L75.1337 42.59L75.3984 42.9424C76.3835 44.2782 77.3833 45.9809 78.3096 47.8012C78.6184 48.359 80.4857 51.6912 81.4856 55.2729C81.5003 55.2876 81.515 55.3022 81.5297 55.3169C81.6032 55.3756 81.662 55.4197 81.7355 55.4344C81.8531 55.1261 81.9708 54.7885 82.0737 54.4509ZM56.1518 76.2348C55.0343 76.2642 53.9022 76.2495 52.7847 76.2201C41.6984 75.9119 32.9941 72.976 24.6867 67.6034C15.6147 61.7464 8.70419 53.849 5.83704 44.7919L5.76353 44.5424L6.01348 44.4396C8.3219 43.5295 10.0275 43.324 12.5859 42.6781C13.1887 42.5313 13.7915 42.3699 14.3944 42.2084L14.6002 42.1497L14.7178 42.3258C21.8784 53.9518 34.582 61.7171 54.7108 66.7374L54.902 66.7814L54.9314 66.9722C55.1372 68.3667 55.4166 69.7613 55.6666 70.9943L55.6813 71.0384C55.696 71.0824 55.696 71.1411 55.7107 71.1852C55.7989 71.6108 55.8871 72.198 55.99 72.8292C56.1371 73.798 56.2694 74.7962 56.3723 75.6917L56.4752 76.1908L56.1518 76.2348Z" fill="url(#paint23_radial_630_43815)"/>
<path d="M80.3239 24.7989C80.2945 24.7989 80.2652 24.7989 80.2212 24.8135C80.2212 24.8282 80.2212 24.8282 80.2212 24.8429C80.2652 24.8135 80.3092 24.7989 80.3386 24.7989H80.3239Z" fill="black"/>
<path d="M54.8472 66.7931L55.3413 66.2997C56.5272 69.8516 57.8119 78.3612 57.8119 80.6057C57.8119 81.0192 56.8236 81.099 56.8236 81.099C56.8236 79.6191 56.4441 76.4732 56.3295 75.6726C55.906 72.7127 55.8354 71.2328 54.8472 66.7931Z" fill="url(#paint24_radial_630_43815)"/>
<path d="M66.2117 55.9403L66.7061 54.9537C68.6826 57.9135 71.153 63.3399 72.3283 70.5701C72.3919 70.9788 71.6472 71.7261 71.6472 71.7261C71.4197 70.2637 70.4009 66.58 70.1647 65.8064C69.2913 62.9465 68.6823 60.38 66.2117 55.9403Z" fill="url(#paint25_radial_630_43815)"/>
<path d="M14.9607 42.3724L15.3726 41.4042C12.0206 41.5836 6.58075 42.8208 0.627156 46.1365C0.29242 46.3261 0.206912 47.3512 0.206912 47.3512C1.40481 46.6725 4.69501 45.314 5.39958 45.0463C8.00443 44.0566 10.235 43.0307 14.9607 42.3724Z" fill="url(#paint26_radial_630_43815)"/>
<path d="M17.4637 28.742L18.1131 27.8781C14.7793 27.1103 9.12903 26.8224 2.44813 28.4941C2.07168 28.5913 1.72804 29.6053 1.72804 29.6053C3.07521 29.2572 6.64725 28.8134 7.40631 28.7418C10.2126 28.4773 12.6608 28.0702 17.4637 28.742Z" fill="url(#paint27_radial_630_43815)"/>
<path d="M5.87673 46.7694C7.00153 50.0645 5.72001 50.5563 14.6806 60.3623C16.5458 62.4036 27.1233 73.5982 45.4221 75.9415C30.8809 71.3228 28.5763 69.2503 22.904 65.4914C15.1649 60.3628 8.35808 51.4016 6.36417 45.7795C6.11165 45.2169 5.87423 46.4025 5.87673 46.7694Z" fill="url(#paint28_radial_630_43815)"/>
</g>
<path d="M26.6382 53.8411C26.6382 53.8411 30.5893 44.41 37.9844 29.2335C44.3973 15.4403 54.7568 2.52151 54.2635 2.6573C53.0325 2.99622 42.9782 13.3297 37.0586 25.1414C31.3291 36.1599 29.1048 46.4588 26.6382 53.8411Z" fill="url(#paint29_radial_630_43815)"/>
<path d="M15.2922 41.0448C15.2922 41.0448 16.9078 33.0064 20.7186 22.3432C26.145 9.05518 35.4281 0.665697 35.0244 0.688613C28.6113 5.61014 22.8396 14.0721 19.7316 22.3432C16.653 30.0239 16.1676 35.6661 15.2922 41.0448Z" fill="url(#paint30_radial_630_43815)"/>
<path d="M39.5757 62.3887C53.7705 41.5373 60.0889 32.6785 68.6467 12.0082C69.0061 13.2308 65.2546 26.7184 58.3061 37.9584C51.9333 48.6195 44.5678 56.4097 39.5757 62.3887Z" fill="url(#paint31_radial_630_43815)"/>
<path d="M57.3175 63.9027C68.7701 47.2378 73.9171 40.1605 79.879 23.5856C80.3727 24.5746 78.3278 35.7188 72.8419 44.7091C67.8516 53.2384 61.5029 59.1333 57.3175 63.9027Z" fill="url(#paint32_radial_630_43815)"/>
<path d="M14.7991 41.5373C22.1987 53.3489 38.4779 62.2076 55.2503 65.6527C54.2908 66.1749 43.313 64.7401 34.4073 59.5578C25.962 54.8545 17.2657 48.4274 14.7991 41.5373Z" fill="url(#paint33_radial_630_43815)"/>
<defs>
<radialGradient id="paint0_radial_630_43815" cx="0" cy="0" r="1" gradientUnits="userSpaceOnUse" gradientTransform="translate(41.2889 40.251) scale(6.21277 7.45276)">
<stop offset="0.7477" stop-color="#E8E8E8"/>
<stop offset="0.7604" stop-color="#E2E2E2"/>
<stop offset="0.7774" stop-color="#D1D1D1"/>
<stop offset="0.7871" stop-color="#C4C4C4"/>
</radialGradient>
<radialGradient id="paint1_radial_630_43815" cx="0" cy="0" r="1" gradientUnits="userSpaceOnUse" gradientTransform="translate(40.7991 39.9081) rotate(-25.2756) scale(6.07211 4.48332)">
<stop offset="0.6361" stop-color="#F9C41C"/>
<stop offset="0.6846" stop-color="#F6C01C"/>
<stop offset="0.7345" stop-color="#ECB41B"/>
<stop offset="0.785" stop-color="#DD9F1A"/>
<stop offset="0.8359" stop-color="#C68218"/>
<stop offset="0.8867" stop-color="#AA5D16"/>
<stop offset="0.9029" stop-color="#A05015"/>
</radialGradient>
<radialGradient id="paint2_radial_630_43815" cx="0" cy="0" r="1" gradientUnits="userSpaceOnUse" gradientTransform="translate(41.1896 41.5688) rotate(0.693836) scale(7.897 8.31974)">
<stop offset="0.581072" stop-color="#F9C41C"/>
<stop offset="0.679744" stop-color="#F6C01C"/>
<stop offset="0.730932" stop-color="#ECB41B"/>
<stop offset="0.774846" stop-color="#DD9F1A"/>
<stop offset="0.845" stop-color="#C68218"/>
</radialGradient>
<radialGradient id="paint3_radial_630_43815" cx="0" cy="0" r="1" gradientUnits="userSpaceOnUse" gradientTransform="translate(44.1674 43.118) rotate(28.5053) scale(7.02143 4.39289)">
<stop offset="0.772" stop-color="#0963E7"/>
<stop offset="0.7935" stop-color="#0A61E3"/>
<stop offset="0.8155" stop-color="#0E5BD7"/>
<stop offset="0.8379" stop-color="#1552C2"/>
<stop offset="0.8603" stop-color="#1E44A5"/>
<stop offset="0.8821" stop-color="#2A3482"/>
</radialGradient>
<radialGradient id="paint4_radial_630_43815" cx="0" cy="0" r="1" gradientUnits="userSpaceOnUse" gradientTransform="translate(41.7764 43.0333) rotate(32.2591) scale(8.50568 5.31121)">
<stop offset="0.368238" stop-color="#F9C41C"/>
<stop offset="0.4874" stop-color="#F9C41C"/>
<stop offset="0.5607" stop-color="#F6C01C"/>
<stop offset="0.6361" stop-color="#ECB41B"/>
<stop offset="0.7124" stop-color="#DD9F1A"/>
<stop offset="0.883839" stop-color="#C68218"/>
</radialGradient>
<radialGradient id="paint5_radial_630_43815" cx="0" cy="0" r="1" gradientUnits="userSpaceOnUse" gradientTransform="translate(41.9643 43.0492) rotate(-17.4742) scale(7.57045 5.92368)">
<stop offset="0.8395" stop-color="#0963E7"/>
<stop offset="0.8569" stop-color="#0A61E3"/>
<stop offset="0.8749" stop-color="#0E5BD7"/>
<stop offset="0.8931" stop-color="#1552C2"/>
<stop offset="0.9113" stop-color="#1E44A5"/>
<stop offset="0.929" stop-color="#2A3482"/>
</radialGradient>
<radialGradient id="paint6_radial_630_43815" cx="0" cy="0" r="1" gradientUnits="userSpaceOnUse" gradientTransform="translate(40.3105 38.1958) scale(1.83521 1.83092)">
<stop stop-color="white"/>
<stop offset="1" stop-color="#F4F7F6" stop-opacity="0"/>
</radialGradient>
<radialGradient id="paint7_radial_630_43815" cx="0" cy="0" r="1" gradientUnits="userSpaceOnUse" gradientTransform="translate(42.8263 38.9202) scale(1.54314 1.53954)">
<stop offset="0.4011" stop-color="white"/>
<stop offset="1" stop-color="#F4F7F6"/>
</radialGradient>
<radialGradient id="paint8_radial_630_43815" cx="0" cy="0" r="1" gradientUnits="userSpaceOnUse" gradientTransform="translate(46.0781 41.1767) scale(1.54314 1.62606)">
<stop stop-color="white"/>
<stop offset="1" stop-color="#F4F7F6" stop-opacity="0"/>
</radialGradient>
<radialGradient id="paint9_radial_630_43815" cx="0" cy="0" r="1" gradientUnits="userSpaceOnUse" gradientTransform="translate(40.0219 44.6453) rotate(130.548) scale(1.54104 1.6282)">
<stop stop-color="white"/>
<stop offset="1" stop-color="#F4F7F6" stop-opacity="0"/>
</radialGradient>
<radialGradient id="paint10_radial_630_43815" cx="0" cy="0" r="1" gradientUnits="userSpaceOnUse" gradientTransform="translate(42.2816 42.7333) scale(2.38953 2.38394)">
<stop stop-color="white"/>
<stop offset="1" stop-color="#F4F7F6" stop-opacity="0"/>
</radialGradient>
<radialGradient id="paint11_radial_630_43815" cx="0" cy="0" r="1" gradientUnits="userSpaceOnUse" gradientTransform="translate(39.3865 43.0494) rotate(-29.7248) scale(5.25436 2.15755)">
<stop offset="0.3557" stop-color="#2A3482"/>
<stop offset="0.5867" stop-color="#2A3482" stop-opacity="0"/>
</radialGradient>
<radialGradient id="paint12_radial_630_43815" cx="0" cy="0" r="1" gradientUnits="userSpaceOnUse" gradientTransform="translate(17.7882 32.5358) rotate(138.433) scale(23.7753 23.245)">
<stop offset="0.13224" stop-color="#0963E7"/>
<stop offset="0.622538" stop-color="#063186"/>
</radialGradient>
<radialGradient id="paint13_radial_630_43815" cx="0" cy="0" r="1" gradientUnits="userSpaceOnUse" gradientTransform="translate(26.1885 12.5292) rotate(42.1377) scale(42.6461 30.9642)">
<stop offset="0.20202" stop-color="white"/>
<stop offset="0.832374" stop-color="#CECECE"/>
</radialGradient>
<radialGradient id="paint14_radial_630_43815" cx="0" cy="0" r="1" gradientUnits="userSpaceOnUse" gradientTransform="translate(33.1055 20.9154) rotate(55.5172) scale(41.8922 30.3382)">
<stop stop-color="#FFD75B"/>
<stop offset="0.652988" stop-color="#E6A603"/>
</radialGradient>
<radialGradient id="paint15_radial_630_43815" cx="0" cy="0" r="1" gradientUnits="userSpaceOnUse" gradientTransform="translate(47.4351 19.9288) rotate(50.1115) scale(60.3199 43.5933)">
<stop offset="0.506195" stop-color="#DCDCDC"/>
<stop offset="0.914778" stop-color="#949191"/>
</radialGradient>
<radialGradient id="paint16_radial_630_43815" cx="0" cy="0" r="1" gradientUnits="userSpaceOnUse" gradientTransform="translate(72.1145 11.7354) rotate(69.7054) scale(42.0474 15.1386)">
<stop offset="0.458333" stop-color="#0A61E3"/>
<stop offset="0.76957" stop-color="#2A3482"/>
</radialGradient>
<radialGradient id="paint17_radial_630_43815" cx="0" cy="0" r="1" gradientUnits="userSpaceOnUse" gradientTransform="translate(54.3531 35.7147) rotate(55.0805) scale(39.7073 30.949)">
<stop offset="0.443629" stop-color="#F9C41C"/>
<stop offset="0.845" stop-color="#C68218"/>
</radialGradient>
<radialGradient id="paint18_radial_630_43815" cx="0" cy="0" r="1" gradientUnits="userSpaceOnUse" gradientTransform="translate(55.3412 34.2347) rotate(82.9967) scale(52.6837 28.4642)">
<stop offset="0.226841" stop-color="#0A61E3"/>
<stop offset="0.811724" stop-color="#242E7D"/>
</radialGradient>
<linearGradient id="paint19_linear_630_43815" x1="23.8929" y1="0.798339" x2="27.6588" y2="15.9853" gradientUnits="userSpaceOnUse">
<stop offset="0.261576" stop-color="#4184E6"/>
<stop offset="0.53895" stop-color="#0963E7"/>
</linearGradient>
<radialGradient id="paint20_radial_630_43815" cx="0" cy="0" r="1" gradientUnits="userSpaceOnUse" gradientTransform="translate(7.05303 17.7787) rotate(46.5424) scale(14.016 12.7652)">
<stop stop-color="#FFD245"/>
<stop offset="0.987795" stop-color="#D19019"/>
</radialGradient>
<radialGradient id="paint21_radial_630_43815" cx="0" cy="0" r="1" gradientUnits="userSpaceOnUse" gradientTransform="translate(37.0587 43.6076) rotate(38.8444) scale(45.3798 28.5662)">
<stop offset="0.458333" stop-color="#0A61E3"/>
<stop offset="0.8821" stop-color="#2A3482"/>
</radialGradient>
<radialGradient id="paint22_radial_630_43815" cx="0" cy="0" r="1" gradientUnits="userSpaceOnUse" gradientTransform="translate(34.7492 48.2735) rotate(33.6374) scale(57.9879 36.9975)">
<stop offset="0.429486" stop-color="#E8B000"/>
<stop offset="0.763152" stop-color="#C68218"/>
<stop offset="0.850247" stop-color="#A26609"/>
</radialGradient>
<radialGradient id="paint23_radial_630_43815" cx="0" cy="0" r="1" gradientUnits="userSpaceOnUse" gradientTransform="translate(60.2823 11.8314) rotate(119.859) scale(62.5259 33.7056)">
<stop offset="0.802651" stop-color="#DFDFDF"/>
<stop offset="1" stop-color="#001665"/>
</radialGradient>
<radialGradient id="paint24_radial_630_43815" cx="0" cy="0" r="1" gradientUnits="userSpaceOnUse" gradientTransform="translate(57.8119 81.099) rotate(-100.097) scale(22.5481 10.3075)">
<stop stop-color="#0C0D2B" stop-opacity="0.97"/>
<stop offset="0.952772" stop-color="#6266D1" stop-opacity="0.44"/>
</radialGradient>
<radialGradient id="paint25_radial_630_43815" cx="0" cy="0" r="1" gradientUnits="userSpaceOnUse" gradientTransform="translate(72.404 71.0576) rotate(-108.935) scale(22.5508 10.3062)">
<stop stop-color="#0C0D2B" stop-opacity="0.97"/>
<stop offset="0.952772" stop-color="#6266D1"/>
</radialGradient>
<radialGradient id="paint26_radial_630_43815" cx="0" cy="0" r="1" gradientUnits="userSpaceOnUse" gradientTransform="translate(0.227914 46.3628) rotate(-18.7161) scale(21.0317 10.268)">
<stop stop-color="#0C0D2B" stop-opacity="0.97"/>
<stop offset="0.952772" stop-color="#6266D1"/>
</radialGradient>
<radialGradient id="paint27_radial_630_43815" cx="0" cy="0" r="1" gradientUnits="userSpaceOnUse" gradientTransform="translate(1.9991 28.6102) rotate(-3.21151) scale(21.2854 10.8086)">
<stop stop-color="#0C0D2B" stop-opacity="0.97"/>
<stop offset="0.952772" stop-color="#6266D1"/>
</radialGradient>
<radialGradient id="paint28_radial_630_43815" cx="0" cy="0" r="1" gradientUnits="userSpaceOnUse" gradientTransform="translate(27.5126 59.4315) rotate(-62.7035) scale(34.9555 37.5001)">
<stop/>
<stop offset="1" stop-color="#484EDA" stop-opacity="0"/>
</radialGradient>
<radialGradient id="paint29_radial_630_43815" cx="0" cy="0" r="1" gradientUnits="userSpaceOnUse" gradientTransform="translate(42.1511 27.5991) rotate(31.1931) scale(32.613 18.6828)">
<stop stop-color="white"/>
<stop offset="0.791166" stop-color="white" stop-opacity="0.47"/>
</radialGradient>
<radialGradient id="paint30_radial_630_43815" cx="0" cy="0" r="1" gradientUnits="userSpaceOnUse" gradientTransform="translate(24.178 22.9087) rotate(33.671) scale(32.4645 12.7479)">
<stop offset="0.636341" stop-color="#FFD464"/>
<stop offset="0.684771" stop-color="#F0AD00" stop-opacity="0"/>
</radialGradient>
<radialGradient id="paint31_radial_630_43815" cx="0" cy="0" r="1" gradientUnits="userSpaceOnUse" gradientTransform="translate(53.7792 34.9169) rotate(-70.1178) scale(21.464 12.3315)">
<stop offset="0.369646" stop-color="white"/>
<stop offset="1" stop-color="white" stop-opacity="0"/>
</radialGradient>
<radialGradient id="paint32_radial_630_43815" cx="0" cy="0" r="1" gradientUnits="userSpaceOnUse" gradientTransform="translate(68.008 41.9019) rotate(-73.53) scale(16.889 12.3325)">
<stop offset="0.369646" stop-color="white"/>
<stop offset="1" stop-color="white" stop-opacity="0"/>
</radialGradient>
<radialGradient id="paint33_radial_630_43815" cx="0" cy="0" r="1" gradientUnits="userSpaceOnUse" gradientTransform="translate(36.4724 55.8061) rotate(14.9665) scale(16.5103 12.3079)">
<stop offset="0.369646" stop-color="#4489DA"/>
<stop offset="1" stop-color="#82B4EF" stop-opacity="0"/>
</radialGradient>
<clipPath id="clip0_630_43815">
<rect width="84" height="83.8036" fill="white" transform="translate(0 0.196503)"/>
</clipPath>
</defs>
</svg>
