<svg width="84" height="78" viewBox="0 0 84 78" fill="none" xmlns="http://www.w3.org/2000/svg">
<path d="M18.1427 28.8892C18.0441 29.2833 17.8471 29.5789 17.7485 29.973C17.9456 29.6774 18.0441 29.2833 18.1427 28.8892Z" fill="#00A14B"/>
<path d="M17.8471 29.973C17.8471 30.0716 17.8471 30.0716 17.7485 30.1701C17.7485 30.1701 17.7485 30.0716 17.8471 29.973Z" fill="#00A14B"/>
<path d="M18.7343 27.3127C18.5372 27.8053 18.3401 28.3965 18.1431 28.8892C18.3401 28.3965 18.5372 27.8053 18.7343 27.3127Z" fill="#00A14B"/>
<path d="M74.0111 48.9899C81.6967 29.3819 76.3759 8.78845 62.0886 2.18674C62.5813 2.38381 63.074 2.48234 63.5666 2.67941C66.7197 3.96034 70.661 7.01486 73.1243 9.18258C83.6674 18.7403 87.5101 36.6733 80.3172 53.1283C73.1243 69.4848 60.315 77.7616 46.2248 77.5645C42.9732 77.5645 38.1451 77.0718 34.8935 75.7909C34.4009 75.5938 33.9082 75.3968 33.4155 75.1997C48.3925 80.0278 66.3256 68.598 74.0111 48.9899Z" fill="url(#paint0_linear_630_42006)"/>
<path d="M32.036 74.707C32.5287 74.9041 32.9228 75.0026 33.4155 75.1997C48.3925 80.0278 66.3255 68.598 74.0111 48.9899C81.6967 29.3818 76.3759 8.78844 62.0886 2.18673C61.6945 1.98966 61.2018 1.7926 60.8077 1.59553C45.8307 -4.31645 27.5035 6.71925 19.3253 26.1303C19.1282 26.5244 19.0297 26.82 18.8326 27.2141C18.6356 27.7068 18.4385 28.298 18.2414 28.7906C18.1429 29.1848 17.9458 29.4804 17.8473 29.8745C17.8473 29.973 17.8473 29.973 17.7488 30.0716C17.6502 30.4657 17.5517 30.7613 17.4532 31.1554C11.6397 50.1723 17.7488 69.0906 32.036 74.707ZM15.581 45.4427C15.581 39.6293 16.7634 33.5202 19.1282 27.4112C21.493 21.4007 24.8431 16.0799 28.6859 11.843C37.1598 2.58086 48.3925 -1.75459 58.1473 1.2014C58.64 1.39847 59.2312 1.497 59.7238 1.69406C74.3067 7.40898 79.8246 28.1994 71.9419 48.1031C64.1578 68.1053 45.9292 79.6337 31.3463 73.9188C30.8537 73.7217 30.361 73.5246 29.7698 73.229C20.7048 68.6965 15.4825 57.9564 15.581 45.4427Z" fill="url(#paint1_linear_630_42006)"/>
<path d="M29.8685 73.229C30.3611 73.4261 30.8538 73.7217 31.445 73.9188C46.0279 79.6337 64.1579 68.1053 72.0406 48.2016C79.8247 28.298 74.4054 7.50751 59.8225 1.79259C59.3298 1.59552 58.8372 1.39846 58.246 1.29993C48.3927 -1.65606 37.2584 2.67939 28.7846 12.04C24.9418 16.2769 21.5917 21.4992 19.2269 27.6082C16.8621 33.7173 15.6797 39.8263 15.6797 45.6398C15.4826 57.9564 20.7049 68.6965 29.8685 73.229ZM22.3799 28.6921C28.7846 12.4342 43.6631 3.07352 55.6841 7.8031C67.8037 12.5327 72.3362 29.5789 65.9315 45.8368C59.5269 62.0948 44.6484 71.4554 32.6274 66.7258C20.6064 61.9963 15.9753 44.9501 22.3799 28.6921Z" fill="url(#paint2_linear_630_42006)"/>
<path d="M22.38 28.6921C15.9754 44.95 20.6064 61.9963 32.6274 66.7258C44.6485 71.4554 59.527 62.0948 65.9316 45.8368C72.3362 29.5789 67.8037 12.5327 55.6842 7.8031C43.6631 3.07352 28.7847 12.4342 22.38 28.6921ZM26.6169 30.3672C31.3465 18.3461 42.3822 11.3503 51.2502 14.8975C60.1181 18.3461 63.4683 30.9584 58.7387 43.0779C54.0091 55.0989 42.9734 62.0948 34.1054 58.5476C25.2375 55.0004 21.8873 42.4867 26.6169 30.3672Z" fill="url(#paint3_linear_630_42006)"/>
<path d="M25.9269 30.0716C21.0003 42.6838 24.5475 55.8872 33.8096 59.5329C43.0717 63.1787 54.6 55.8872 59.6252 43.3735C64.5518 30.7613 61.0047 17.5579 51.7426 13.9121C42.3819 10.2664 30.8536 17.4593 25.9269 30.0716ZM31.0506 32.1408C34.3022 23.864 41.7907 19.1344 47.7027 21.4992C53.7132 23.864 55.8809 32.4364 52.7279 40.6146C49.4763 48.8914 41.9878 53.621 35.9773 51.2562C29.9668 48.8914 27.799 40.319 31.0506 32.1408Z" fill="url(#paint4_linear_630_42006)"/>
<path d="M31.051 32.1408C27.7994 40.319 30.0656 48.9899 36.0761 51.2562C42.0867 53.621 49.5752 48.8914 52.7282 40.6146C55.9798 32.4364 53.7136 23.7655 47.703 21.4992C41.6925 19.1344 34.204 23.864 31.051 32.1408ZM36.0761 34.21C37.5541 30.3672 41.1999 28.1009 44.0573 29.2833C46.9148 30.4657 48.0972 34.5056 46.5206 38.3483C45.0426 42.1911 41.3969 44.4574 38.5395 43.275C35.682 42.1911 34.4996 38.1513 36.0761 34.21Z" fill="url(#paint5_linear_630_42006)"/>
<path d="M44.3529 28.5936C47.5059 29.8745 48.7869 34.3085 47.1118 38.5454C45.4367 42.7823 41.4954 45.2457 38.3424 43.9647C35.1893 42.6838 33.9084 38.2498 35.5834 34.0129C37.16 29.776 41.1013 27.3127 44.3529 28.5936Z" fill="url(#paint6_linear_630_42006)"/>
<path opacity="0.49" d="M40.9042 35.0968L31.6421 71.751C31.6421 71.751 38.0467 74.8056 43.7616 73.229L40.9042 35.0968Z" fill="url(#paint7_linear_630_42006)"/>
<path d="M4.5457 18.1491C4.5457 18.1491 2.96917 17.755 2.57504 18.6418C2.27944 19.5286 3.3633 22.7801 4.2501 24.2581C5.23543 25.8347 5.92516 23.5684 5.92516 23.5684L4.5457 18.1491Z" fill="#B4ADA1"/>
<path d="M4.1513 26.4258C4.1513 26.4258 -0.0856169 30.2686 0.407048 33.6187C0.899713 37.5601 12.6251 35.5894 24.1535 33.1261L4.1513 26.4258Z" fill="#D3C9BB"/>
<path d="M4.54562 24.2581C4.54562 24.2581 2.96909 20.5139 2.87055 19.233C2.77202 17.952 4.05295 17.8535 5.82654 18.5432C7.69867 19.233 21.1977 25.9332 25.5331 30.9584C25.6317 31.0569 4.54562 24.2581 4.54562 24.2581Z" fill="#D3C9BB"/>
<path d="M4.54519 26.4258C4.54519 26.4258 1.19506 29.8745 0.702399 32.2393C0.209734 34.6041 1.09653 35.7865 6.12172 35.885C11.1469 35.9835 17.2559 35.885 25.3357 32.8305L4.54519 26.4258Z" fill="#E2D8C9"/>
<path d="M41.7909 35.2938C10.2604 25.7361 2.87039 23.4699 1.29386 22.9772C0.998263 22.8787 0.604131 22.9772 0.505598 23.1743C-0.184133 24.2581 -0.184133 24.8493 0.604131 25.1449C0.604131 25.1449 -0.479731 25.6376 41.1997 37.4616C41.2983 37.4616 42.2836 36.4762 41.7909 35.2938Z" fill="url(#paint8_linear_630_42006)"/>
<path d="M6.02344 25.0464L6.12197 24.7508C6.61464 24.2581 8.19116 23.1743 10.1618 23.5684C12.6251 24.061 20.8034 27.4112 27.011 31.5496L6.02344 25.0464Z" fill="white"/>
<path d="M6.02344 25.0464C6.02344 25.0464 7.89556 23.1743 10.753 24.0611C13.6105 24.9479 19.2269 26.82 27.011 31.5496C26.9124 31.6481 6.02344 25.0464 6.02344 25.0464Z" fill="#E5DBCC"/>
<path opacity="0.25" d="M6.02344 25.0464V25.2434L6.12197 25.342L26.9124 31.5496L6.02344 25.0464Z" fill="#404041"/>
<defs>
<linearGradient id="paint0_linear_630_42006" x1="78.6985" y1="9.25089" x2="48.6317" y2="81.4738" gradientUnits="userSpaceOnUse">
<stop offset="0.00613497" stop-color="#E2AAA9"/>
<stop offset="0.0674847" stop-color="#E17371"/>
<stop offset="0.0946484" stop-color="#DE6C6B"/>
<stop offset="0.1336" stop-color="#D6595A"/>
<stop offset="0.1794" stop-color="#C83A3D"/>
<stop offset="0.2086" stop-color="#BE2328"/>
<stop offset="0.2482" stop-color="#C22E32"/>
<stop offset="0.3627" stop-color="#CB4A49"/>
<stop offset="0.4294" stop-color="#CE5452"/>
<stop offset="0.6871" stop-color="#E25352"/>
<stop offset="0.7626" stop-color="#DD4F4E"/>
<stop offset="0.8462" stop-color="#D04444"/>
<stop offset="0.9332" stop-color="#BA3133"/>
<stop offset="1" stop-color="#A41E22"/>
</linearGradient>
<linearGradient id="paint1_linear_630_42006" x1="22.5991" y1="19.2211" x2="70.2636" y2="57.1303" gradientUnits="userSpaceOnUse">
<stop stop-color="#BE2328"/>
<stop offset="0.00609186" stop-color="#BF2328"/>
<stop offset="0.1767" stop-color="#DB2E34"/>
<stop offset="0.2761" stop-color="#E53238"/>
<stop offset="0.42" stop-color="#E12D33"/>
<stop offset="0.5521" stop-color="#D82329"/>
<stop offset="0.671" stop-color="#D32328"/>
<stop offset="0.8026" stop-color="#C62127"/>
<stop offset="0.9397" stop-color="#B01F24"/>
<stop offset="1" stop-color="#A41E22"/>
</linearGradient>
<linearGradient id="paint2_linear_630_42006" x1="20.6881" y1="28.8265" x2="71.3732" y2="47.1532" gradientUnits="userSpaceOnUse">
<stop stop-color="#E45155"/>
<stop offset="0.3148" stop-color="#E44C50"/>
<stop offset="0.6625" stop-color="#E43F43"/>
<stop offset="1" stop-color="#E32B2F"/>
</linearGradient>
<linearGradient id="paint3_linear_630_42006" x1="23.9275" y1="23.8322" x2="64.002" y2="50.4422" gradientUnits="userSpaceOnUse">
<stop stop-color="white"/>
<stop offset="1" stop-color="#CFCFCF"/>
</linearGradient>
<linearGradient id="paint4_linear_630_42006" x1="15.8001" y1="26.9717" x2="69.1967" y2="46.2786" gradientUnits="userSpaceOnUse">
<stop stop-color="#E45155"/>
<stop offset="0.3148" stop-color="#E44C50"/>
<stop offset="0.6625" stop-color="#E43F43"/>
<stop offset="1" stop-color="#E32B2F"/>
</linearGradient>
<linearGradient id="paint5_linear_630_42006" x1="21.7482" y1="23.0171" x2="61.2246" y2="49.23" gradientUnits="userSpaceOnUse">
<stop stop-color="white"/>
<stop offset="1" stop-color="#CFCFCF"/>
</linearGradient>
<linearGradient id="paint6_linear_630_42006" x1="67.6692" y1="5.4974" x2="16.1069" y2="65.2606" gradientUnits="userSpaceOnUse">
<stop stop-color="#E45155"/>
<stop offset="0.3148" stop-color="#E44C50"/>
<stop offset="0.6625" stop-color="#E43F43"/>
<stop offset="1" stop-color="#E32B2F"/>
</linearGradient>
<linearGradient id="paint7_linear_630_42006" x1="37.7801" y1="35.0667" x2="37.7801" y2="73.6805" gradientUnits="userSpaceOnUse">
<stop offset="0.0114826"/>
<stop offset="0.6985" stop-opacity="0"/>
</linearGradient>
<linearGradient id="paint8_linear_630_42006" x1="21.3507" y1="29.1828" x2="20.5912" y2="31.8056" gradientUnits="userSpaceOnUse">
<stop stop-color="#BE9F7F"/>
<stop offset="1" stop-color="#6B543B"/>
</linearGradient>
</defs>
</svg>
