<?xml version="1.0" encoding="UTF-8"?>
<!DOCTYPE svg PUBLIC "-//W3C//DTD SVG 1.1//EN" "http://www.w3.org/Graphics/SVG/1.1/DTD/svg11.dtd">
<!-- Creator: CorelDRAW -->
<svg xmlns="http://www.w3.org/2000/svg" xml:space="preserve" width="6.82666in" height="6.82666in" style="shape-rendering:geometricPrecision; text-rendering:geometricPrecision; image-rendering:optimizeQuality; fill-rule:evenodd; clip-rule:evenodd"
viewBox="0 0 6.82666 6.82666"
 xmlns:xlink="http://www.w3.org/1999/xlink">
 <defs>
  <style type="text/css">
   <![CDATA[
    .fil8 {fill:none}
    .fil7 {fill:#B8B8B8}
    .fil1 {fill:#2D2D2D;fill-rule:nonzero}
    .fil4 {fill:#323232;fill-rule:nonzero}
    .fil6 {fill:#878787;fill-rule:nonzero}
    .fil3 {fill:#939393;fill-rule:nonzero}
    .fil5 {fill:#AEAEAF;fill-rule:nonzero}
    .fil0 {fill:#BFC0C0;fill-rule:nonzero}
    .fil2 {fill:#C7C7C7;fill-rule:nonzero}
   ]]>
  </style>
 </defs>
 <g id="Layer_x0020_1">
  <metadata id="CorelCorpID_0Corel-Layer"/>
  <path class="fil0" d="M1.89091 4.6395c0.18415,0 0.350882,0.0746575 0.471571,0.195346 0.120693,0.120689 0.195346,0.287421 0.195346,0.471567 0,0.18415 -0.0746575,0.350882 -0.195346,0.471571 -0.120689,0.120689 -0.287425,0.195346 -0.471571,0.195346 -0.18415,0 -0.350882,-0.0746575 -0.471571,-0.195346 -0.120689,-0.120689 -0.195346,-0.287421 -0.195346,-0.471571 0,-0.184146 0.0746535,-0.350878 0.195346,-0.471567 0.120689,-0.120689 0.287421,-0.195346 0.471571,-0.195346z"/>
  <g id="_345919512">
   <path id="_345919272" class="fil1" d="M5.55391 5.45946l-0.586142 0.380642c-0.00224803,0.00172835 -0.0045748,0.00338189 -0.00699213,0.00495276 -0.0494055,0.0320827 -0.115472,0.0180394 -0.147555,-0.0313661l0.000287402 -0.000188976 -0.820984 -1.26421c-0.00172835,-0.00224803 -0.00338189,-0.0045748 -0.00495276,-0.00699213 -0.0320827,-0.0494055 -0.0180394,-0.115472 0.0313661,-0.147555l0.000188976 0.000287402 0.586142 -0.380642c0.00224803,-0.00172835 0.0045748,-0.00338189 0.00699213,-0.00495276 0.0494055,-0.0320827 0.115472,-0.0180394 0.147555,0.0313661l-0.000287402 0.000188976 0.820984 1.26421c0.00172835,0.00224803 0.00338189,0.0045748 0.00495276,0.00699213 0.0320827,0.0494055 0.0180394,0.115472 -0.0313661,0.147555l-0.000188976 -0.000287402z"/>
   <path id="_345919248" class="fil2" d="M5.15026 3.91402l-1.42997 0.92863c-0.0354016,0.0273937 -0.085752,0.0304488 -0.124902,0.00405906l0.059626 -0.0884449 -0.0595827 0.0883346 -0.638528 -0.430461c-0.0134252,-0.00808268 -0.0252717,-0.019252 -0.034378,-0.0332756 -0.0320827,-0.0494055 -0.0180394,-0.115472 0.0313661,-0.147555l0.000188976 0.000287402 1.9386 -1.25894c0.0132362,-0.0102402 0.0290748,-0.0175118 0.0467008,-0.0206142 0.0580157,-0.0102126 0.113335,0.0285394 0.123547,0.0865551l-0.105051 0.0184961 0.105 -0.0183346 0.133638 0.758996c0.00934646,0.0421969 -0.00768504,0.0876299 -0.0460669,0.112551l-0.000188976 -0.000287402z"/>
   <path id="_345919368" class="fil3" d="M2.33419 1.15108c0.392098,-0.25463 0.837177,-0.346303 1.24649,-0.273461 0.399181,0.0710354 0.763713,0.297413 1.01253,0.680559 0.0441535,0.0679921 0.164657,0.264563 0.26128,0.434591 0.0650906,0.114535 0.120516,0.21926 0.138661,0.271972 0.0453386,0.131717 0.0733504,0.266984 0.084689,0.402673 0.0114843,0.137417 0.00566535,0.275835 -0.016752,0.411929l-0.105 -0.0170827 0.105248 0.0173386c-0.0055748,0.0338386 -0.0265079,0.061311 -0.0544882,0.0764764l-1.93514 1.2567 -0.0579173 -0.0891654 0.0580945 0.0894606c-0.0288898,0.0187598 -0.0634724,0.0217402 -0.0936299,0.0111102 -0.140776,-0.0376142 -0.276988,-0.0936535 -0.404677,-0.167287 -0.127937,-0.0737717 -0.246961,-0.164858 -0.353091,-0.272409 -0.0325866,-0.0330276 -0.0962205,-0.117752 -0.165528,-0.214744 -0.106587,-0.149154 -0.230614,-0.332413 -0.26761,-0.38939 -0.24874,-0.383024 -0.307276,-0.807921 -0.209878,-1.20127 0.100028,-0.403972 0.364783,-0.773472 0.75672,-1.028z"/>
  </g>
  <g id="_345919008">
   <path id="_345919896" class="fil4" d="M5.28654 5.63309l-0.31878 0.207016c-0.00224803,0.00172835 -0.0045748,0.00338189 -0.00699213,0.00495276 -0.0494055,0.0320827 -0.115472,0.0180394 -0.147555,-0.0313661l0.000287402 -0.000188976 -0.820984 -1.26421c-0.00172835,-0.00224803 -0.00338189,-0.0045748 -0.00495276,-0.00699213 -0.0320827,-0.0494055 -0.0180394,-0.115472 0.0313661,-0.147555l0.000188976 0.000287402 0.315228 -0.204713 0.952193 1.44277z"/>
   <path id="_345919416" class="fil5" d="M4.45149 4.36781l-0.731193 0.474843c-0.0354016,0.0273937 -0.085752,0.0304488 -0.124902,0.00405906l0.059626 -0.0884449 -0.0595827 0.0883346 -0.638528 -0.430461c-0.0134252,-0.00808268 -0.0252717,-0.019252 -0.034378,-0.0332756 -0.0320827,-0.0494055 -0.0180394,-0.115472 0.0313661,-0.147555l0.000188976 0.000287402 0.987083 -0.64102 0.510319 0.773232z"/>
   <path id="_345919632" class="fil6" d="M4.05831 3.77206l-0.986602 0.640709 -0.0579173 -0.0891654 0.0580945 0.0894606c-0.0288898,0.0187598 -0.0634724,0.0217402 -0.0936299,0.0111102 -0.140776,-0.0376142 -0.276988,-0.0936535 -0.404677,-0.167287 -0.127937,-0.0737717 -0.246961,-0.164858 -0.353091,-0.272409 -0.0325866,-0.0330276 -0.0962205,-0.117752 -0.165528,-0.214744 -0.106587,-0.149154 -0.230614,-0.332413 -0.26761,-0.38939 -0.24874,-0.383024 -0.307276,-0.807921 -0.209878,-1.20127 0.099689,-0.402606 0.363012,-0.770957 0.752764,-1.0254l1.72807 2.61838z"/>
  </g>
  <path class="fil7" d="M1.88641 4.63953l0 1.33378c-0.182366,-0.00120472 -0.347374,-0.0756142 -0.467079,-0.195319 -0.120689,-0.120689 -0.195346,-0.287421 -0.195346,-0.471571 0,-0.184146 0.0746535,-0.350878 0.195346,-0.471567 0.119705,-0.119705 0.284713,-0.194114 0.467079,-0.195319z"/>
  <rect class="fil8" width="6.82666" height="6.82666"/>
 </g>
</svg>
