<svg width="84" height="84" viewBox="0 0 84 84" fill="none" xmlns="http://www.w3.org/2000/svg">
<path d="M29.9126 40.4036L40.1985 44.4343L34.561 54.3095C34.561 54.3095 36.3413 50.4803 34.7588 47.4573C34.8577 47.4573 30.4071 41.7136 29.9126 40.4036Z" fill="#FFF0D1"/>
<path d="M20.1211 75.9745C20.1211 75.9745 27.341 77.6875 32.9784 81.819L49.2974 47.5581L40.2972 44.3335C40.2972 44.3335 29.8135 64.1847 20.1211 75.9745Z" fill="url(#paint0_linear_630_41905)"/>
<path d="M60.0773 52.0926L49.2969 47.8604L43.5605 59.0455C43.5605 59.0455 45.5386 54.9141 50.4837 53.7049C50.4837 53.6041 51.6706 53.201 60.0773 52.0926Z" fill="#FFF0D1"/>
<path d="M49.1983 47.6588C49.1983 47.6588 46.7257 49.8757 44.5498 50.0772C42.374 50.2788 38.319 49.1703 39.308 46.1473C39.6047 45.1396 40.297 44.4343 40.297 44.4343L49.1983 47.6588Z" fill="#EACEA9"/>
<path opacity="0.6" d="M49.1982 47.8604C49.1982 47.8604 42.7695 60.6578 40.6926 65.0916C38.7145 69.3238 32.9782 81.9198 32.9782 81.9198C32.9782 81.9198 29.9122 79.6021 27.7363 79.0983L42.7695 49.9765C42.7695 49.9765 43.1651 50.0773 43.7585 50.0773C44.9454 50.178 46.5278 49.8757 49.0004 47.8604C49.0993 47.7596 49.0993 47.8604 49.1982 47.8604Z" fill="url(#paint1_linear_630_41905)"/>
<path d="M33.9675 83.8343C33.9675 83.8343 38.7149 70.7346 41.583 65.2931C42.2754 64.0839 43.7589 61.1617 44.1545 60.4563C45.9348 57.6348 49.3963 54.0072 59.4844 53.7049C63.4405 53.6041 67.0999 52.0926 69.2758 50.4803C71.1549 49.0696 74.9132 46.3488 78.177 40.8066C78.177 40.8066 81.8364 34.6598 82.8254 30.4276C84.309 24.18 84.1111 19.847 83.7155 18.2347C83.3199 16.6224 84.0122 20.1493 83.4188 23.5754C82.8254 27.0015 82.0342 30.3268 79.3638 35.5667C77.0891 40.3028 74.122 43.8296 74.122 43.8296C74.122 43.8296 71.056 47.4573 67.7922 49.2711C64.5284 51.0849 61.8581 51.7903 60.0778 52.0926C58.2976 52.2941 50.4843 52.4956 46.2315 55.821C43.9567 57.534 41.9786 62.1693 41.9786 62.1693L32.9785 81.9197C32.9785 81.9197 33.7697 82.7259 33.9675 83.8343Z" fill="#CEBEA3"/>
<path d="M60.0778 52.0926L29.9125 40.4036C29.9125 40.4036 27.2421 37.179 27.8356 31.0322C27.8356 31.0322 26.9454 26.1954 35.2533 14.3048C35.2533 14.3048 41.4841 4.83265 52.1656 1.40656C52.1656 1.40656 61.2646 -1.01186 68.0889 0.902718C68.0889 0.902718 72.7373 1.60809 78.8693 7.4526C78.8693 7.4526 82.3309 11.3825 83.221 15.8163C83.221 15.8163 85.0013 20.2501 83.0232 26.3969C81.3419 31.7376 80.2539 35.869 75.2099 42.5197C75.3088 42.4189 69.5724 50.6818 60.0778 52.0926Z" fill="url(#paint2_linear_630_41905)"/>
<path d="M33.9675 83.8343C33.9675 83.8343 34.1653 82.9274 32.8795 81.819C32.0883 81.2144 30.6048 79.8036 26.1542 77.9898C22.7915 76.5791 20.8134 75.9745 20.0222 75.9745C20.0222 75.9745 19.0332 77.486 25.1651 80.7105C28.6267 82.5244 31.1982 83.4313 31.1982 83.4313C31.1982 83.4313 33.6708 84.3382 33.9675 83.8343Z" fill="#A0917C"/>
<path d="M54.0437 40.3028L43.7578 44.3335L49.4942 54.3095C49.4942 54.3095 47.615 50.4803 49.1975 47.4573C49.1975 47.4573 53.6481 41.6128 54.0437 40.3028Z" fill="#FFF0D1"/>
<path d="M64.0335 75.9745C64.0335 75.9745 56.8136 77.6875 51.1761 81.9197L34.7583 47.6588L43.6595 44.4343C43.7584 44.3335 54.2421 64.0839 64.0335 75.9745Z" fill="url(#paint3_linear_630_41905)"/>
<path d="M23.9775 52.0926L34.7579 47.8604L40.4943 58.9448C40.4943 58.9448 38.5162 54.8133 33.4722 53.6041C33.4722 53.6041 32.2854 53.201 23.9775 52.0926Z" fill="#FFF0D1"/>
<path d="M34.7583 47.6588C34.7583 47.6588 37.2309 49.8757 39.4067 50.0772C41.5826 50.2788 45.6376 49.1703 44.6486 46.1473C44.3519 45.1396 43.6595 44.4343 43.6595 44.4343L34.7583 47.6588Z" fill="#EACEA9"/>
<path opacity="0.6" d="M34.8569 47.8604C34.8569 47.8604 41.3845 60.6578 43.4615 64.9908C45.4395 69.2231 51.1759 81.819 51.1759 81.819C51.1759 81.819 54.2418 79.5013 56.3188 78.9975L41.1867 49.8757C41.1867 49.8757 40.7911 49.9765 40.1977 49.9765C39.0108 50.0772 37.4284 49.7749 34.9558 47.7596L34.8569 47.8604Z" fill="url(#paint4_linear_630_41905)"/>
<path d="M50.0878 83.8343C50.0878 83.8343 45.2415 70.7346 42.4723 65.2931C41.7799 64.0839 40.2964 61.1617 39.9008 60.4563C38.1205 57.6348 34.6589 54.0072 24.5709 53.8056C20.6148 53.7049 16.9554 52.1934 14.7795 50.5811C12.9004 49.1703 9.14208 46.4496 5.8783 40.9074C5.8783 40.9074 2.2189 34.7606 1.22988 30.5284C-0.253664 24.2808 -0.0558585 19.9478 0.240849 18.3355C0.537557 16.7232 -0.0558586 20.2501 0.537557 23.6762C1.13097 27.1023 2.0211 30.4276 4.69147 35.6675C7.06513 40.4036 10.0322 43.9304 10.0322 43.9304C10.0322 43.9304 13.1971 47.5581 16.362 49.3719C19.6258 51.1857 22.2961 51.8911 24.0764 52.1934C25.8566 52.3949 33.6699 52.5964 37.9227 55.821C40.1975 57.534 42.1755 62.1693 42.1755 62.1693L51.1757 81.9198C51.1757 81.819 50.2856 82.7259 50.0878 83.8343Z" fill="#A0917C"/>
<path d="M23.9778 52.0926L54.0442 40.3028C54.0442 40.3028 56.7146 37.0782 56.1212 30.8307C56.1212 30.8307 57.0113 25.9938 48.7035 14.1033C48.7035 14.1033 42.4726 4.63112 31.7911 1.20503C31.7911 1.20503 22.6921 -1.21339 15.8678 0.801956C15.8678 0.801956 11.2194 1.50733 5.08743 7.35184C5.08743 7.35184 1.62584 11.2818 0.735714 15.7155C0.735714 15.7155 -1.04453 20.1493 0.933519 26.2961C2.61486 31.6368 3.80169 35.7683 8.74682 42.4189C8.74682 42.5197 14.3843 50.6818 23.9778 52.0926Z" fill="url(#paint5_linear_630_41905)"/>
<path d="M39.5057 25.7923C39.0112 27.5053 34.5606 27.9084 29.5166 26.4977C24.4726 25.0869 20.7143 22.6685 21.2088 20.8547C21.7033 19.1416 26.1539 18.7386 31.1979 20.1493C36.242 21.5601 40.0003 24.0792 39.5057 25.7923Z" fill="url(#paint6_radial_630_41905)"/>
<path d="M34.6593 25.5907C38.6468 25.5907 41.8792 22.2973 41.8792 18.2347C41.8792 14.1721 38.6468 10.8787 34.6593 10.8787C30.6719 10.8787 27.4395 14.1721 27.4395 18.2347C27.4395 22.2973 30.6719 25.5907 34.6593 25.5907Z" fill="url(#paint7_radial_630_41905)"/>
<path d="M50.0881 83.8343C50.0881 83.8343 49.8903 82.9274 51.176 81.819C51.9672 81.2144 53.4508 79.8036 57.9014 77.9898C61.2641 76.5791 63.2421 75.9745 64.0334 75.9745C64.0334 75.9745 65.0224 77.486 58.8904 80.7105C55.4288 82.5244 52.8574 83.532 52.8574 83.532C52.8574 83.532 50.3848 84.3382 50.0881 83.8343Z" fill="#E5D3B3"/>
<defs>
<linearGradient id="paint0_linear_630_41905" x1="43.5703" y1="67.1208" x2="28.6604" y2="58.5832" gradientUnits="userSpaceOnUse">
<stop offset="0.5735" stop-color="#EFE1CA"/>
<stop offset="1" stop-color="#81614C"/>
</linearGradient>
<linearGradient id="paint1_linear_630_41905" x1="36.048" y1="62.2777" x2="41.3415" y2="64.9022" gradientUnits="userSpaceOnUse">
<stop stop-color="white" stop-opacity="0"/>
<stop offset="1" stop-color="#491E00" stop-opacity="0.69"/>
</linearGradient>
<linearGradient id="paint2_linear_630_41905" x1="27.4149" y1="28.5494" x2="84.3168" y2="24.4484" gradientUnits="userSpaceOnUse">
<stop stop-color="#3D342D"/>
<stop offset="1" stop-color="#3D4056"/>
</linearGradient>
<linearGradient id="paint3_linear_630_41905" x1="40.4824" y1="67.1037" x2="55.3733" y2="58.5306" gradientUnits="userSpaceOnUse">
<stop offset="0.5735" stop-color="#EFE1CA"/>
<stop offset="1" stop-color="#875A41"/>
</linearGradient>
<linearGradient id="paint4_linear_630_41905" x1="47.9932" y1="62.2424" x2="42.7056" y2="64.8793" gradientUnits="userSpaceOnUse">
<stop stop-color="white" stop-opacity="0"/>
<stop offset="1" stop-color="#491E00" stop-opacity="0.69"/>
</linearGradient>
<linearGradient id="paint5_linear_630_41905" x1="-0.343192" y1="24.3725" x2="56.5693" y2="28.342" gradientUnits="userSpaceOnUse">
<stop stop-color="#FF4454"/>
<stop offset="0.4725" stop-color="#FF485A"/>
<stop offset="1" stop-color="#FF5267"/>
</linearGradient>
<radialGradient id="paint6_radial_630_41905" cx="0" cy="0" r="1" gradientUnits="userSpaceOnUse" gradientTransform="translate(30.3999 23.3367) rotate(14.9852) scale(9.24948 3.25929)">
<stop/>
<stop offset="0.8121" stop-opacity="0"/>
</radialGradient>
<radialGradient id="paint7_radial_630_41905" cx="0" cy="0" r="1" gradientUnits="userSpaceOnUse" gradientTransform="translate(33.0771 12.6925) rotate(64.7741) scale(13.9238 13.7606)">
<stop offset="0.37575" stop-color="#FCFCFC"/>
<stop offset="0.694904" stop-color="#BCBCBC"/>
<stop offset="0.9385" stop-color="#616161"/>
</radialGradient>
</defs>
</svg>
