<svg width="84" height="84" viewBox="0 0 84 84" fill="none" xmlns="http://www.w3.org/2000/svg">
<path d="M42 84C65.196 84 84 65.196 84 42C84 18.804 65.196 0 42 0C18.804 0 0 18.804 0 42C0 65.196 18.804 84 42 84Z" fill="url(#paint0_radial_630_43906)"/>
<path opacity="0.5" d="M42 84C65.196 84 84 65.196 84 42C84 18.804 65.196 0 42 0C18.804 0 0 18.804 0 42C0 65.196 18.804 84 42 84Z" fill="url(#paint1_radial_630_43906)"/>
<path d="M42 84C65.196 84 84 65.196 84 42C84 18.804 65.196 0 42 0C18.804 0 0 18.804 0 42C0 65.196 18.804 84 42 84Z" fill="url(#paint2_radial_630_43906)"/>
<path d="M17.4001 61C16.7001 60.2 16.0001 59.4 15.4001 58.6C16.0001 59.4 16.7001 60.2 17.4001 61Z" fill="white"/>
<path d="M26 67.8C25.1 67.3 24.2 66.7 23.3 66.2C24.2 66.7 25.1 67.3 26 67.8Z" fill="white"/>
<path d="M14.4 57.2C13.8 56.3 13.3 55.4 12.8 54.5C13.3 55.5 13.8 56.4 14.4 57.2Z" fill="white"/>
<path d="M60.7 66.1C59.8 66.7 58.9 67.2 58 67.7C58.9 67.3 59.8 66.7 60.7 66.1Z" fill="white"/>
<path d="M17.1 8.10001L13.8 39L17.1 8.10001Z" fill="white"/>
<path d="M9.5 45.5C9.3 44.4 9.1 43.3 9 42.2C9.1 43.3 9.3 44.4 9.5 45.5Z" fill="white"/>
<path d="M65.5001 62.1C64.0001 63.6 62.4001 64.9 60.6001 66.1C62.4001 64.9 64.1001 63.6 65.5001 62.1Z" fill="white"/>
<path d="M23.3001 66.1C21.5001 64.9 19.9001 63.6 18.4001 62.1C19.9001 63.6 21.6001 64.9 23.3001 66.1Z" fill="white"/>
<path d="M75 42.2C74.9 43.3 74.7 44.4 74.5 45.5C74.7 44.4 74.9 43.3 75 42.2Z" fill="white"/>
<path d="M41.7 71.7C36.6 71.7 31.8 70.5 27.5 68.5C31.8 70.6 36.6 71.7 41.7 71.7H42.3C47.4 71.7 52.2 70.5 56.5 68.5C52.2 70.6 47.4 71.7 42.3 71.7H41.7Z" fill="white"/>
<path d="M71.2001 54.5C70.7001 55.4 70.1001 56.3 69.6001 57.2C70.2001 56.4 70.7001 55.5 71.2001 54.5Z" fill="white"/>
<path d="M68.7002 58.5C68.1002 59.3 67.4002 60.2 66.7002 60.9C67.3002 60.2 68.0002 59.4 68.7002 58.5Z" fill="white"/>
<path d="M8.80005 38.9C8.80005 40 8.90005 41.2 9.00005 42.3C9.10005 43.4 9.30005 44.5 9.50005 45.6C10.2 48.8 11.3 51.8 12.8 54.6C13.3 55.5 13.9 56.4 14.4 57.3C14.7 57.7 15 58.2 15.3 58.6C15.9 59.4 16.6 60.3 17.3 61C17.7 61.4 18 61.8 18.4 62.1C19.9 63.6 21.5 64.9 23.3 66.1C24.2 66.7 25.1 67.2 26 67.7C26.5 68 26.9 68.2 27.4 68.4C31.7 70.5 36.5 71.6 41.6 71.6H42.2001C47.3 71.6 52.1001 70.4 56.4001 68.4C56.9001 68.2 57.4 67.9 57.8 67.7C58.7001 67.2 59.6 66.6 60.5 66.1C62.3 64.9 63.9001 63.6 65.4001 62.1C65.8001 61.7 66.1 61.3 66.5 61C67.2001 60.2 67.9001 59.4 68.5 58.6C68.8 58.2 69.1001 57.7 69.4001 57.3C70 56.4 70.5 55.5 71 54.6C72.5 51.8 73.6001 48.8 74.3 45.6C74.5 44.5 74.7001 43.4 74.8 42.3C74.9 41.2 75 40.1 75 38.9L72.5 13C70.8 11.2 69 9.60001 67 8.10001L70.3001 39C70.3001 41.9 69.8 44.6 69 47.3C68.7001 48.2 68.4 49 68.1 49.9C67.6 51.1 66.9 52.3 66.2 53.5C65.7 54.3 65.2 55 64.7 55.7C63.9 56.8 63 57.8 62.1 58.7C61.5 59.3 60.8 59.9 60.1 60.5C59.1 61.3 58 62.1 56.8 62.8C55.3 63.7 53.6001 64.5 51.9001 65.1C48.9001 66.2 45.7001 66.8 42.3 66.8H41.7001C38.3001 66.8 35.1 66.2 32.1 65.1C30.4 64.5 28.8001 63.7 27.2001 62.8C26.1 62.1 25 61.3 23.9 60.5C23.2 59.9 22.6 59.3 21.9 58.7C21 57.8 20.1 56.7 19.3 55.7C18.8 55 18.3 54.2 17.8 53.5C17.1 52.4 16.5 51.2 15.9 49.9C15.5 49.1 15.2 48.2 15 47.3C14.2 44.7 13.7 41.9 13.7 39L17 8.10001C15 9.60001 13.2 11.2 11.5 13L8.80005 38.6V38.9Z" fill="white"/>
<path opacity="0.2" d="M76.7 38.7L74.2 14.9C73.9 14.6 73.6001 14.2 73.3 13.9C73 13.6 72.7 13.3 72.5 13L75.2 38.8C75.2 39.9 75.1 41.1 75 42.2C74.9 43.3 74.7 44.4 74.5 45.5C73.8 48.7 72.7 51.7 71.2 54.5C70.7 55.4 70.1 56.3 69.6 57.2C69.3 57.6 69 58.1 68.7 58.5C68.1 59.3 67.4 60.2 66.7 60.9C66.3 61.3 66 61.7 65.6 62C64.1 63.5 62.5 64.8 60.7001 66C59.8 66.6 58.9001 67.1 58 67.6C57.5 68 57 68.3 56.5 68.5C52.2001 70.6 47.4 71.7 42.3 71.7H41.7001C36.6 71.7 31.8 70.5 27.5 68.5C27 68.3 26.5 68 26.1 67.8C25.2 67.3 24.3 66.7 23.4 66.2C21.6 65 20 63.7 18.5 62.2C18.1 61.8 17.8 61.4 17.4 61.1C16.7 60.3 16 59.5 15.4 58.7C15.1 58.3 14.8 57.8 14.5 57.4C13.9 56.5 13.4 55.6 12.9 54.7C11.4 51.9 10.3 48.9 9.60005 45.7C9.40005 44.6 9.20005 43.5 9.10005 42.4C9.00005 41.3 8.90005 40.2 8.90005 39V38.7L11.5 13C11.2 13.3 10.9 13.6 10.6 13.9C10.3 14.2 10 14.6 9.70005 14.9L7.30005 38.4V38.7C7.30005 57.7 22.7001 73.1 41.7001 73.1H42.3C61.3 73.1 76.7 57.7 76.7 38.7Z" fill="#535E49"/>
<path opacity="0.2" d="M66.9001 8.09999C66.6001 7.89999 66.4 7.69999 66.1 7.49999C65.8 7.29999 65.6001 7.09999 65.3001 6.89999L68.7 39C68.6 53.5 56.8 65.2 42.3 65.2H41.7001C27.2001 65.2 15.4 53.5 15.3 39L18.7 6.89999C18.4 7.09999 18.2 7.29999 17.9 7.49999C17.6 7.69999 17.4 7.89999 17.1 8.09999L13.8 39C13.8 41.9 14.3 44.6 15.1 47.3C15.4 48.2 15.7 49 16 49.9C16.5 51.1 17.2 52.3 17.9 53.5C18.4 54.3 18.9 55 19.4 55.7C20.2 56.8 21.1 57.8 22 58.7C22.6 59.3 23.3 59.9 24 60.5C25 61.3 26.1 62.1 27.3 62.8C28.8 63.7 30.5 64.5 32.2001 65.1C35.2001 66.2 38.4 66.8 41.8 66.8H42.4001C45.8001 66.8 49 66.2 52 65.1C53.7001 64.5 55.3001 63.7 56.9001 62.8C58 62.1 59.1001 61.3 60.2001 60.5C60.9001 59.9 61.5 59.3 62.2001 58.7C63.1001 57.8 64.0001 56.7 64.8001 55.7C65.3001 55 65.8001 54.2 66.3001 53.5C67.0001 52.4 67.6 51.2 68.2 49.9C68.6 49.1 68.9 48.2 69.1 47.3C69.9 44.7 70.4001 41.9 70.4001 39L66.9001 8.09999Z" fill="#535E49"/>
<defs>
<radialGradient id="paint0_radial_630_43906" cx="0" cy="0" r="1" gradientUnits="userSpaceOnUse" gradientTransform="translate(33.015 23.3963) scale(65.7808)">
<stop offset="0.2105" stop-color="#D3E800"/>
<stop offset="0.4997" stop-color="#D1E602"/>
<stop offset="0.6379" stop-color="#CBDE08"/>
<stop offset="0.744" stop-color="#C1D112"/>
<stop offset="0.8338" stop-color="#B2BF21"/>
<stop offset="0.9125" stop-color="#A0A733"/>
<stop offset="0.9665" stop-color="#8F9244"/>
</radialGradient>
<radialGradient id="paint1_radial_630_43906" cx="0" cy="0" r="1" gradientUnits="userSpaceOnUse" gradientTransform="translate(34.0433 27.6459) scale(62.6167 62.6104)">
<stop offset="0.2517" stop-color="#EFE864"/>
<stop offset="0.2915" stop-color="#E9E661"/>
<stop offset="0.3472" stop-color="#D6DF57"/>
<stop offset="0.4121" stop-color="#B9D548"/>
<stop offset="0.4836" stop-color="#90C732"/>
<stop offset="0.5" stop-color="#85C32D"/>
<stop offset="0.6079" stop-color="#83BF2B"/>
<stop offset="0.711" stop-color="#7EB425"/>
<stop offset="0.8119" stop-color="#75A11B"/>
<stop offset="0.8904" stop-color="#6B8C10"/>
</radialGradient>
<radialGradient id="paint2_radial_630_43906" cx="0" cy="0" r="1" gradientUnits="userSpaceOnUse" gradientTransform="translate(34 24.5) rotate(40.6013) scale(32.2684 32.2739)">
<stop stop-color="white" stop-opacity="0.4"/>
<stop offset="1" stop-color="white" stop-opacity="0"/>
</radialGradient>
</defs>
</svg>
