<svg width="84" height="84" viewBox="0 0 84 84" fill="none" xmlns="http://www.w3.org/2000/svg">
<path fill-rule="evenodd" clip-rule="evenodd" d="M79.8022 23.0024C76.4041 18.7027 73.1059 14.6031 68.4085 12.1033C65.1103 8.30357 61.2124 5.10383 53.7166 1.7041C54.1163 1.7041 54.716 1.90409 55.4156 2.10407C63.2113 5.10383 74.805 10.9034 79.7023 21.9025C79.7023 22.3024 79.8022 22.6024 79.8022 23.0024Z" fill="url(#paint0_linear_421_43815)"/>
<path fill-rule="evenodd" clip-rule="evenodd" d="M79.8022 23.0024C76.4041 18.7027 73.1059 14.6031 68.4085 12.1033C65.1103 8.30357 61.2124 5.10383 53.7166 1.7041C54.1163 1.7041 54.716 1.90409 55.4156 2.10407C55.9153 2.30405 56.4151 2.50404 57.0147 2.70402C61.6122 4.80385 67.8088 9.50347 69.208 11.2033C71.107 12.4032 76.9038 16.5029 79.8022 22.4024C79.8022 22.6024 79.8022 22.8024 79.8022 23.0024Z" fill="url(#paint1_linear_421_43815)"/>
<path fill-rule="evenodd" clip-rule="evenodd" d="M71.307 66.8988C72.1065 68.1987 72.4064 69.6986 71.7067 71.6984C79.5025 65.099 83.9001 52.5 84 39.2011C84 39.0011 84 38.9011 83.9001 39.1011C83.3004 41.4009 80.9017 45.9005 77.8034 48.7003C77.0038 55.1998 74.905 61.3993 71.307 66.8988ZM43.0225 83.7975C42.123 82.6975 41.4234 81.4976 40.9237 80.0977C47.1203 77.298 51.5178 74.0982 55.4157 70.7985C60.8127 70.4985 66.1098 69.5986 71.207 66.8988C72.1065 68.3987 72.2065 69.8986 71.6068 71.6984C62.7117 79.9978 53.117 83.7975 43.0225 83.7975ZM22.4338 73.4983C27.9308 76.798 34.0275 79.0978 40.8237 80.1977C46.3207 77.6979 51.1181 74.5982 55.3158 70.8985C53.7166 65.9989 52.4174 60.2994 51.218 54.0999C43.7221 52.2 36.5261 49.9002 29.6299 47.4004C25.0324 51.0001 20.4349 54.6998 15.7375 58.2995C17.2367 64.499 19.1356 69.4986 22.4338 73.4983ZM15.7375 58.0995C17.5365 65.6989 19.8353 70.4985 22.4338 73.3983C20.0351 74.5982 18.8358 75.1982 16.2372 75.4981C7.7419 70.0986 2.6447 59.8994 0.645803 49.9002C0.545858 49.2003 0.445913 48.7003 0.645803 48.3003C1.34542 47.2004 2.74465 45.9005 3.94399 45.2006C7.84185 51.3001 10.7403 54.8998 15.7375 58.0995ZM3.94399 45.2006C2.74465 45.9005 0.146077 48.2003 0.445913 49.0003C-1.25315 34.4014 1.84514 23.5023 10.7403 14.703C9.84075 17.3028 9.64086 21.3025 10.0406 26.5021C6.54256 33.0016 4.64361 39.2011 3.94399 45.2006ZM42.123 12.9032C42.6227 9.50346 41.8232 6.10373 39.8243 2.60401C34.6271 1.90407 29.0302 1.60409 24.1329 3.80392C19.7353 6.10373 14.4382 10.0034 11.0401 14.2031C9.9407 15.303 9.44097 22.3024 10.0406 26.5021C15.4377 25.6022 20.9347 25.7021 25.6321 26.2021C31.0291 21.9025 42.123 12.9032 42.123 12.9032ZM68.3086 12.0033C73.006 14.4031 76.804 18.7027 80.0022 23.4023C82.9006 29.6018 83.9001 33.5015 83.9001 38.8011C83.9001 41.8008 79.9023 46.7005 77.8034 48.6003C74.6052 44.8006 70.6074 41.8008 66.4097 39.1011C64.2109 27.902 62.6118 22.5024 61.2125 19.5026C63.5113 16.9029 65.9099 14.4031 68.3086 12.0033ZM29.5299 47.2004C36.2263 49.7002 43.4223 51.9 51.1181 53.8999C56.615 49.3002 61.7122 44.4006 66.2098 39.2011C65.0104 32.6016 63.5113 26.0021 61.0126 19.5026C54.7161 16.8029 48.3196 14.603 41.8232 13.0032C35.9264 17.0028 30.4294 21.4025 25.4322 26.3021C26.9314 33.3015 29.5299 47.2004 29.5299 47.2004Z" fill="url(#paint2_radial_421_43815)"/>
<path fill-rule="evenodd" clip-rule="evenodd" d="M71.307 66.8988C72.1066 68.1987 72.4064 69.6986 71.7068 71.6984C72.8062 70.2985 72.7062 68.9987 72.4064 67.6988C72.3065 67.1988 72.4064 66.6988 72.7062 66.1989C75.5047 61.6992 77.6035 56.3997 78.8029 49.9002C78.9028 49.6002 79.0028 49.3002 79.1027 49.1003C81.3015 45.9005 83.4004 43.2007 83.9001 39.401L84 39.2011C84 39.1011 84 39.0011 83.9001 39.2011C83.3004 41.5009 80.9017 46.0005 77.8034 48.8003C77.0039 55.1998 74.905 61.3993 71.307 66.8988Z" fill="#B2B2B2"/>
<path fill-rule="evenodd" clip-rule="evenodd" d="M42.123 12.9032C42.6227 9.50348 41.8232 6.10376 39.8243 2.60404C38.7249 2.50405 37.6255 2.30406 36.5261 2.20407L33.3279 2.70403C34.5272 2.70403 36.726 2.90401 37.9253 3.00401C38.9248 3.104 39.3246 6.90369 39.4245 9.40349C39.5245 11.2033 38.9248 12.6032 37.5255 13.6032C32.9281 17.2029 29.2301 19.7027 26.3317 22.5024C25.5321 23.3024 24.5327 23.7023 23.3333 23.7023C18.3361 23.6023 14.0385 23.8023 10.7403 24.8022C10.5404 25.3022 10.2405 25.9022 10.0406 26.4021C15.4377 25.5022 20.9347 25.6022 25.6321 26.1021C31.0291 21.9025 42.123 12.9032 42.123 12.9032Z" fill="url(#paint3_radial_421_43815)" fill-opacity="0.7"/>
<path fill-rule="evenodd" clip-rule="evenodd" d="M12.4392 12.6032C11.9395 13.2032 11.4398 13.7031 10.9401 14.3031C9.84067 15.403 9.34095 22.4024 9.94062 26.6021L10.6402 25.0022C10.6402 21.5025 9.84067 15.9029 12.4392 12.6032Z" fill="#CCCCCC"/>
<path fill-rule="evenodd" clip-rule="evenodd" d="M53.4168 1.6041C51.2181 0.104225 46.2208 -0.295742 39.2246 0.204217C32.9281 0.604185 27.631 1.90408 26.5316 3.00399L39.7244 2.70402L53.4168 1.6041Z" fill="#EDEDED"/>
<path fill-rule="evenodd" clip-rule="evenodd" d="M27.531 3.00399L39.7243 2.70402L50.9182 1.80409L51.9176 1.50412C51.7177 1.10415 51.5178 1.00416 50.5184 0.904164C46.5206 0.20422 42.023 1.10415 39.5244 1.7041C37.0258 2.20406 33.5277 1.90408 30.1296 2.10407C28.6304 2.10407 27.631 2.50403 27.531 3.00399Z" fill="#FAFAFA"/>
<path fill-rule="evenodd" clip-rule="evenodd" d="M42.1231 12.9032C41.6234 9.50347 40.8238 6.00375 39.8243 2.60403C44.3219 1.30413 48.1198 0.804173 53.5168 1.50412C59.8134 4.10391 65.6102 7.70362 68.4086 11.9033C65.8101 14.5031 63.4114 16.9029 61.3125 19.4027C54.8161 17.3028 42.1231 12.9032 42.1231 12.9032Z" fill="url(#paint4_linear_421_43815)"/>
<path fill-rule="evenodd" clip-rule="evenodd" d="M29.5299 47.2004C36.2262 49.7002 43.4223 51.9 51.118 53.8999C56.615 49.3002 61.7122 44.4006 66.2097 39.2011C65.0104 32.6016 63.6112 25.2022 61.0126 19.5027L59.6134 20.8025C61.6123 23.9023 63.4113 32.7016 63.5112 37.0012C63.5112 37.6012 63.3113 38.2011 62.9116 38.7011C59.6134 42.8008 55.9154 46.2005 52.0175 49.2003C51.118 49.9002 50.0186 50.2002 48.8193 50.0002C42.5228 49.0003 36.626 47.9004 30.4294 45.6005L29.5299 47.2004Z" fill="url(#paint5_linear_421_43815)" fill-opacity="0.7"/>
<path fill-rule="evenodd" clip-rule="evenodd" d="M61.2125 19.5026C54.916 16.8029 48.5195 14.603 42.023 13.0032C36.1263 17.0029 30.5294 21.5025 25.5321 26.4021C26.8314 33.3015 28.2306 40.301 29.5299 47.2004L30.6293 45.8005C30.1296 39.901 29.2301 34.1015 28.7303 28.3019C28.6304 27.502 28.9302 26.8021 29.43 26.2021C33.028 22.5024 37.3256 19.1027 41.6233 16.2029C42.2229 15.8029 42.9225 15.603 43.7221 15.8029C48.9193 17.0029 54.2163 18.7027 59.7133 20.9025L61.2125 19.5026Z" fill="white"/>
<path fill-rule="evenodd" clip-rule="evenodd" d="M15.7374 58.0995C20.3348 54.4998 24.9323 50.8001 29.6297 47.2004C28.3304 40.301 26.9312 33.3015 25.6319 26.4021C20.7346 25.9021 15.5375 26.0021 10.0405 26.7021C7.14209 32.4016 4.84335 38.5011 3.94385 45.2006C8.44138 52.6 12.2393 56.1997 15.7374 58.0995Z" fill="url(#paint6_linear_421_43815)"/>
<path fill-rule="evenodd" clip-rule="evenodd" d="M0.545898 49.0003C0.545898 48.7003 0.545898 48.5003 0.745789 48.3003C1.4454 47.2004 2.84464 45.9005 4.04398 45.2006C8.04178 51.3001 10.9402 54.9998 15.8375 58.1995L14.6382 59.0995C10.6404 55.4998 6.64255 51.7001 3.44431 46.4005C2.14502 47.2004 1.14557 47.9004 0.545898 49.0003Z" fill="#E5E5E5"/>
<path fill-rule="evenodd" clip-rule="evenodd" d="M15.7375 58.0995C17.5366 65.6989 19.8353 70.4985 22.4339 73.3983C20.0352 74.5982 18.8358 75.1982 16.2373 75.4981C17.9363 74.9982 19.4355 74.1982 20.7348 72.9983C18.1362 68.5987 16.0374 63.7991 14.5382 58.9995L15.7375 58.0995Z" fill="#7F7F7F"/>
<path fill-rule="evenodd" clip-rule="evenodd" d="M40.9236 80.1978C46.4206 77.698 51.2179 74.5982 55.4156 70.8985C53.8165 65.9989 52.5172 60.2994 51.3179 54.0999L49.8187 55.4998C50.7182 60.3994 52.0175 65.199 53.8165 70.0986C54.0164 70.4985 53.8165 70.8985 53.5167 71.1985C49.9186 74.5982 45.621 77.498 40.9236 80.1978Z" fill="#7F7F7F"/>
<path fill-rule="evenodd" clip-rule="evenodd" d="M51.318 53.8999C43.8221 52 36.6261 49.7002 29.7299 47.2004C25.1324 50.8001 20.5349 54.4998 15.8375 58.0995C17.3367 64.399 19.3356 69.2986 22.5338 73.3983C20.1352 68.6987 18.0363 63.9991 16.9369 59.1995C16.837 58.7995 17.0369 58.2995 17.3367 58.0995C20.435 56.0997 23.5333 54.0999 28.6305 50.2002C29.3301 49.7002 30.0297 49.5002 30.8293 49.8002C37.1258 51.4001 43.4224 53.2999 49.7189 55.3998L51.318 53.8999Z" fill="url(#paint7_linear_421_43815)"/>
<path fill-rule="evenodd" clip-rule="evenodd" d="M40.9236 80.1978C41.3234 81.4977 42.123 82.6976 43.0225 83.8975C33.2278 84.5974 24.1328 81.6976 16.2372 75.6981C17.8363 75.6981 19.8352 74.9982 22.4338 73.5983C27.7309 76.798 34.0274 78.8979 40.9236 80.1978Z" fill="url(#paint8_linear_421_43815)"/>
<path fill-rule="evenodd" clip-rule="evenodd" d="M55.4156 70.7985C61.2124 70.5985 66.5095 69.3986 71.2069 66.8988C75.4046 61.8992 77.6034 54.9998 77.7033 48.8003C74.3052 45.0006 70.7072 42.0008 66.3096 39.3011C61.3124 44.2007 56.2151 49.1003 51.2179 53.9999C52.3173 59.5994 53.7165 65.299 55.4156 70.7985Z" fill="url(#paint9_linear_421_43815)"/>
<path fill-rule="evenodd" clip-rule="evenodd" d="M77.9033 48.7003C74.5052 44.9006 70.9071 41.9009 66.5096 39.2011C61.5123 44.1007 56.4151 49.0003 51.4178 53.8999C52.4173 59.5994 53.8165 65.199 55.5156 70.6985C54.5161 65.7989 53.8165 60.3994 53.3168 55.1998C53.2169 54.4998 53.5167 53.8999 54.0164 53.4999C58.1142 49.9002 61.6122 46.3005 65.8099 42.4008C66.4096 41.8009 67.2092 41.7009 68.0087 42.0009C71.3069 43.3007 74.805 46.1005 77.9033 48.7003Z" fill="#333333"/>
<path fill-rule="evenodd" clip-rule="evenodd" d="M43.0224 83.7975C42.1229 82.6976 41.4233 81.4977 40.9236 80.0978C47.1202 77.298 51.5178 74.0983 55.4156 70.7985C60.8127 70.4985 66.1097 69.5986 71.2069 66.8988C72.1064 68.3987 72.2064 69.8986 71.6067 71.6984C71.8066 70.3985 71.8066 68.8987 71.107 67.7988C66.1097 69.7986 60.9126 71.0985 55.6155 71.5985C51.3179 74.7982 46.9203 77.8979 41.6232 80.4977C42.023 81.5976 42.5227 82.7976 43.0224 83.7975Z" fill="#CCCCCC"/>
<path fill-rule="evenodd" clip-rule="evenodd" d="M10.6403 14.803V14.903C9.74081 17.5028 9.64087 21.4025 10.0406 26.5021L8.84131 26.3021C8.84131 22.1024 9.14114 18.5027 10.6403 14.803Z" fill="#FAFAFA"/>
<path fill-rule="evenodd" clip-rule="evenodd" d="M3.94388 45.2006C2.84448 45.8005 0.645691 47.8004 0.445801 48.8003C0.645691 47.1004 2.04492 45.8005 3.14432 44.9006C4.34366 38.5011 6.24262 32.4016 8.74124 26.6021L10.0405 26.8021C6.54245 33.0016 4.64349 39.2011 3.94388 45.2006Z" fill="#999999"/>
<path fill-rule="evenodd" clip-rule="evenodd" d="M84 39.2011C83.8001 42.2008 79.9023 46.9005 77.9034 48.7003C74.7051 44.9006 70.7073 41.9009 66.5096 39.2011L68.0088 38.1012C71.8067 40.401 75.5047 43.4007 78.5031 46.9005C80.6019 44.8006 82.7007 42.1008 84 39.2011Z" fill="#7F7F7F"/>
<path fill-rule="evenodd" clip-rule="evenodd" d="M68.3085 12.0033C68.7083 12.2032 69.1081 12.4032 69.5078 12.7032L68.9082 12.8032L64.3107 18.3028C63.711 19.0027 63.5111 19.9026 63.711 20.8026C65.3101 26.4021 66.8093 32.4016 67.8088 38.0012L66.3096 39.1011C64.2108 27.902 62.6116 22.5024 61.2124 19.5027C63.5111 16.9029 65.9098 14.4031 68.3085 12.0033Z" fill="url(#paint10_linear_421_43815)"/>
<path fill-rule="evenodd" clip-rule="evenodd" d="M43.722 11.5033C43.3222 8.70354 42.6226 5.90377 41.923 3.104C45.6209 2.10408 48.7192 1.70411 53.0169 2.20407C58.1141 4.3039 62.9114 7.20367 65.1102 10.7034C63.0114 12.8032 61.0125 14.8031 59.3134 16.8029C54.1163 15.103 43.722 11.5033 43.722 11.5033Z" fill="url(#paint11_linear_421_43815)"/>
<path fill-rule="evenodd" clip-rule="evenodd" d="M15.6377 56.2997C19.8354 53 23.9331 49.7002 28.1308 46.5005C26.9315 40.201 25.7321 34.0015 24.5328 27.702C20.1352 27.202 15.4378 27.302 10.4405 28.002C7.742 33.1016 5.84305 38.6011 5.14343 44.6006C9.14124 51.3001 12.4394 54.5998 15.6377 56.2997Z" fill="url(#paint12_linear_421_43815)"/>
<path opacity="0.6" fill-rule="evenodd" clip-rule="evenodd" d="M15.6377 56.2997C19.8354 53 23.9331 49.7002 28.1308 46.5005C26.9315 40.201 25.7321 34.0015 24.5328 27.702C20.1352 27.202 15.4378 27.302 10.4405 28.002C7.742 33.1016 5.84305 38.6011 5.14343 44.6006C9.14124 51.4001 12.4394 54.5998 15.6377 56.2997Z" fill="url(#paint13_linear_421_43815)"/>
<defs>
<linearGradient id="paint0_linear_421_43815" x1="68.4981" y1="13.5402" x2="65.9242" y2="10.2126" gradientUnits="userSpaceOnUse">
<stop offset="0.38" stop-color="#CCCCCC"/>
<stop offset="0.62" stop-color="#E5E5E5"/>
</linearGradient>
<linearGradient id="paint1_linear_421_43815" x1="71.4178" y1="14.5628" x2="63.0869" y2="8.44778" gradientUnits="userSpaceOnUse">
<stop offset="0.18" stop-color="#E5E5E5"/>
<stop offset="0.82" stop-color="white"/>
</linearGradient>
<radialGradient id="paint2_radial_421_43815" cx="0" cy="0" r="1" gradientUnits="userSpaceOnUse" gradientTransform="translate(28.2707 17.5086) rotate(1.2842) scale(65.9147 65.9455)">
<stop offset="0.06" stop-color="white"/>
<stop offset="0.4208" stop-color="#E2E2E2"/>
<stop offset="0.72" stop-color="#CDCDCD"/>
<stop offset="0.94" stop-color="#E1E1E1"/>
</radialGradient>
<radialGradient id="paint3_radial_421_43815" cx="0" cy="0" r="1" gradientUnits="userSpaceOnUse" gradientTransform="translate(26.0907 14.4624) scale(14.2693 14.2759)">
<stop offset="0.06" stop-color="white"/>
<stop offset="0.3163" stop-color="#D1D1D1"/>
<stop offset="0.7133" stop-color="#999999"/>
<stop offset="1" stop-color="#D1D1D1"/>
</radialGradient>
<linearGradient id="paint4_linear_421_43815" x1="64.1783" y1="16.4847" x2="43.6809" y2="4.51669" gradientUnits="userSpaceOnUse">
<stop offset="0.19"/>
<stop offset="0.81" stop-color="#666666"/>
</linearGradient>
<linearGradient id="paint5_linear_421_43815" x1="34.7408" y1="20.5494" x2="61.4332" y2="52.6755" gradientUnits="userSpaceOnUse">
<stop offset="0.46" stop-color="#7F7F7F"/>
<stop offset="0.8919" stop-color="#B2B2B2"/>
</linearGradient>
<linearGradient id="paint6_linear_421_43815" x1="29.464" y1="49.3411" x2="6.81112" y2="31.4648" gradientUnits="userSpaceOnUse">
<stop offset="0.2"/>
<stop offset="0.8" stop-color="#666666"/>
</linearGradient>
<linearGradient id="paint7_linear_421_43815" x1="35.3163" y1="73.8965" x2="32.6267" y2="47.004" gradientUnits="userSpaceOnUse">
<stop offset="0.14" stop-color="#CCCCCC"/>
<stop offset="0.86" stop-color="white"/>
</linearGradient>
<linearGradient id="paint8_linear_421_43815" x1="6.52062" y1="69.4117" x2="47.4429" y2="86.6096" gradientUnits="userSpaceOnUse">
<stop offset="0.26"/>
<stop offset="0.74" stop-color="#666666"/>
</linearGradient>
<linearGradient id="paint9_linear_421_43815" x1="55.1528" y1="41.925" x2="72.5855" y2="69.0574" gradientUnits="userSpaceOnUse">
<stop/>
<stop offset="1" stop-color="#666666"/>
</linearGradient>
<linearGradient id="paint10_linear_421_43815" x1="71.037" y1="37.7641" x2="64.2976" y2="12.103" gradientUnits="userSpaceOnUse">
<stop offset="0.16" stop-color="#E5E5E5"/>
<stop offset="0.84" stop-color="white"/>
</linearGradient>
<linearGradient id="paint11_linear_421_43815" x1="56.3046" y1="16.9432" x2="51.7068" y2="2.79929" gradientUnits="userSpaceOnUse">
<stop offset="0.2486" stop-color="white" stop-opacity="0"/>
<stop offset="0.9912" stop-color="white" stop-opacity="0.5"/>
</linearGradient>
<linearGradient id="paint12_linear_421_43815" x1="22.2389" y1="47.986" x2="11.6756" y2="31.0891" gradientUnits="userSpaceOnUse">
<stop offset="0.4515" stop-color="white" stop-opacity="0"/>
<stop offset="1" stop-color="white" stop-opacity="0.5"/>
</linearGradient>
<linearGradient id="paint13_linear_421_43815" x1="24.7442" y1="52.0068" x2="10.1644" y2="28.6851" gradientUnits="userSpaceOnUse">
<stop offset="0.3927" stop-color="white" stop-opacity="0"/>
<stop offset="0.8697" stop-color="white"/>
</linearGradient>
</defs>
</svg>
