<svg width="84" height="84" viewBox="0 0 84 84" fill="none" xmlns="http://www.w3.org/2000/svg">
<g clip-path="url(#clip0_630_45293)">
<path d="M65.2093 0L53.2429 29.1391C53.2429 29.1391 51.6979 34.0082 40.6252 40.3244C40.6252 40.3244 26.3563 48.0727 10.5273 50.349C10.5273 50.349 6.45271 50.7862 3.93825 51.7509C3.19603 52.0373 2.59013 52.369 2.27204 52.7458C2.27204 52.7458 -1.75716 55.2482 0.908776 62.2127C0.908776 62.2127 2.72646 66.328 4.27149 67.2777C4.27149 67.2777 5.044 69.5992 11.3756 68.0013C11.3756 68.0013 28.0983 65.2879 43.7304 56.1678C43.7304 56.1678 52.1523 51.6454 54.9091 45.706C54.9091 45.706 63.8158 26.7121 73.3434 0H65.2093V0Z" fill="url(#paint0_linear_630_45293)"/>
<path d="M55.5152 30.0888C54.3337 32.6816 54.1671 33.9177 43.5791 40.9425C30.8705 49.3692 16.1927 51.555 12.2241 52.3087C8.25548 53.0624 8.34637 50.7409 8.34637 50.7409C12.1332 49.9721 29.5224 47.0477 40.686 40.234C51.8496 33.4203 51.7738 31.3551 53.1825 28.9281C54.0611 27.4206 58.0448 17.4714 58.0448 17.4714L65.2095 0H67.1484L55.5152 30.0888Z" fill="url(#paint1_linear_630_45293)"/>
<path d="M10.5273 50.3641C10.5273 50.3641 11.8755 51.2233 12.2693 52.7609C12.2693 52.7609 31.9154 49.4898 41.8672 42.0429L40.6251 40.3395C40.6251 40.3244 30.8551 46.1583 10.5273 50.3641Z" fill="url(#paint2_linear_630_45293)"/>
<path d="M12.2695 52.7609L13.1784 67.6697C13.1784 67.6697 33.0669 63.6146 44.185 55.9266L41.8675 42.0278C41.8675 42.0278 34.3544 47.9521 12.2695 52.7609Z" fill="white"/>
</g>
<path d="M81.1158 62.8015L79.5897 49.4372L65.6906 51.9445C62.5784 51.6279 59.1737 51.7987 55.7133 52.4272C52.4899 53.0263 49.5697 54.0102 46.9092 55.2576L32.7087 57.8448L35.7559 70.6955C37.2806 78.3113 48.613 82.5207 61.0397 80.1264C73.1006 77.8623 81.8494 70.2059 81.1158 62.8015Z" fill="url(#paint3_linear_630_45293)"/>
<path d="M58.8217 66.2143C45.921 68.6676 34.6253 64.6368 32.9438 57.3505C32.7903 56.6933 32.7083 55.9286 32.7342 55.235C32.5446 56.3154 32.5849 57.4234 32.8047 58.4951C34.265 66.1612 45.8848 70.4052 58.7855 67.9519C70.4944 65.7034 79.2363 58.1043 79.5674 51.0603C78.0042 57.2011 69.8702 64.1186 58.8217 66.2143Z" fill="url(#paint4_linear_630_45293)"/>
<path d="M79.5633 48.2146C80.9869 55.7021 71.7154 63.8181 58.8148 66.2715C45.9141 68.7248 34.3378 64.6022 32.8636 57.0505C31.3894 49.4989 40.7045 41.5042 53.6052 39.0509C66.5059 36.5975 78.0891 40.6629 79.5633 48.2146Z" fill="url(#paint5_linear_630_45293)"/>
<defs>
<linearGradient id="paint0_linear_630_45293" x1="-6.54737e-05" y1="34.2855" x2="73.3692" y2="34.2855" gradientUnits="userSpaceOnUse">
<stop stop-color="#CC9B7A"/>
<stop offset="1" stop-color="#FFDABF"/>
</linearGradient>
<linearGradient id="paint1_linear_630_45293" x1="8.35027" y1="26.2289" x2="67.1576" y2="26.2289" gradientUnits="userSpaceOnUse">
<stop stop-color="#FFDABF" stop-opacity="0"/>
<stop offset="0.1064" stop-color="#A38074"/>
</linearGradient>
<linearGradient id="paint2_linear_630_45293" x1="10.5263" y1="46.5404" x2="41.8687" y2="46.5404" gradientUnits="userSpaceOnUse">
<stop stop-color="#EFEFEF"/>
<stop offset="1" stop-color="#939393"/>
</linearGradient>
<linearGradient id="paint3_linear_630_45293" x1="35.5576" y1="71.149" x2="82.1281" y2="61.1148" gradientUnits="userSpaceOnUse">
<stop stop-color="#A2A2A2"/>
<stop offset="0.048177" stop-color="#7C7C7C"/>
<stop offset="0.1022" stop-color="#595959"/>
<stop offset="0.153" stop-color="#3F3F3F"/>
<stop offset="0.1988" stop-color="#2F2F2F"/>
<stop offset="0.2353" stop-color="#2A2A2A"/>
<stop offset="0.4198"/>
<stop offset="0.5749" stop-color="#2A2A2A"/>
<stop offset="0.8342" stop-color="#A2A2A2"/>
<stop offset="1" stop-color="#454545"/>
</linearGradient>
<linearGradient id="paint4_linear_630_45293" x1="33.2332" y1="62.9961" x2="80.3204" y2="57.9376" gradientUnits="userSpaceOnUse">
<stop stop-color="#4B4C4C"/>
<stop offset="0.014506" stop-color="#575858"/>
<stop offset="0.074792" stop-color="#828383"/>
<stop offset="0.1289" stop-color="#A2A2A2"/>
<stop offset="0.1745" stop-color="#B5B5B5"/>
<stop offset="0.2059" stop-color="#BCBCBC"/>
<stop offset="0.2222" stop-color="#A7A7A7"/>
<stop offset="0.2488" stop-color="#8A8B8B"/>
<stop offset="0.2788" stop-color="#737474"/>
<stop offset="0.313" stop-color="#616262"/>
<stop offset="0.354" stop-color="#545555"/>
<stop offset="0.4086" stop-color="#4D4E4E"/>
<stop offset="0.5321" stop-color="#4B4C4C"/>
<stop offset="0.5584" stop-color="#4F5050"/>
<stop offset="0.5852" stop-color="#5B5C5C"/>
<stop offset="0.6121" stop-color="#707070"/>
<stop offset="0.6392" stop-color="#8C8D8D"/>
<stop offset="0.6665" stop-color="#B1B1B1"/>
<stop offset="0.6934" stop-color="#DDDEDE"/>
<stop offset="0.7112" stop-color="white"/>
<stop offset="0.8476" stop-color="#5C5C5C"/>
<stop offset="1" stop-color="#BCBCBC"/>
</linearGradient>
<linearGradient id="paint5_linear_630_45293" x1="33.3625" y1="50.0163" x2="78.9834" y2="55.8275" gradientUnits="userSpaceOnUse">
<stop stop-color="#4B4C4C"/>
<stop offset="1" stop-color="#2A2A2A"/>
</linearGradient>
<clipPath id="clip0_630_45293">
<rect width="73.3738" height="68.5741" fill="white"/>
</clipPath>
</defs>
</svg>
